# ProBuilder 5.0.3
# https://unity3d.com/unity/features/worldbuilding/probuilder
# 26.8.2021 16.35.22

mtllib ./Chain.mtl
o Chain

g Chain
v 0.009959221 2.792163E-07 -0.5
v 0.009959058 -2.47579E-08 0.2576568
v -0.9976211 2.792163E-07 -0.5
v -0.9976211 -2.47579E-08 0.2576568
v 0.009959058 0.0001000533 0.7576568
v -0.9976211 0.0001000533 0.7576568
v 0.009959058 0.0002001314 1.257657
v -0.9976211 0.0002001314 1.257657
v 0.009959058 0.0003002095 1.757657
v -0.9976211 0.0003002095 1.757657
v 0.009959058 0.0004002876 2.257657
v -0.9976211 0.0004002876 2.257657
v 0.009959058 0.0005003657 2.757657
v -0.9976211 0.0005003657 2.757657
v 0.009959058 0.0006004437 3.257657
v -0.9976211 0.0006004437 3.257657
v 0.009959058 0.0007005218 3.757657
v -0.9976211 0.0007005218 3.757657
v 0.009959058 0.0008005999 4.257657
v -0.9976211 0.0008005999 4.257657
v 0.009959058 0.000900678 4.757657
v -0.9976211 0.000900678 4.757657
v 0.009959058 0.001000756 5.257657
v -0.9976211 0.001000756 5.257657
v 0.009959058 0.001100834 5.757657
v -0.9976211 0.001100834 5.757657

vt -0.009959221 -0.5
vt -0.009959058 0.2576568
vt 0.9976211 -0.5
vt 0.9976211 0.2576568
vt -0.009959058 0.7576568
vt 0.9976211 0.7576568
vt -0.009959058 1.257657
vt 0.9976211 1.257657
vt -0.009959058 1.757657
vt 0.9976211 1.757657
vt -0.009959058 2.257657
vt 0.9976211 2.257657
vt -0.009959058 2.757657
vt 0.9976211 2.757657
vt -0.009959058 3.257657
vt 0.9976211 3.257657
vt -0.009959058 3.757657
vt 0.9976211 3.757657
vt -0.009959058 4.257657
vt 0.9976211 4.257657
vt -0.009959058 4.757657
vt 0.9976211 4.757657
vt -0.009959058 5.257657
vt 0.9976211 5.257657
vt -0.009959058 5.757657
vt 0.9976211 5.757657

vn 0 1 4.01203E-07

usemtl chain
f 3/3/1 2/2/1 1/1/1
f 3/3/1 4/4/1 2/2/1
f 2/2/1 4/4/1 5/5/1
f 4/4/1 6/6/1 5/5/1
f 5/5/1 6/6/1 7/7/1
f 6/6/1 8/8/1 7/7/1
f 7/7/1 8/8/1 9/9/1
f 8/8/1 10/10/1 9/9/1
f 9/9/1 10/10/1 11/11/1
f 10/10/1 12/12/1 11/11/1
f 11/11/1 12/12/1 13/13/1
f 12/12/1 14/14/1 13/13/1
f 13/13/1 14/14/1 15/15/1
f 14/14/1 16/16/1 15/15/1
f 15/15/1 16/16/1 17/17/1
f 16/16/1 18/18/1 17/17/1
f 17/17/1 18/18/1 19/19/1
f 18/18/1 20/20/1 19/19/1
f 19/19/1 20/20/1 21/21/1
f 20/20/1 22/22/1 21/21/1
f 21/21/1 22/22/1 23/23/1
f 22/22/1 24/24/1 23/23/1
f 23/23/1 24/24/1 25/25/1
f 24/24/1 26/26/1 25/25/1

