# 3ds Max Wavefront OBJ Exporter v0.99 - (c)2007 guruware
# File Created: 19.11.2021 16:52:31

#
# object Monitor
#

v  5.3058 26.4060 28.9224
v  -1.4881 26.4060 29.0765
v  -1.4881 -0.1383 29.0765
v  5.3058 -0.1383 28.9224
v  -2.3704 -0.1383 5.4835
v  4.4236 -0.1383 5.5322
v  21.0474 22.1960 23.9238
v  21.0474 4.0717 23.9238
v  20.4556 4.0717 8.0993
v  20.4556 22.1960 8.0993
v  4.4236 26.4060 5.5322
v  -2.3704 26.4060 5.4835
v  -2.4827 2.2033 7.9104
v  -2.4827 24.0644 7.9104
v  -1.7804 2.2033 26.6904
v  -1.7804 24.0644 26.6904
v  -1.9730 2.5161 8.1628
v  -1.9730 23.7516 8.1628
v  -1.2908 2.5161 26.4053
v  -1.2908 23.7516 26.4053
v  -0.0447 24.9579 4.2863
v  -0.1346 1.5666 4.2897
v  4.2641 24.3698 4.2495
v  18.5200 20.1182 6.7454
v  18.7020 5.6222 6.7385
v  4.1975 2.0576 4.2522
v  -0.0771 24.9586 3.4433
v  -0.1671 1.5659 3.4467
v  18.5093 5.6192 3.1329
v  18.3266 20.1186 3.1399
v  16.5236 6.7792 -0.4727
v  1.7721 3.5796 -0.4726
v  1.8461 22.8196 -0.4729
v  16.3695 19.0024 -0.4721
v  5.6928 18.0619 1.6293
v  5.6409 8.1224 1.6276
v  12.7030 16.3720 1.6048
v  12.7723 9.5462 1.6069
v  1.8460 22.8196 -0.0141
v  1.7720 3.5796 -0.0137
v  16.3694 19.0024 -0.0133
v  16.5235 6.7792 -0.0138
# 42 vertices

vn 0.0349 0.0000 0.9994
vn 0.1739 -0.9847 -0.0061
vn 0.0000 -1.0000 0.0000
vn 0.1730 -0.9849 -0.0060
vn 0.9994 0.0000 -0.0349
vn 0.0000 1.0000 0.0000
vn 0.1739 0.9847 -0.0061
vn 0.1730 0.9849 -0.0060
vn -0.9992 -0.0407 -0.0039
vn -0.9992 0.0407 -0.0039
vn -0.9992 0.0395 -0.0050
vn -0.9992 -0.0395 -0.0050
vn -0.9964 -0.0406 0.0741
vn -0.9964 -0.0398 0.0749
vn -0.9964 0.0406 0.0741
vn -0.9964 0.0398 0.0749
vn -0.4685 0.0000 0.8834
vn -0.5563 0.8308 0.0194
vn -0.5290 0.0000 -0.8486
vn -0.5563 -0.8308 0.0194
vn 0.1827 0.9832 -0.0064
vn 0.3744 0.9272 -0.0131
vn 0.4082 0.9128 -0.0143
vn 0.1944 0.0000 0.9809
vn 0.1827 -0.9832 -0.0064
vn 0.4082 -0.9128 -0.0143
vn 0.3744 -0.9272 -0.0131
vn -0.4834 0.0001 -0.8754
vn -0.4974 0.0017 -0.8675
vn -0.4959 0.0015 -0.8684
vn -0.4828 0.0000 -0.8757
vn 0.0007 0.5775 -0.8164
vn 0.1338 0.7430 -0.6558
vn 0.0149 0.5971 -0.8020
vn -0.0295 0.5343 -0.8448
vn 0.1944 0.4286 -0.8823
vn 0.2387 0.5973 -0.7657
vn 0.2798 0.5924 -0.7555
vn 0.1894 0.4151 -0.8899
vn 0.6364 0.0005 -0.7714
vn 0.5941 0.0073 -0.8044
vn 0.6011 0.0062 -0.7991
vn 0.6391 0.0000 -0.7691
vn 0.1806 -0.6236 -0.7606
vn 0.2159 -0.5053 -0.8355
vn 0.2154 -0.5196 -0.8268
vn 0.2127 -0.5926 -0.7769
vn -0.0116 -0.5322 -0.8466
vn 0.0184 -0.5022 -0.8646
vn -0.0046 -0.5252 -0.8509
vn -0.0292 -0.5491 -0.8352
vn -0.9985 0.0036 0.0552
vn -0.9985 0.0036 0.0553
vn 0.9987 0.0117 -0.0499
vn 0.9987 0.0118 -0.0500
vn 0.9987 0.0117 -0.0498
vn 0.0001 0.0000 -1.0000
vn -0.0000 -0.0000 -1.0000
vn 0.0002 0.0001 -1.0000
vn 0.2258 -0.9741 -0.0148
vn 0.2251 -0.9743 -0.0112
vn 0.2252 -0.9742 -0.0118
vn 0.2261 -0.9740 -0.0105
vn 0.2708 0.9625 -0.0126
vn 0.2707 0.9626 -0.0135
vn 0.2694 0.9629 -0.0146
vn 0.2693 0.9630 -0.0137
vn -0.0863 0.0702 -0.9938
vn -0.0904 -0.0716 -0.9933
vn -0.0608 -0.0322 -0.9976
vn -0.0592 0.0320 -0.9977
vn 0.0762 0.0854 -0.9934
vn 0.0077 0.0321 -0.9995
vn 0.0699 -0.0826 -0.9941
vn 0.0062 -0.0317 -0.9995
vn -0.3059 0.0012 0.9521
vn -0.3060 0.0011 0.9520
vn 0.2035 0.1535 0.9670
vn 0.0865 0.3079 0.9475
vn 0.1976 0.1616 0.9669
vn 0.1968 -0.1520 0.9686
vn 0.1907 -0.1602 0.9685
vn 0.0725 -0.3121 0.9473
vn 0.0726 -0.3121 0.9473
vn -1.0000 0.0036 -0.0001
vn 0.2709 0.9626 0.0000
vn 0.9999 0.0118 0.0001
vn 0.2263 -0.9741 0.0000
# 88 vertex normals

vt 0.2761 0.3958 0.0000
vt 0.2761 0.3168 0.0000
vt 0.5844 0.3169 0.0000
vt 0.5844 0.3958 0.0000
vt 0.8586 0.3128 0.0000
vt 0.8563 0.3917 0.0000
vt 0.3183 0.5786 0.0000
vt 0.5422 0.5786 0.0000
vt 0.5489 0.7857 0.0000
vt 0.3117 0.7857 0.0000
vt 0.0060 0.4017 0.0000
vt 0.0018 0.3229 0.0000
vt 0.3155 0.0337 0.0000
vt 0.0325 0.0337 0.0000
vt 0.0026 0.0027 0.0000
vt 0.3454 0.0027 0.0000
vt 0.3157 0.2774 0.0000
vt 0.3459 0.3081 0.0000
vt 0.0322 0.2774 0.0000
vt 0.0021 0.3081 0.0000
vt 0.3101 0.0388 0.0000
vt 0.0379 0.0388 0.0000
vt 0.3101 0.2724 0.0000
vt 0.0378 0.2724 0.0000
vt 0.2276 0.5815 0.0000
vt 0.0446 0.5828 0.0000
vt 0.8223 0.5772 0.0000
vt 0.6383 0.5799 0.0000
vt 0.5286 0.8132 0.0000
vt 0.3251 0.8127 0.0000
vt 0.3079 0.7922 0.0000
vt 0.5445 0.7927 0.0000
vt 0.5180 0.8493 0.0000
vt 0.5388 0.8530 0.0000
vt 0.4858 0.9777 0.0000
vt 0.5052 0.9974 0.0000
vt 0.3593 0.9791 0.0000
vt 0.3444 0.9976 0.0000
vt 0.3318 0.8495 0.0000
vt 0.3096 0.8531 0.0000
vt 0.9107 0.3398 0.0000
vt 0.9106 0.7011 0.0000
vt 0.8976 0.7011 0.0000
vt 0.8977 0.3398 0.0000
vt 0.9867 0.3635 0.0000
vt 0.9849 0.6613 0.0000
vt 0.9162 0.6612 0.0000
vt 0.9150 0.3636 0.0000
vt 0.6332 0.2842 0.0000
vt 0.6054 0.1561 0.0000
vt 0.7724 0.1568 0.0000
vt 0.7393 0.2828 0.0000
vt 0.9787 0.0879 0.0000
vt 0.9824 0.0047 0.0000
vt 0.9986 0.0050 0.0000
vt 0.9754 0.9218 0.0000
vt 0.9951 0.9977 0.0000
vt 0.9803 0.9979 0.0000
vt 0.4206 0.2569 0.0000
vt 0.4998 0.2568 0.0000
vt 0.5524 0.3050 0.0000
vt 0.3659 0.3054 0.0000
vt 0.4160 0.1544 0.0000
vt 0.4859 0.1548 0.0000
vt 0.5557 0.2098 0.0000
vt 0.3713 0.2046 0.0000
vt 0.6486 0.0792 0.0000
vt 0.7303 0.0790 0.0000
vt 0.7746 0.1492 0.0000
vt 0.6010 0.1499 0.0000
vt 0.4322 0.0507 0.0000
vt 0.5024 0.0504 0.0000
vt 0.5496 0.1005 0.0000
vt 0.3650 0.1050 0.0000
vt 0.3828 0.2234 0.0000
vt 0.5361 0.2234 0.0000
vt 0.3876 0.1177 0.0000
vt 0.5331 0.1155 0.0000
vt 0.6149 0.0307 0.0000
vt 0.7612 0.0307 0.0000
vt 0.3868 0.0118 0.0000
vt 0.5326 0.0135 0.0000
vt 0.3828 0.2197 0.0000
vt 0.5361 0.2197 0.0000
vt 0.3875 0.1132 0.0000
vt 0.5330 0.1111 0.0000
vt 0.6149 0.0252 0.0000
vt 0.7612 0.0252 0.0000
vt 0.3869 0.0074 0.0000
vt 0.5327 0.0090 0.0000
# 90 texture coords

o Monitor
g Monitor
s off
f 1/1/1 2/2/1 3/3/1 
f 3/3/1 4/4/1 1/1/1 
f 4/4/2 3/3/3 5/5/3 
f 5/5/3 6/6/4 4/4/2 
f 7/7/5 8/8/5 9/9/5 
f 9/9/5 10/10/5 7/7/5 
f 2/2/6 1/1/7 11/11/8 
f 11/11/8 12/12/6 2/2/6 
f 13/13/9 14/14/10 12/15/11 
f 12/15/11 5/16/12 13/13/9 
f 15/17/13 13/13/9 5/16/12 
f 5/16/12 3/18/14 15/17/13 
f 16/19/15 15/17/13 3/18/14 
f 3/18/14 2/20/16 16/19/15 
f 14/14/10 16/19/15 2/20/16 
f 2/20/16 12/15/11 14/14/10 
f 13/13/17 17/21/17 18/22/17 
f 18/22/17 14/14/17 13/13/17 
f 15/17/18 19/23/18 17/21/18 
f 17/21/18 13/13/18 15/17/18 
f 16/19/19 20/24/19 19/23/19 
f 19/23/19 15/17/19 16/19/19 
f 14/14/20 18/22/20 20/24/20 
f 20/24/20 16/19/20 14/14/20 
f 7/25/21 10/26/21 11/11/22 
f 11/11/22 1/1/23 7/25/21 
f 8/8/24 7/7/24 1/1/24 
f 1/1/24 4/4/24 8/8/24 
f 9/27/25 8/28/25 4/4/26 
f 4/4/26 6/6/27 9/27/25 
f 21/29/28 22/30/29 5/31/30 
f 5/31/30 12/32/31 21/29/28 
f 23/33/32 21/29/33 12/32/34 
f 12/32/34 11/34/35 23/33/32 
f 24/35/36 23/33/37 11/34/38 
f 11/34/38 10/36/39 24/35/36 
f 25/37/40 24/35/41 10/36/42 
f 10/36/42 9/38/43 25/37/40 
f 26/39/44 25/37/45 9/38/46 
f 9/38/46 6/40/47 26/39/44 
f 22/30/48 26/39/49 6/40/50 
f 6/40/50 5/31/51 22/30/48 
f 27/41/52 28/42/53 22/43/53 
f 22/43/53 21/44/52 27/41/52 
f 29/45/54 30/46/55 24/47/55 
f 24/47/55 25/48/56 29/45/54 
f 31/49/57 32/50/58 33/51/57 
f 33/51/57 34/52/59 31/49/57 
f 26/53/60 22/54/61 28/55/62 
f 26/53/60 28/55/62 29/45/63 
f 26/53/60 29/45/63 25/48/63 
f 23/56/64 24/47/65 30/46/65 
f 23/56/64 30/46/65 27/57/66 
f 23/56/64 27/57/66 21/58/67 
f 35/59/68 36/60/69 28/61/70 
f 28/61/70 27/62/71 35/59/68 
f 37/63/72 35/64/68 27/65/71 
f 27/65/71 30/66/73 37/63/72 
f 38/67/74 37/68/72 30/69/73 
f 30/69/73 29/70/75 38/67/74 
f 36/71/69 38/72/74 29/73/75 
f 29/73/75 28/74/70 36/71/69 
f 39/75/76 40/76/77 36/60/77 
f 36/60/77 35/59/76 39/75/76 
f 41/77/78 39/78/79 35/64/79 
f 35/64/79 37/63/80 41/77/78 
f 42/79/81 41/80/78 37/68/80 
f 37/68/80 38/67/82 42/79/81 
f 40/81/83 42/82/81 38/72/82 
f 38/72/82 36/71/84 40/81/83 
f 33/83/85 32/84/85 40/76/85 
f 40/76/85 39/75/85 33/83/85 
f 34/85/86 33/86/86 39/78/86 
f 39/78/86 41/77/86 34/85/86 
f 31/87/87 34/88/87 41/80/87 
f 41/80/87 42/79/87 31/87/87 
f 32/89/88 31/90/88 42/82/88 
f 42/82/88 40/81/88 32/89/88 
# 78 faces

#
# object Screen
#

v  -1.4077 1.3264 8.0200
v  -1.6936 1.3264 13.0966
v  -1.6936 24.9463 13.0966
v  -1.4077 24.9463 8.0200
v  -1.0666 1.3264 27.5557
v  -1.0666 24.9463 27.5557
v  -1.5146 24.9463 22.8110
v  -1.5146 1.3264 22.8110
v  -1.7815 1.3264 16.3453
v  -1.7228 1.3264 19.5843
v  -1.7228 24.9463 19.5843
v  -1.7815 24.9463 16.3453
# 12 vertices

vn -0.9937 0.0000 -0.1119
vn -0.9966 0.0000 -0.0830
vn -0.9826 0.0000 0.1856
vn -0.9876 0.0000 0.1568
vn -1.0000 0.0000 -0.0089
vn -0.9966 0.0000 0.0822
# 6 vertex normals

vt 0.9995 0.0834 0.0000
vt 0.9995 0.2982 0.0000
vt 0.0005 0.2982 0.0000
vt 0.0005 0.0834 0.0000
vt 0.9995 0.9097 0.0000
vt 0.0005 0.9097 0.0000
vt 0.0005 0.7090 0.0000
vt 0.9995 0.7090 0.0000
vt 0.9995 0.4356 0.0000
vt 0.9995 0.5726 0.0000
vt 0.0005 0.5726 0.0000
vt 0.0005 0.4356 0.0000
# 12 texture coords

o Screen
g Screen
s off
f 43/91/89 44/92/90 45/93/90 
f 45/93/90 46/94/89 43/91/89 
f 47/95/91 48/96/91 49/97/92 
f 49/97/92 50/98/92 47/95/91 
f 51/99/93 52/100/94 53/101/94 
f 53/101/94 54/102/93 51/99/93 
f 44/92/90 51/99/93 54/102/93 
f 54/102/93 45/93/90 44/92/90 
f 52/100/94 50/98/92 49/97/92 
f 49/97/92 53/101/94 52/100/94 
# 10 faces

#
# object Computer
#

v  23.5798 -6.2379 0.0000
v  23.5798 -21.2379 0.0000
v  -2.0553 -21.2379 0.0000
v  -1.0861 -19.8454 -0.0000
v  -1.0861 -7.6290 -0.0000
v  -2.0553 -6.2379 0.0000
v  -2.0553 -21.2379 32.4041
v  23.5798 -21.2379 32.4041
v  23.5798 -6.2379 32.4041
v  -2.0553 -6.2379 32.4041
v  -1.0861 -19.8330 31.0041
v  -1.0861 -7.6437 31.0041
v  -2.0553 -19.8448 -0.0012
v  -2.0553 -19.8324 31.0041
v  -2.0553 -7.6444 31.0041
v  -2.0553 -7.6297 -0.0012
# 16 vertices

vn 0.0000 0.0000 -1.0000
vn 0.0000 0.0000 1.0000
vn 0.0000 -1.0000 0.0000
vn 1.0000 0.0000 0.0000
vn 0.0000 1.0000 0.0000
vn -1.0000 -0.0000 0.0000
vn 0.0024 -0.0009 -1.0000
vn -1.0000 0.0000 0.0000
vn -1.0000 0.0000 -0.0000
vn 0.0024 0.0009 -1.0000
vn 0.0011 1.0000 -0.0004
vn 0.0000 -0.0000 -1.0000
vn 0.0013 -1.0000 -0.0005
# 13 vertex normals

vt 0.3107 0.5130 0.0000
vt 0.3107 0.6890 0.0000
vt 0.0100 0.6890 0.0000
vt 0.0213 0.6726 0.0000
vt 0.0213 0.5293 0.0000
vt 0.0100 0.5130 0.0000
vt 0.9914 0.6890 0.0000
vt 0.6907 0.6890 0.0000
vt 0.6907 0.5130 0.0000
vt 0.9914 0.5130 0.0000
vt 0.3107 0.9896 0.0000
vt 0.6907 0.9896 0.0000
vt 0.3107 0.2123 0.0000
vt 0.6907 0.2123 0.0000
vt 0.0611 0.0018 0.0000
vt 0.2597 0.0018 0.0000
vt 0.2595 0.5057 0.0000
vt 0.0614 0.5057 0.0000
vt 0.0100 0.6726 0.0000
vt 0.9892 0.0103 0.0000
vt 0.9892 0.5027 0.0000
vt 0.9679 0.4814 0.0000
vt 0.9680 0.0103 0.0000
vt 0.7613 0.5027 0.0000
vt 0.7826 0.4814 0.0000
vt 0.7613 0.0103 0.0000
vt 0.7825 0.0103 0.0000
vt 0.0100 0.5293 0.0000
vt 0.9532 0.4814 0.0000
vt 0.9532 0.0103 0.0000
vt 0.7826 0.4667 0.0000
vt 0.9679 0.4667 0.0000
vt 0.7973 0.0103 0.0000
vt 0.7973 0.4814 0.0000
# 34 texture coords

o Computer
g Computer
s off
f 55/103/95 56/104/95 57/105/95 
f 55/103/95 57/105/95 58/106/95 
f 55/103/95 58/106/95 59/107/95 
f 55/103/95 59/107/95 60/108/95 
f 61/109/96 62/110/96 63/111/96 
f 63/111/96 64/112/96 61/109/96 
f 57/113/97 56/104/97 62/110/97 
f 62/110/97 61/114/97 57/113/97 
f 56/104/98 55/103/98 63/111/98 
f 63/111/98 62/110/98 56/104/98 
f 55/103/99 60/115/99 64/116/99 
f 64/116/99 63/111/99 55/103/99 
f 59/117/100 58/118/100 65/119/100 
f 65/119/100 66/120/100 59/117/100 
f 58/106/101 57/105/101 67/121/101 
f 57/122/102 61/123/102 68/124/102 
f 68/124/102 67/125/102 57/122/102 
f 61/123/103 64/126/103 69/127/103 
f 69/127/103 68/124/103 61/123/103 
f 64/126/100 60/128/100 70/129/100 
f 70/129/100 69/127/100 64/126/100 
f 70/130/104 60/108/104 59/107/104 
f 67/125/105 68/124/105 65/131/105 
f 65/131/105 58/132/105 67/125/105 
f 68/124/106 69/127/106 66/133/106 
f 66/133/106 65/134/106 68/124/106 
f 69/127/107 70/129/107 59/135/107 
f 59/135/107 66/136/107 69/127/107 
# 28 faces

#
# object Keyboard
#

v  -18.1053 -2.6491 0.0000
v  -18.1053 27.3509 0.0000
v  -8.1053 27.3509 0.0000
v  -8.1053 -2.6491 0.0000
v  -17.3601 -1.3590 1.1000
v  -8.8505 -1.3590 1.1000
v  -8.8505 26.0609 1.1000
v  -17.3601 26.0609 1.1000
v  -8.1053 -2.6491 0.9000
v  -18.1053 -2.6491 0.9000
v  -8.1053 27.3509 0.9000
v  -18.1053 27.3509 0.9000
# 12 vertices

vn 0.0000 0.0000 -1.0000
vn 0.0000 0.0000 1.0000
vn 0.0000 -1.0000 0.0000
vn 1.0000 0.0000 0.0000
vn 0.0000 1.0000 0.0000
vn -1.0000 0.0000 0.0000
vn 0.0000 -0.3714 0.9285
vn 0.3714 0.0000 0.9285
vn 0.0000 0.3714 0.9285
vn -0.3714 0.0000 0.9285
# 10 vertex normals

vt 0.0052 0.1028 0.0000
vt 0.9934 0.1028 0.0000
vt 0.9934 0.4322 0.0000
vt 0.0052 0.4322 0.0000
vt 0.9479 0.5864 0.0000
vt 0.9479 0.8631 0.0000
vt 0.0526 0.8631 0.0000
vt 0.0526 0.5864 0.0000
vt 0.9996 0.5525 0.0000
vt 0.9996 0.8970 0.0000
vt 0.9874 0.8848 0.0000
vt 0.9874 0.5646 0.0000
vt 0.0009 0.8970 0.0000
vt 0.0131 0.8848 0.0000
vt 0.0009 0.5525 0.0000
vt 0.0131 0.5646 0.0000
# 16 texture coords

o Keyboard
g Keyboard
s off
f 71/137/108 72/138/108 73/139/108 
f 73/139/108 74/140/108 71/137/108 
f 75/141/109 76/142/109 77/143/109 
f 77/143/109 78/144/109 75/141/109 
f 71/145/110 74/146/110 79/147/110 
f 79/147/110 80/148/110 71/145/110 
f 74/146/111 73/149/111 81/150/111 
f 81/150/111 79/147/111 74/146/111 
f 73/149/112 72/151/112 82/152/112 
f 82/152/112 81/150/112 73/149/112 
f 72/151/113 71/145/113 80/148/113 
f 80/148/113 82/152/113 72/151/113 
f 80/148/114 79/147/114 76/142/114 
f 76/142/114 75/141/114 80/148/114 
f 79/147/115 81/150/115 77/143/115 
f 77/143/115 76/142/115 79/147/115 
f 81/150/116 82/152/116 78/144/116 
f 78/144/116 77/143/116 81/150/116 
f 82/152/117 80/148/117 75/141/117 
f 75/141/117 78/144/117 82/152/117 
# 20 faces

#
# object Mouse
#

v  -11.7372 -13.1839 1.5812
v  -11.7857 -11.4514 1.5965
v  -16.0338 -11.4657 1.1906
v  -15.6737 -13.1348 1.1324
v  -9.6424 -9.7434 0.9361
v  -11.8282 -9.8177 1.5812
v  -8.9839 -11.4806 1.2079
v  -9.4530 -13.2041 0.9361
v  -15.6737 -9.7998 1.1324
v  -8.5474 -11.4538 0.0081
v  -9.4077 -9.4389 0.0081
v  -11.8088 -9.3854 0.0455
v  -9.2106 -13.4948 0.0081
v  -16.1147 -9.4414 0.1008
v  -11.7388 -13.5514 0.0418
v  -16.1147 -13.4372 0.1008
v  -16.5677 -11.4804 0.1008
# 17 vertices

vn 0.0315 -0.0567 0.9979
vn 0.0303 0.0000 0.9995
vn -0.1152 0.0000 0.9933
vn -0.1152 -0.0221 0.9931
vn 0.1750 0.0896 0.9805
vn 0.0315 0.0567 0.9979
vn 0.1757 0.0000 0.9844
vn 0.1750 -0.0896 0.9805
vn -0.1152 0.0221 0.9931
vn 1.0000 0.0000 0.0020
vn 0.8659 0.3745 0.3315
vn -0.0125 0.0002 -0.9999
vn -0.0128 -0.0000 -0.9999
vn -0.8314 0.0000 0.5556
vn -0.8777 -0.2038 0.4338
vn 0.0042 0.9446 0.3282
vn -0.0188 0.9547 0.2971
vn 0.0042 -0.9446 0.3282
vn 0.0442 -0.9642 0.2615
vn -0.8777 0.1995 0.4357
vn -0.0310 -0.9659 0.2570
vn 0.0388 0.9562 0.2900
vn 0.8995 -0.2939 0.3234
# 23 vertex normals

vt 0.9873 0.6962 0.0000
vt 0.8017 0.6917 0.0000
vt 0.8025 0.2334 0.0000
vt 0.9819 0.2710 0.0000
vt 0.6154 0.9306 0.0000
vt 0.6268 0.6870 0.0000
vt 0.8053 0.9949 0.0000
vt 0.9929 0.9501 0.0000
vt 0.6236 0.2716 0.0000
vt 0.4110 0.1118 0.0000
vt 0.2358 0.1393 0.0000
vt 0.2385 0.0182 0.0000
vt 0.4417 0.0182 0.0000
vt 0.4717 0.7280 0.0000
vt 0.4688 0.9193 0.0000
vt 0.3075 0.9883 0.0000
vt 0.1439 0.9349 0.0000
vt 0.4684 0.3846 0.0000
vt 0.1413 0.7336 0.0000
vt 0.1487 0.3848 0.0000
vt 0.3053 0.3482 0.0000
vt 0.4130 0.2602 0.0000
vt 0.2426 0.2661 0.0000
vt 0.2441 0.1549 0.0000
vt 0.4439 0.1549 0.0000
vt 0.5566 0.4180 0.0000
vt 0.5985 0.7250 0.0000
vt 0.0656 0.9152 0.0000
vt 0.0157 0.7312 0.0000
vt 0.0726 0.2602 0.0000
vt 0.0360 0.1549 0.0000
vt 0.0612 0.4170 0.0000
vt 0.5473 0.9005 0.0000
vt 0.0620 0.1118 0.0000
vt 0.0326 0.0182 0.0000
# 35 texture coords

o Mouse
g Mouse
s off
f 83/153/118 84/154/119 85/155/120 
f 85/155/120 86/156/121 83/153/118 
f 87/157/122 88/158/123 84/154/119 
f 84/154/119 89/159/124 87/157/122 
f 90/160/125 89/159/124 84/154/119 
f 84/154/119 83/153/118 90/160/125 
f 91/161/126 85/155/120 84/154/119 
f 84/154/119 88/158/123 91/161/126 
f 87/162/127 89/163/127 92/164/128 
f 92/164/128 93/165/127 87/162/127 
f 94/166/129 93/167/130 92/168/129 
f 94/166/129 92/168/129 95/169/130 
f 96/170/130 94/166/129 95/169/130 
f 97/171/129 98/172/130 99/173/129 
f 95/169/130 97/171/129 99/173/129 
f 96/170/130 95/169/130 99/173/129 
f 86/174/131 85/175/131 99/176/132 
f 99/176/132 98/177/131 86/174/131 
f 91/178/133 88/179/133 94/166/134 
f 94/166/134 96/170/133 91/178/133 
f 90/180/135 83/181/135 97/171/136 
f 97/171/136 95/169/135 90/180/135 
f 91/182/131 96/183/131 99/176/137 
f 99/176/137 85/175/131 91/182/131 
f 86/184/135 98/172/135 97/171/138 
f 97/171/138 83/181/135 86/184/135 
f 87/185/133 93/167/133 94/166/139 
f 94/166/139 88/179/133 87/185/133 
f 90/186/127 95/187/127 92/164/140 
f 92/164/140 89/163/127 90/186/127 
# 30 faces

