# Blender v3.0.1 OBJ File: ''
# www.blender.org
mtllib CRTblack.mtl
v -0.312500 1.687500 2.125000
v -0.312500 1.687500 -2.250000
v -1.500000 0.812500 -2.250000
v -1.500000 0.812500 2.125000
v -0.312500 -1.312500 -2.250000
v 1.000000 1.687500 -2.250000
v 1.000000 -1.312500 -2.250000
v 1.000000 -1.312500 2.125000
v 1.000000 1.687500 2.125000
v -0.312500 -1.312500 2.125000
v 1.000000 1.312500 -1.625000
v 1.000000 -0.875000 -1.625000
v 1.000000 -0.875000 1.437500
v 1.000000 1.312500 1.437500
v 0.875000 1.187500 -1.375000
v 0.875000 -0.750000 -1.375000
v 0.875000 -0.750000 1.187500
v 0.875000 1.187500 1.187500
v -1.687500 0.812500 -2.250000
v -1.687500 0.812500 2.125000
v -1.500000 -1.312500 2.125000
v -1.500000 -1.312500 -2.250000
v -1.687500 -1.312500 2.125000
v -1.687500 -1.312500 -2.250000
vt 0.000000 0.421875
vt 0.500000 0.421875
vt 0.500000 0.593750
vt 0.000000 0.593750
vt 0.781250 0.500000
vt 0.781250 1.000000
vt 1.000000 1.000000
vt 1.000000 0.500000
vt 1.000000 0.500000
vt 1.000000 1.000000
vt 0.781250 1.000000
vt 0.781250 0.500000
vt 1.000000 0.257812
vt 1.000000 0.406250
vt 0.500000 0.406250
vt 0.500000 0.257812
vt 0.500000 0.273438
vt 0.000000 0.273438
vt 0.429688 0.960938
vt 0.429688 0.703125
vt 0.500000 0.656250
vt 0.500000 1.000000
vt 0.078125 0.703125
vt 0.000000 0.656250
vt 0.078125 0.960938
vt 0.000000 1.000000
vt 0.398438 0.937500
vt 0.398438 0.726562
vt 0.109375 0.726562
vt 0.109375 0.937500
vt 0.500000 0.609375
vt 0.000000 0.609375
vt 0.500000 0.125000
vt 1.000000 0.125000
vt 0.585938 0.500000
vt 0.578125 0.851562
vt 0.578125 0.851562
vt 0.585938 0.500000
vt 0.000000 0.242188
vt 0.000000 0.000000
vt 0.500000 0.000000
vt 0.500000 0.242188
vt 0.500000 0.101562
vt 1.000000 0.101562
vt 0.554688 0.500000
vt 0.546875 0.851562
vt 0.546875 0.851562
vt 0.554688 0.500000
vn -0.5932 0.8051 0.0000
vn 0.0000 0.0000 -1.0000
vn 0.0000 -0.0000 1.0000
vn 0.0000 -1.0000 -0.0000
vn 0.0000 1.0000 0.0000
vn 1.0000 0.0000 0.0000
vn 0.8944 -0.0000 0.4472
vn 0.7071 0.7071 0.0000
vn 0.7071 -0.7071 -0.0000
vn 0.8944 0.0000 -0.4472
vn -1.0000 0.0000 0.0000
g CRTtv_CRTtv_Default_OBJ
usemtl Default_OBJ
s off
f 1/1/1 2/2/1 3/3/1 4/4/1
f 5/5/2 2/6/2 6/7/2 7/8/2
f 8/9/3 9/10/3 1/11/3 10/12/3
f 5/13/4 7/14/4 8/15/4 10/16/4
f 6/17/5 2/2/5 1/1/5 9/18/5
f 11/19/6 12/20/6 7/21/6 6/22/6
f 12/20/6 13/23/6 8/24/6 7/21/6
f 14/25/6 11/19/6 6/22/6 9/26/6
f 13/23/6 14/25/6 9/26/6 8/24/6
f 15/27/7 16/28/7 12/20/7 11/19/7
f 16/28/8 17/29/8 13/23/8 12/20/8
f 18/30/9 15/27/9 11/19/9 14/25/9
f 17/29/10 18/30/10 14/25/10 13/23/10
f 4/4/5 3/3/5 19/31/5 20/32/5
f 5/13/4 10/16/4 21/33/4 22/34/4
f 2/6/2 5/5/2 22/35/2 3/36/2
f 10/12/3 1/11/3 4/37/3 21/38/3
f 23/39/11 20/40/11 19/41/11 24/42/11
f 22/34/4 21/33/4 23/43/4 24/44/4
f 3/36/2 22/35/2 24/45/2 19/46/2
f 21/38/3 4/37/3 20/47/3 23/48/3
v 0.975000 0.218743 -0.085402
v 0.875000 -0.750000 1.187500
v 0.875000 -0.750000 -1.375000
v 0.875000 1.187500 -1.375000
v 0.875000 1.187500 1.187500
vt 0.500027 0.502476
vt 0.003906 0.133859
vt 0.996094 0.133859
vt 0.996094 0.871094
vt 0.003906 0.871094
vn 1.0000 -0.0000 0.0004
vn 0.9980 -0.0427 0.0459
vn 0.9981 -0.0423 -0.0456
vn 0.9981 0.0423 -0.0456
vn 0.9980 0.0427 0.0459
g CRTtv.001_CRTtv.001_(null)
usemtl (null)
s 1
f 25/49/12 26/50/13 27/51/14
f 28/52/15 25/49/12 27/51/14
f 29/53/16 25/49/12 28/52/15
f 29/53/16 26/50/13 25/49/12
