# Blender v3.0.1 OBJ File: ''
# www.blender.org
mtllib CRTtv.mtl
v -0.300000 1.533765 1.533765
v -0.300000 1.533765 -1.704569
v -1.500000 0.613506 -1.704569
v -1.500000 0.613506 1.533765
v -0.300000 -1.533765 -1.704569
v 1.000000 1.533765 -1.704569
v 1.000000 -1.533765 -1.704569
v 1.000000 -1.533765 1.533765
v 1.000000 1.533765 1.533765
v -0.300000 -1.533765 1.533765
v 1.000000 1.341203 -1.620999
v 1.000000 -0.840057 -1.620999
v 1.000000 -0.840057 1.455136
v 1.000000 1.341203 1.455136
v 0.900000 1.217833 -1.389160
v 0.900000 -0.719653 -1.389160
v 0.900000 -0.719653 1.218355
v 0.900000 1.217833 1.218355
v -1.700000 0.613506 -1.704569
v -1.700000 0.613506 1.533765
v -1.500000 -1.533765 1.533765
v -1.500000 -1.533765 -1.704569
v -1.700000 -1.533765 1.533765
v -1.700000 -1.533765 -1.704569
vt 0.664330 0.826397
vt 0.998639 0.826397
vt 1.000000 0.982023
vt 0.665691 0.982023
vt 0.826578 0.000000
vt 0.826578 0.382738
vt 0.671975 0.382738
vt 0.671975 0.000000
vt 0.671975 0.000000
vt 0.671975 0.382738
vt 0.826578 0.382738
vt 0.826578 0.000000
vt 0.667770 0.527889
vt 0.667770 0.392766
vt 0.997070 0.392766
vt 0.997070 0.527889
vt 1.000000 0.672100
vt 0.664330 0.672100
vt 0.633355 0.953201
vt 0.633518 0.517498
vt 0.655670 0.368015
vt 0.655095 0.992188
vt 0.023322 0.515431
vt 0.000977 0.368001
vt 0.023718 0.952882
vt 0.000354 0.992188
vt 0.590601 0.928828
vt 0.588926 0.542205
vt 0.069176 0.544222
vt 0.068400 0.930540
vt 1.000000 0.996216
vt 0.665691 0.996216
vt 0.997070 0.649916
vt 0.667770 0.649916
vt 0.971908 0.000000
vt 0.971909 0.269967
vt 0.971908 0.269967
vt 0.971908 0.000000
vt 0.531060 0.000000
vt 0.531060 0.351323
vt 0.000000 0.351323
vt 0.000000 0.000000
vt 0.997070 0.670254
vt 0.667770 0.670254
vt 1.000000 0.000000
vt 1.000000 0.269967
vt 1.000000 0.269967
vt 1.000000 0.000000
vn -0.6085 0.7935 0.0000
vn 0.0000 0.0000 -1.0000
vn 0.0000 -0.0000 1.0000
vn 0.0000 -1.0000 -0.0000
vn 0.0000 1.0000 0.0000
vn 1.0000 0.0000 0.0000
vn 0.9182 -0.0000 0.3961
vn 0.7693 0.6389 0.0000
vn 0.7768 -0.6297 -0.0000
vn 0.9212 0.0000 -0.3891
vn -1.0000 -0.0000 0.0000
g CRTtv_CRTtv_Default_OBJ
usemtl Default_OBJ
s off
f 1/1/1 2/2/1 3/3/1 4/4/1
f 5/5/2 2/6/2 6/7/2 7/8/2
f 8/9/3 9/10/3 1/11/3 10/12/3
f 5/13/4 7/14/4 8/15/4 10/16/4
f 6/17/5 2/2/5 1/1/5 9/18/5
f 11/19/6 12/20/6 7/21/6 6/22/6
f 12/20/6 13/23/6 8/24/6 7/21/6
f 14/25/6 11/19/6 6/22/6 9/26/6
f 13/23/6 14/25/6 9/26/6 8/24/6
f 15/27/7 16/28/7 12/20/7 11/19/7
f 16/28/8 17/29/8 13/23/8 12/20/8
f 18/30/9 15/27/9 11/19/9 14/25/9
f 17/29/10 18/30/10 14/25/10 13/23/10
f 4/4/5 3/3/5 19/31/5 20/32/5
f 5/13/4 10/16/4 21/33/4 22/34/4
f 2/6/2 5/5/2 22/35/2 3/36/2
f 10/12/3 1/11/3 4/37/3 21/38/3
f 23/39/11 20/40/11 19/41/11 24/42/11
f 22/34/4 21/33/4 23/43/4 24/44/4
f 3/36/2 22/35/2 24/45/2 19/46/2
f 21/38/3 4/37/3 20/47/3 23/48/3
v 1.000000 0.249090 -0.085402
v 0.900000 -0.719653 1.218355
v 0.900000 -0.719653 -1.389160
v 0.900000 1.217833 -1.389160
v 0.900000 1.217833 1.218355
vt 0.500027 0.502476
vt 0.003906 0.133859
vt 0.996094 0.133859
vt 0.996094 0.871094
vt 0.003906 0.871094
vn 1.0000 -0.0000 0.0000
vn 0.9981 -0.0419 0.0454
vn 0.9981 -0.0419 -0.0454
vn 0.9981 0.0419 -0.0454
vn 0.9981 0.0419 0.0454
g Screen_CRTtv.001
usemtl (null)
s 1
f 25/49/12 26/50/13 27/51/14
f 28/52/15 25/49/12 27/51/14
f 29/53/16 25/49/12 28/52/15
f 29/53/16 26/50/13 25/49/12
