# 3ds Max Wavefront OBJ Exporter v0.99 - (c)2007 guruware
# File Created: 24.09.2021 14:39:42

#
# object LampPost
#

v  4.0475 6.1581 1.8542
v  1.5475 10.4882 1.8542
v  1.5475 10.4882 200.0000
v  4.0475 6.1581 200.0000
v  -3.4525 10.4882 1.8542
v  -3.4525 10.4882 200.0000
v  -5.9525 6.1581 1.8542
v  -5.9525 6.1581 200.0000
v  -3.4525 1.8280 1.8542
v  -3.4525 1.8280 200.0000
v  1.5475 1.8280 1.8542
v  1.5475 1.8280 200.0000
v  1.4080 8.3232 200.0000
v  3.5268 6.1581 200.0000
v  -2.8296 8.3232 200.0000
v  -4.9484 6.1581 200.0000
v  -2.8296 3.9930 200.0000
v  1.4080 3.9930 200.0000
v  -9.5213 8.3232 218.0441
v  -8.1077 6.1581 219.0169
v  -12.3604 8.3232 216.0953
v  -13.7870 6.1581 215.1190
v  -12.3604 3.9930 216.0953
v  -9.5213 3.9930 218.0441
v  -31.8193 8.3232 231.9745
v  -63.7929 8.3232 241.7672
v  -63.7929 6.1581 243.0172
v  -30.4661 6.1581 232.9218
v  -34.5242 8.3232 230.0817
v  -63.7929 8.3232 239.2672
v  -35.8758 6.1581 229.1362
v  -63.7929 6.1581 238.0172
v  -34.5242 3.9930 230.0817
v  -63.7929 3.9930 239.2672
v  -31.8193 3.9930 231.9745
v  -63.7929 3.9930 241.7672
v  -20.6703 8.3232 225.0093
v  -19.2869 6.1581 225.9693
v  -23.4423 8.3232 223.0885
v  -24.8314 6.1581 222.1277
v  -23.4423 3.9930 223.0885
v  -20.6703 3.9930 225.0093
v  -67.5965 12.3232 244.0766
v  -67.5965 6.1581 245.0551
v  -67.5965 12.3232 236.9578
v  -67.5965 6.1581 235.9704
v  -67.5965 -0.0070 236.9578
v  -67.5965 -0.0070 244.0766
v  -71.4028 12.3232 244.0766
v  -71.4028 6.1581 245.0551
v  -71.4028 12.3232 236.9578
v  -71.4028 6.1581 235.9704
v  -71.4028 -0.0070 236.9578
v  -71.4028 -0.0070 244.0766
v  -99.0394 12.3232 244.0766
v  -99.0394 6.1581 245.0551
v  -99.0394 12.3232 236.9578
v  -97.9050 0.9805 239.7996
v  -97.9050 11.3357 239.7996
v  -72.5372 11.3357 239.7997
v  -72.5372 0.9805 239.7996
v  -99.0394 -0.0070 244.0766
v  -99.0394 -0.0070 236.9578
v  -99.0394 6.1581 236.9781
v  -97.9050 11.3357 236.7996
v  -97.9050 6.1581 236.9781
v  -72.5372 11.3357 236.7997
v  -72.5372 6.1581 235.9704
v  -72.5372 0.9805 236.7996
v  -97.9050 0.9805 236.7996
v  -102.0873 6.1581 244.8761
v  -102.0873 6.1581 236.8587
v  9.3230 17.3310 1.8542
v  9.3230 -5.0148 1.8542
v  -10.8404 -5.0148 1.8542
v  -10.8404 17.3310 1.8542
# 76 vertices

vn 0.8660 0.5000 0.0000
vn -0.0000 1.0000 0.0000
vn -0.8660 0.5000 0.0000
vn -0.8660 -0.5000 0.0000
vn 0.0000 -1.0000 0.0000
vn 0.8660 -0.5000 0.0000
vn 0.0000 0.0000 1.0000
vn 0.6573 0.6397 0.3985
vn 0.6559 0.6419 0.3973
vn 0.5501 0.6145 0.5654
vn 0.5676 0.6156 0.5467
vn -0.0000 1.0000 -0.0000
vn -0.6611 0.6427 -0.3871
vn -0.6595 0.6454 -0.3855
vn -0.5544 0.6182 -0.5572
vn -0.5714 0.6188 -0.5391
vn -0.6611 -0.6427 -0.3871
vn -0.5706 -0.6192 -0.5394
vn -0.5540 -0.6176 -0.5582
vn -0.6595 -0.6454 -0.3855
vn -0.0000 -1.0000 0.0000
vn -0.0000 -1.0000 -0.0000
vn 0.6573 -0.6397 0.3985
vn 0.5670 -0.6159 0.5469
vn 0.5498 -0.6141 0.5663
vn 0.6559 -0.6419 0.3973
vn 0.3253 0.5420 0.7749
vn 0.2564 0.4833 0.8371
vn 0.2560 0.4849 0.8362
vn 0.3619 0.5542 0.7496
vn -0.3685 0.5546 -0.7461
vn -0.3334 0.5448 -0.7694
vn -0.2621 0.4842 -0.8347
vn -0.2623 0.4825 -0.8357
vn -0.3692 -0.5555 -0.7451
vn -0.2623 -0.4825 -0.8357
vn -0.2621 -0.4842 -0.8347
vn -0.3342 -0.5445 -0.7693
vn 0.3634 -0.5544 0.7487
vn 0.2538 -0.4836 0.8377
vn 0.2536 -0.4850 0.8369
vn 0.3271 -0.5429 0.7735
vn 0.4305 0.5817 0.6902
vn 0.4304 0.5808 0.6910
vn -0.4344 0.5838 -0.6859
vn -0.4343 0.5827 -0.6869
vn -0.4342 -0.5838 -0.6860
vn -0.4345 -0.5827 -0.6867
vn 0.0000 -1.0000 -0.0000
vn 0.4303 -0.5817 0.6903
vn 0.4306 -0.5808 0.6908
vn 0.7247 0.3445 0.5968
vn 0.4677 0.1385 0.8730
vn 0.7247 0.6891 -0.0000
vn 0.4224 0.4532 -0.7850
vn 0.6080 0.1256 -0.7839
vn 0.7247 -0.3445 -0.5968
vn 0.4692 -0.1397 -0.8720
vn 0.7247 -0.6891 -0.0000
vn 0.4209 -0.4536 0.7856
vn 0.6073 -0.1245 0.7846
vn -0.0000 0.1567 0.9876
vn -0.0000 0.1568 0.9876
vn 0.0000 1.0000 -0.0000
vn 0.0000 0.1581 -0.9874
vn 0.0000 -0.1581 -0.9874
vn -0.0000 -0.1567 0.9876
vn 0.0000 -0.1568 0.9876
vn 0.0000 0.1568 0.9876
vn 0.0000 0.0000 -1.0000
vn -0.0000 -0.1568 0.9876
vn 0.0000 -0.1567 0.9876
vn -0.1409 -0.0033 -0.9900
vn -0.0000 -0.0344 -0.9994
vn -0.0000 -0.1581 -0.9874
vn 0.0000 0.0033 -1.0000
vn -0.1669 0.0340 -0.9854
vn 1.0000 0.0000 0.0000
vn -1.0000 0.0000 0.0000
vn 0.0000 1.0000 0.0000
vn -0.0579 0.1565 0.9860
vn -0.8964 0.4432 -0.0000
vn 0.0391 -0.0033 -0.9992
vn 0.0391 0.0033 -0.9992
vn -0.8964 -0.4432 0.0000
vn -0.0579 -0.1565 0.9860
# 86 vertex normals

vt 0.9783 0.0841 0.0000
vt 0.9783 0.1083 0.0000
vt 0.0200 0.1083 0.0000
vt 0.0200 0.0841 0.0000
vt 0.9783 0.1325 0.0000
vt 0.0200 0.1325 0.0000
vt 0.9783 0.1567 0.0000
vt 0.0200 0.1567 0.0000
vt 0.9783 0.0116 0.0000
vt 0.9783 0.0357 0.0000
vt 0.0200 0.0357 0.0000
vt 0.0200 0.0116 0.0000
vt 0.9783 0.0599 0.0000
vt 0.0200 0.0599 0.0000
vt 0.1792 0.5509 0.0000
vt 0.1357 0.5760 0.0000
vt 0.1454 0.5565 0.0000
vt 0.1747 0.5483 0.0000
vt 0.0922 0.5509 0.0000
vt 0.1085 0.5352 0.0000
vt 0.0922 0.5006 0.0000
vt 0.1009 0.5057 0.0000
vt 0.1357 0.4755 0.0000
vt 0.1302 0.4975 0.0000
vt 0.1792 0.5006 0.0000
vt 0.1671 0.5188 0.0000
vt 0.7629 0.3445 0.0000
vt 0.7475 0.3708 0.0000
vt 0.5381 0.3374 0.0000
vt 0.5415 0.3098 0.0000
vt 0.7579 0.2969 0.0000
vt 0.7284 0.3275 0.0000
vt 0.5454 0.2840 0.0000
vt 0.5511 0.2499 0.0000
vt 0.7616 0.3823 0.0000
vt 0.7454 0.4081 0.0000
vt 0.5729 0.3726 0.0000
vt 0.5773 0.3451 0.0000
vt 0.0076 0.5036 0.0000
vt 0.1774 0.4228 0.0000
vt 0.1883 0.4484 0.0000
vt 0.0296 0.5246 0.0000
vt 0.0040 0.2820 0.0000
vt 0.1933 0.1864 0.0000
vt 0.2072 0.2182 0.0000
vt 0.0402 0.3046 0.0000
vt 0.0005 0.3441 0.0000
vt 0.2038 0.2497 0.0000
vt 0.2147 0.2753 0.0000
vt 0.0225 0.3651 0.0000
vt 0.0440 0.5349 0.0000
vt 0.0440 0.8564 0.0000
vt 0.0223 0.8564 0.0000
vt 0.0223 0.5213 0.0000
vt 0.2946 0.3139 0.0000
vt 0.2894 0.3466 0.0000
vt 0.0186 0.4942 0.0000
vt 0.0005 0.4767 0.0000
vt 0.0899 0.8120 0.0000
vt 0.0681 0.7985 0.0000
vt 0.0681 0.5178 0.0000
vt 0.0899 0.5178 0.0000
vt 0.0463 0.8120 0.0000
vt 0.0463 0.5178 0.0000
vt 0.4577 0.1865 0.0000
vt 0.7825 0.2733 0.0000
vt 0.7692 0.2946 0.0000
vt 0.4707 0.2170 0.0000
vt 0.0005 0.8564 0.0000
vt 0.0005 0.5349 0.0000
vt 0.4156 0.3559 0.0000
vt 0.4189 0.3285 0.0000
vt 0.4174 0.3153 0.0000
vt 0.4229 0.2819 0.0000
vt 0.4506 0.3864 0.0000
vt 0.4549 0.3591 0.0000
vt 0.2995 0.4068 0.0000
vt 0.3103 0.4322 0.0000
vt 0.3255 0.1864 0.0000
vt 0.3389 0.2176 0.0000
vt 0.3268 0.2339 0.0000
vt 0.3375 0.2593 0.0000
vt 0.2931 0.3745 0.0000
vt 0.2963 0.3473 0.0000
vt 0.3283 0.4002 0.0000
vt 0.3325 0.3732 0.0000
vt 0.4217 0.3909 0.0000
vt 0.4323 0.4161 0.0000
vt 0.4498 0.2182 0.0000
vt 0.4604 0.2434 0.0000
vt 0.9565 0.6084 0.0000
vt 0.9648 0.6762 0.0000
vt 0.9022 0.6861 0.0000
vt 0.9034 0.6085 0.0000
vt 0.9654 0.7441 0.0000
vt 0.8987 0.7722 0.0000
vt 0.4676 0.9375 0.0000
vt 0.4752 0.9056 0.0000
vt 0.5289 0.9058 0.0000
vt 0.5287 0.9864 0.0000
vt 0.4677 0.8737 0.0000
vt 0.5289 0.8252 0.0000
vt 0.9699 0.4716 0.0000
vt 0.9671 0.5403 0.0000
vt 0.9038 0.5309 0.0000
vt 0.9019 0.4431 0.0000
vt 0.8549 0.6866 0.0000
vt 0.8566 0.6086 0.0000
vt 0.8527 0.7724 0.0000
vt 0.5733 0.9059 0.0000
vt 0.5821 0.9890 0.0000
vt 0.5818 0.8229 0.0000
vt 0.8560 0.5305 0.0000
vt 0.8549 0.4431 0.0000
vt 0.5143 0.6874 0.0000
vt 0.5105 0.6092 0.0000
vt 0.5184 0.7735 0.0000
vt 0.9215 0.8422 0.0000
vt 0.9206 0.9634 0.0000
vt 0.6076 0.9638 0.0000
vt 0.6066 0.8429 0.0000
vt 0.5122 0.5310 0.0000
vt 0.5141 0.4432 0.0000
vt 0.9502 0.9057 0.0000
vt 0.9407 0.9879 0.0000
vt 0.9261 0.9811 0.0000
vt 0.9402 0.9041 0.0000
vt 0.5982 0.9817 0.0000
vt 0.5799 0.9048 0.0000
vt 0.5935 0.8312 0.0000
vt 0.9444 0.8232 0.0000
vt 0.9338 0.8305 0.0000
vt 0.6791 0.8751 0.0000
vt 0.6892 0.8573 0.0000
vt 0.7018 0.8619 0.0000
vt 0.8231 0.9617 0.0000
vt 0.7997 0.9565 0.0000
vt 0.8294 0.9515 0.0000
vt 0.4723 0.6093 0.0000
vt 0.3398 0.5121 0.0000
vt 0.4472 0.5121 0.0000
vt 0.4487 0.6051 0.0000
vt 0.3278 0.6051 0.0000
vt 0.9879 0.9066 0.0000
vt 0.4472 0.6981 0.0000
vt 0.3398 0.6981 0.0000
vt 0.9931 0.1503 0.0000
vt 0.9777 0.1730 0.0000
vt 0.9854 0.0811 0.0000
vt 0.9872 0.0389 0.0000
vt 0.9854 0.0475 0.0000
vt 0.9404 0.0418 0.0000
vt 0.8751 0.0397 0.0000
vt 0.8775 0.1441 0.0000
vt 0.8714 0.1579 0.0000
vt 0.9120 0.1520 0.0000
# 156 texture coords

o LampPost
g LampPost
s 1
f 1/1/1 2/2/1 3/3/1 
f 3/3/1 4/4/1 1/1/1 
s 2
f 2/2/2 5/5/2 6/6/2 
f 6/6/2 3/3/2 2/2/2 
s 1
f 5/5/3 7/7/3 8/8/3 
f 8/8/3 6/6/3 5/5/3 
s 2
f 7/9/4 9/10/4 10/11/4 
f 10/11/4 8/12/4 7/9/4 
s 1
f 9/10/5 11/13/5 12/14/5 
f 12/14/5 10/11/5 9/10/5 
s 2
f 11/13/6 1/1/6 4/4/6 
f 4/4/6 12/14/6 11/13/6 
s 4
f 4/15/7 3/16/7 13/17/7 
f 13/17/7 14/18/7 4/15/7 
f 3/16/7 6/19/7 15/20/7 
f 15/20/7 13/17/7 3/16/7 
f 6/19/7 8/21/7 16/22/7 
f 16/22/7 15/20/7 6/19/7 
f 8/21/7 10/23/7 17/24/7 
f 17/24/7 16/22/7 8/21/7 
f 10/23/7 12/25/7 18/26/7 
f 18/26/7 17/24/7 10/23/7 
f 12/25/7 4/15/7 14/18/7 
f 14/18/7 18/26/7 12/25/7 
s 2
f 14/27/8 13/28/9 19/29/10 
f 19/29/10 20/30/11 14/27/8 
s 8
f 13/31/12 15/32/12 21/33/2 
f 21/33/2 19/34/2 13/31/12 
s 2
f 15/35/13 16/36/14 22/37/15 
f 22/37/15 21/38/16 15/35/13 
s 8
f 17/39/17 23/40/18 22/41/19 
f 22/41/19 16/42/20 17/39/17 
s 2
f 18/43/21 24/44/22 23/45/22 
f 23/45/22 17/46/5 18/43/21 
s 8
f 14/47/23 20/48/24 24/49/25 
f 24/49/25 18/50/26 14/47/23 
s 2
f 25/51/27 26/52/28 27/53/29 
f 27/53/29 28/54/30 25/51/27 
s 8
f 25/55/12 29/56/12 30/57/12 
f 30/57/12 26/58/12 25/55/12 
s 2
f 29/59/31 31/60/32 32/61/33 
f 32/61/33 30/62/34 29/59/31 
s 8
f 33/63/35 34/64/36 32/61/37 
f 32/61/37 31/60/38 33/63/35 
s 2
f 35/65/21 36/66/5 34/67/5 
f 34/67/5 33/68/21 35/65/21 
s 8
f 28/54/39 27/53/40 36/69/41 
f 36/69/41 35/70/42 28/54/39 
s 2
f 20/30/11 19/29/10 37/71/43 
f 37/71/43 38/72/44 20/30/11 
s 8
f 19/34/2 21/33/2 39/73/12 
f 39/73/12 37/74/12 19/34/2 
s 2
f 21/38/16 22/37/15 40/75/45 
f 40/75/45 39/76/46 21/38/16 
s 8
f 22/41/19 23/40/18 41/77/47 
f 41/77/47 40/78/48 22/41/19 
s 2
f 23/45/22 24/44/22 42/79/49 
f 42/79/49 41/80/49 23/45/22 
s 8
f 24/49/25 20/48/24 38/81/50 
f 38/81/50 42/82/51 24/49/25 
s 2
f 25/83/27 28/84/30 38/72/44 
f 38/72/44 37/71/43 25/83/27 
s 8
f 29/56/12 25/55/12 37/74/12 
f 37/74/12 39/73/12 29/56/12 
s 2
f 31/85/32 29/86/31 39/76/46 
f 39/76/46 40/75/45 31/85/32 
s 8
f 33/87/35 31/88/38 40/78/48 
f 40/78/48 41/77/47 33/87/35 
s 2
f 35/65/21 33/68/21 41/80/49 
f 41/80/49 42/79/49 35/65/21 
s 8
f 28/89/39 35/90/42 42/82/51 
f 42/82/51 38/81/50 28/89/39 
s off
f 27/91/52 26/92/52 43/93/52 
f 43/93/53 44/94/53 27/91/53 
f 26/92/54 30/95/54 45/96/54 
f 45/96/54 43/93/54 26/92/54 
f 30/97/55 32/98/55 46/99/55 
f 46/99/56 45/100/56 30/97/56 
f 32/98/57 34/101/57 47/102/57 
f 47/102/58 46/99/58 32/98/58 
f 34/103/59 36/104/59 48/105/59 
f 48/105/59 47/106/59 34/103/59 
f 36/104/60 27/91/60 44/94/60 
f 44/94/61 48/105/61 36/104/61 
f 43/93/62 49/107/62 50/108/62 
f 50/108/63 44/94/63 43/93/63 
f 45/96/64 51/109/64 49/107/64 
f 49/107/64 43/93/64 45/96/64 
f 46/99/65 52/110/65 51/111/65 
f 51/111/65 45/100/65 46/99/65 
f 47/102/66 53/112/66 52/110/66 
f 52/110/66 46/99/66 47/102/66 
f 48/105/5 54/113/5 53/114/5 
f 53/114/21 47/106/21 48/105/21 
f 44/94/67 50/108/67 54/113/67 
f 54/113/68 48/105/68 44/94/68 
f 55/115/69 56/116/69 50/108/69 
f 50/108/62 49/107/62 55/115/62 
f 57/117/64 55/115/64 49/107/64 
f 49/107/64 51/109/64 57/117/64 
f 58/118/70 59/119/70 60/120/70 
f 60/120/70 61/121/70 58/118/70 
f 62/122/5 63/123/5 53/114/5 
f 53/114/21 54/113/21 62/122/21 
f 56/116/71 62/122/71 54/113/71 
f 54/113/72 50/108/72 56/116/72 
f 64/124/73 57/125/73 65/126/73 
f 65/126/74 66/127/74 64/124/74 
f 57/125/65 51/111/65 67/128/65 
f 67/128/65 65/126/65 57/125/65 
f 51/111/65 52/110/65 68/129/65 
f 68/129/65 67/128/65 51/111/65 
f 52/110/66 53/112/66 69/130/66 
f 69/130/75 68/129/75 52/110/75 
f 53/112/66 63/131/66 70/132/66 
f 70/132/75 69/130/75 53/112/75 
f 63/131/76 64/124/76 66/127/76 
f 66/127/77 70/132/77 63/131/77 
f 66/133/78 65/134/78 59/135/78 
f 65/126/49 67/128/49 60/120/49 
f 60/120/49 59/119/49 65/126/49 
f 67/136/79 68/137/79 60/138/79 
f 68/129/79 69/130/79 61/121/79 
f 61/121/79 60/120/79 68/129/79 
f 69/130/80 70/132/80 58/118/80 
f 58/118/80 61/121/80 69/130/80 
f 70/132/78 66/127/78 59/119/78 
f 59/119/78 58/118/78 70/132/78 
f 56/116/81 55/115/81 71/139/81 
f 55/140/82 57/141/82 72/142/82 
f 72/142/82 71/143/82 55/140/82 
f 57/125/83 64/124/83 72/144/83 
f 64/124/84 63/131/84 72/144/84 
f 63/145/85 62/146/85 71/143/85 
f 71/143/85 72/142/85 63/145/85 
f 62/122/86 56/116/86 71/139/86 
f 73/147/7 2/148/7 1/149/7 
f 1/149/7 74/150/7 73/147/7 
f 1/149/7 11/151/7 74/150/7 
f 11/151/7 9/152/7 75/153/7 
f 75/153/7 74/150/7 11/151/7 
f 9/152/7 7/154/7 75/153/7 
f 7/154/7 5/155/7 76/156/7 
f 76/156/7 75/153/7 7/154/7 
f 5/155/7 2/148/7 73/147/7 
f 73/147/7 76/156/7 5/155/7 
# 146 faces

#
# object Lamp
#

v  -97.9136 0.9687 236.4982
v  -97.9136 11.3063 236.4982
v  -72.5556 11.3063 236.4982
v  -72.5556 0.9687 236.4982
v  -97.9136 0.9687 242.5851
v  -72.5556 0.9687 242.5851
v  -72.5556 11.3063 242.5851
v  -97.9136 11.3063 242.5851
# 8 vertices

vn 0.0000 0.0000 -1.0000
vn 0.0000 0.0000 1.0000
vn 0.0000 -1.0000 0.0000
vn 1.0000 0.0000 0.0000
vn 0.0000 1.0000 0.0000
vn -1.0000 0.0000 0.0000
# 6 vertex normals

vt 0.0005 0.9995 0.0000
vt 0.0005 0.6878 0.0000
vt 0.7652 0.6878 0.0000
vt 0.7652 0.9995 0.0000
vt 0.0005 0.0005 0.0000
vt 0.7652 0.0005 0.0000
vt 0.7652 0.3122 0.0000
vt 0.0005 0.3122 0.0000
vt 0.0005 0.5007 0.0000
vt 0.7652 0.5007 0.0000
vt 0.7652 0.6843 0.0000
vt 0.0005 0.6843 0.0000
vt 0.9508 0.3231 0.0000
vt 0.9508 0.6348 0.0000
vt 0.7672 0.6348 0.0000
vt 0.7672 0.3231 0.0000
vt 0.0005 0.3137 0.0000
vt 0.7652 0.3137 0.0000
vt 0.7652 0.4973 0.0000
vt 0.0005 0.4973 0.0000
vt 0.9508 0.0005 0.0000
vt 0.9508 0.3122 0.0000
vt 0.7672 0.3122 0.0000
vt 0.7672 0.0005 0.0000
# 24 texture coords

o Lamp
g Lamp
s 2
f 77/157/87 78/158/87 79/159/87 
f 79/159/87 80/160/87 77/157/87 
s 4
f 81/161/88 82/162/88 83/163/88 
f 83/163/88 84/164/88 81/161/88 
s 8
f 77/165/89 80/166/89 82/167/89 
f 82/167/89 81/168/89 77/165/89 
s 16
f 80/169/90 79/170/90 83/171/90 
f 83/171/90 82/172/90 80/169/90 
s 32
f 79/173/91 78/174/91 84/175/91 
f 84/175/91 83/176/91 79/173/91 
s 64
f 78/177/92 77/178/92 81/179/92 
f 81/179/92 84/180/92 78/177/92 
# 12 faces

