# 3ds Max Wavefront OBJ Exporter v0.99 - (c)2007 guruware
# File Created: 12.11.2021 15:37:37

#
# object Cylinder001
#

v  -2.5000 -4.3301 0.0000
v  -5.0000 -0.0000 0.0000
v  -2.5000 4.3301 0.0000
v  2.5000 4.3301 0.0000
v  5.0000 0.0000 0.0000
v  2.5000 -4.3301 0.0000
v  2.5000 4.3301 29.3900
v  5.0000 0.0000 29.3900
v  -2.5000 4.3301 29.3900
v  -5.0000 -0.0000 29.3900
v  -2.5000 -4.3301 29.3900
v  2.5000 -4.3301 29.3900
v  2.5000 4.3301 38.3333
v  2.5000 4.3301 62.6667
v  5.0000 0.0000 62.6667
v  5.0000 0.0000 38.3333
v  -2.5000 4.3301 38.3333
v  -2.5000 4.3301 62.6667
v  -5.0000 -0.0000 38.3333
v  -5.0000 -0.0000 62.6667
v  -2.5000 -4.3301 38.3333
v  -2.5000 -4.3301 62.6667
v  2.5000 -4.3301 38.3333
v  2.5000 -4.3301 62.6667
v  2.5000 4.3301 70.6667
v  2.5000 4.3301 117.2504
v  5.0000 0.0000 117.2504
v  5.0000 0.0000 70.6667
v  -2.5000 4.3301 70.6667
v  -2.5000 4.3301 117.2504
v  -5.0000 -0.0000 70.6667
v  -5.0000 -0.0000 117.2504
v  -2.5000 -4.3301 70.6667
v  -2.5000 -4.3301 117.2504
v  2.5000 -4.3301 70.6667
v  2.5000 -4.3301 117.2504
v  6.1547 -0.0000 29.3900
v  3.0773 5.3302 29.3900
v  3.0773 5.3302 38.3333
v  6.1547 -0.0000 38.3333
v  -3.0774 5.3301 29.3900
v  -3.0774 5.3301 38.3333
v  -6.1547 0.0000 29.3900
v  -6.1547 0.0000 38.3333
v  -3.0773 -5.3301 29.3900
v  -3.0773 -5.3301 38.3333
v  3.0773 -5.3301 29.3900
v  3.0773 -5.3301 38.3333
v  6.1547 -0.0000 62.6667
v  3.0773 5.3302 62.6667
v  3.0773 5.3302 70.6667
v  6.1547 -0.0000 70.6667
v  -3.0774 5.3301 62.6667
v  -3.0774 5.3301 70.6667
v  -6.1547 0.0000 62.6667
v  -6.1547 0.0000 70.6667
v  -3.0773 -5.3301 62.6667
v  -3.0773 -5.3301 70.6667
v  3.0773 -5.3301 62.6667
v  3.0773 -5.3301 70.6667
# 60 vertices

vn 0.0000 0.0000 -1.0000
vn 0.8660 0.5000 -0.0000
vn 0.8660 0.5000 0.0000
vn -0.0000 1.0000 -0.0000
vn -0.8660 0.5000 -0.0000
vn -0.8660 0.5000 0.0000
vn -0.8660 -0.5000 0.0000
vn 0.0000 -1.0000 0.0000
vn 0.8660 -0.5000 0.0000
vn -0.0000 1.0000 0.0000
vn 0.0000 0.0000 1.0000
vn -0.8660 -0.5000 -0.0000
vn 0.0000 -1.0000 -0.0000
vn 0.8660 -0.5000 -0.0000
# 14 vertex normals

vt 0.8839 0.8233 0.0000
vt 0.9348 0.8233 0.0000
vt 0.9603 0.8675 0.0000
vt 0.9348 0.9116 0.0000
vt 0.8839 0.9116 0.0000
vt 0.8584 0.8675 0.0000
vt 0.6344 0.0148 0.0000
vt 0.6344 0.4205 0.0000
vt 0.5654 0.4205 0.0000
vt 0.5654 0.0148 0.0000
vt 0.7035 0.0148 0.0000
vt 0.7035 0.4205 0.0000
vt 0.7725 0.0148 0.0000
vt 0.7725 0.4205 0.0000
vt 0.8415 0.0148 0.0000
vt 0.8415 0.4205 0.0000
vt 0.9105 0.0148 0.0000
vt 0.9105 0.4205 0.0000
vt 0.9795 0.0148 0.0000
vt 0.9795 0.4205 0.0000
vt 0.9806 0.4397 0.0000
vt 0.9806 0.8072 0.0000
vt 0.9152 0.8072 0.0000
vt 0.9152 0.4397 0.0000
vt 0.7733 0.4397 0.0000
vt 0.7733 0.8072 0.0000
vt 0.6977 0.8072 0.0000
vt 0.6977 0.4397 0.0000
vt 0.6306 0.8072 0.0000
vt 0.6306 0.4397 0.0000
vt 0.6960 0.4397 0.0000
vt 0.6960 0.8072 0.0000
vt 0.5652 0.8072 0.0000
vt 0.5652 0.4397 0.0000
vt 0.8493 0.4397 0.0000
vt 0.8493 0.8072 0.0000
vt 0.7738 0.8072 0.0000
vt 0.7738 0.4397 0.0000
vt 0.8498 0.8072 0.0000
vt 0.8498 0.4397 0.0000
vt 0.0838 0.0190 0.0000
vt 0.0838 0.5568 0.0000
vt 0.0261 0.5568 0.0000
vt 0.0261 0.0190 0.0000
vt 0.1415 0.0190 0.0000
vt 0.1415 0.5568 0.0000
vt 0.1993 0.0190 0.0000
vt 0.1993 0.5568 0.0000
vt 0.2570 0.0190 0.0000
vt 0.2570 0.5568 0.0000
vt 0.3147 0.0190 0.0000
vt 0.3147 0.5568 0.0000
vt 0.3724 0.0190 0.0000
vt 0.3724 0.5568 0.0000
vt 0.8371 0.8642 0.0000
vt 0.8626 0.9083 0.0000
vt 0.8371 0.9525 0.0000
vt 0.7861 0.9525 0.0000
vt 0.7607 0.9083 0.0000
vt 0.7861 0.8642 0.0000
vt 0.4585 0.8335 0.0000
vt 0.5435 0.8335 0.0000
vt 0.5435 0.9570 0.0000
vt 0.4585 0.9570 0.0000
vt 0.0335 0.8335 0.0000
vt 0.1185 0.8335 0.0000
vt 0.1185 0.9570 0.0000
vt 0.0335 0.9570 0.0000
vt 0.2035 0.8335 0.0000
vt 0.2035 0.9570 0.0000
vt 0.2885 0.8335 0.0000
vt 0.2885 0.9570 0.0000
vt 0.3735 0.8335 0.0000
vt 0.3735 0.9570 0.0000
vt 0.7576 0.9429 0.0000
vt 0.7576 0.8920 0.0000
vt 0.7678 0.8861 0.0000
vt 0.7678 0.9488 0.0000
vt 0.7135 0.8665 0.0000
vt 0.7135 0.8547 0.0000
vt 0.6694 0.8920 0.0000
vt 0.6592 0.8861 0.0000
vt 0.6694 0.9429 0.0000
vt 0.6592 0.9488 0.0000
vt 0.7135 0.9684 0.0000
vt 0.7135 0.9802 0.0000
vt 0.7088 0.9684 0.0000
vt 0.7529 0.9429 0.0000
vt 0.7631 0.9488 0.0000
vt 0.7088 0.9802 0.0000
vt 0.7529 0.8920 0.0000
vt 0.7631 0.8861 0.0000
vt 0.7088 0.8665 0.0000
vt 0.7088 0.8547 0.0000
vt 0.6647 0.8920 0.0000
vt 0.6545 0.8861 0.0000
vt 0.6647 0.9429 0.0000
vt 0.6545 0.9488 0.0000
vt 0.4585 0.7175 0.0000
vt 0.5435 0.7175 0.0000
vt 0.5435 0.8280 0.0000
vt 0.4585 0.8280 0.0000
vt 0.0335 0.7175 0.0000
vt 0.1185 0.7175 0.0000
vt 0.1185 0.8280 0.0000
vt 0.0335 0.8280 0.0000
vt 0.2035 0.7175 0.0000
vt 0.2035 0.8280 0.0000
vt 0.2885 0.7175 0.0000
vt 0.2885 0.8280 0.0000
vt 0.3735 0.7175 0.0000
vt 0.3735 0.8280 0.0000
vt 0.8517 0.8631 0.0000
vt 0.8008 0.8631 0.0000
vt 0.7949 0.8529 0.0000
vt 0.8576 0.8529 0.0000
vt 0.7753 0.9072 0.0000
vt 0.7635 0.9072 0.0000
vt 0.8008 0.9514 0.0000
vt 0.7949 0.9616 0.0000
vt 0.8517 0.9514 0.0000
vt 0.8576 0.9616 0.0000
vt 0.8772 0.9072 0.0000
vt 0.8890 0.9072 0.0000
vt 0.7758 0.9431 0.0000
vt 0.7503 0.8990 0.0000
vt 0.7562 0.8888 0.0000
vt 0.7876 0.9431 0.0000
vt 0.6994 0.8990 0.0000
vt 0.6935 0.8888 0.0000
vt 0.6739 0.9431 0.0000
vt 0.6621 0.9431 0.0000
vt 0.6994 0.9872 0.0000
vt 0.6935 0.9974 0.0000
vt 0.7503 0.9872 0.0000
vt 0.7562 0.9974 0.0000
# 136 texture coords

o Cylinder001
g Cylinder001
s 1
f 1/1/1 2/2/1 3/3/1 
f 3/3/1 4/4/1 5/5/1 
f 1/1/1 3/3/1 5/5/1 
f 6/6/1 1/1/1 5/5/1 
s 2
f 4/7/2 7/8/2 8/9/2 
f 8/9/2 5/10/3 4/7/2 
s 4
f 3/11/4 9/12/4 7/8/4 
f 7/8/4 4/7/4 3/11/4 
s 2
f 2/13/5 10/14/6 9/12/5 
f 9/12/5 3/11/5 2/13/5 
s 4
f 1/15/7 11/16/7 10/14/7 
f 10/14/7 2/13/7 1/15/7 
s 2
f 6/17/8 12/18/8 11/16/8 
f 11/16/8 1/15/8 6/17/8 
s 4
f 5/19/9 8/20/9 12/18/9 
f 12/18/9 6/17/9 5/19/9 
s 1
f 13/21/3 14/22/3 15/23/3 
f 15/23/3 16/24/3 13/21/3 
s 2
f 17/25/10 18/26/10 14/27/10 
f 14/27/10 13/28/10 17/25/10 
s 1
f 19/29/6 20/30/6 18/31/6 
f 18/31/6 17/32/6 19/29/6 
s 2
f 21/33/7 22/34/7 20/30/7 
f 20/30/7 19/29/7 21/33/7 
s 1
f 23/35/8 24/36/8 22/37/8 
f 22/37/8 21/38/8 23/35/8 
s 2
f 16/24/9 15/23/9 24/39/9 
f 24/39/9 23/40/9 16/24/9 
s 1
f 25/41/2 26/42/2 27/43/2 
f 27/43/2 28/44/3 25/41/2 
s 2
f 29/45/10 30/46/10 26/42/10 
f 26/42/10 25/41/10 29/45/10 
s 1
f 31/47/6 32/48/6 30/46/6 
f 30/46/6 29/45/6 31/47/6 
s 2
f 33/49/7 34/50/7 32/48/7 
f 32/48/7 31/47/7 33/49/7 
s 1
f 35/51/8 36/52/8 34/50/8 
f 34/50/8 33/49/8 35/51/8 
s 2
f 28/53/9 27/54/9 36/52/9 
f 36/52/9 35/51/9 28/53/9 
s 4
f 27/55/11 26/56/11 30/57/11 
f 30/57/11 32/58/11 34/59/11 
f 27/55/11 30/57/11 34/59/11 
f 36/60/11 27/55/11 34/59/11 
s 1
f 37/61/2 38/62/2 39/63/2 
f 39/63/2 40/64/2 37/61/2 
s 2
f 38/65/10 41/66/10 42/67/10 
f 42/67/10 39/68/10 38/65/10 
s 1
f 41/66/5 43/69/5 44/70/5 
f 44/70/5 42/67/6 41/66/5 
s 2
f 43/69/12 45/71/7 46/72/12 
f 46/72/12 44/70/12 43/69/12 
s 1
f 45/71/13 47/73/13 48/74/13 
f 48/74/13 46/72/13 45/71/13 
s 2
f 47/73/14 37/61/14 40/64/14 
f 40/64/14 48/74/14 47/73/14 
s 8
f 8/75/1 7/76/1 38/77/1 
f 38/77/1 37/78/1 8/75/1 
f 7/76/1 9/79/1 41/80/1 
f 41/80/1 38/77/1 7/76/1 
f 9/79/1 10/81/1 43/82/1 
f 43/82/1 41/80/1 9/79/1 
f 10/81/1 11/83/1 45/84/1 
f 45/84/1 43/82/1 10/81/1 
f 11/83/1 12/85/1 47/86/1 
f 47/86/1 45/84/1 11/83/1 
f 12/85/1 8/75/1 37/78/1 
f 37/78/1 47/86/1 12/85/1 
s 4
f 13/87/11 16/88/11 40/89/11 
f 40/89/11 39/90/11 13/87/11 
f 16/88/11 23/91/11 48/92/11 
f 48/92/11 40/89/11 16/88/11 
f 23/91/11 21/93/11 46/94/11 
f 46/94/11 48/92/11 23/91/11 
f 21/93/11 19/95/11 44/96/11 
f 44/96/11 46/94/11 21/93/11 
f 19/95/11 17/97/11 42/98/11 
f 42/98/11 44/96/11 19/95/11 
f 17/97/11 13/87/11 39/90/11 
f 39/90/11 42/98/11 17/97/11 
s 1
f 49/99/2 50/100/3 51/101/2 
f 51/101/2 52/102/2 49/99/2 
s 2
f 50/103/10 53/104/10 54/105/10 
f 54/105/10 51/106/10 50/103/10 
s 1
f 53/104/5 55/107/5 56/108/5 
f 56/108/5 54/105/6 53/104/5 
s 2
f 55/107/12 57/109/7 58/110/12 
f 58/110/12 56/108/12 55/107/12 
s 1
f 57/109/8 59/111/8 60/112/8 
f 60/112/8 58/110/8 57/109/8 
s 2
f 59/111/14 49/99/14 52/102/14 
f 52/102/14 60/112/9 59/111/14 
s off
f 15/113/1 14/114/1 50/115/1 
f 50/115/1 49/116/1 15/113/1 
f 14/114/1 18/117/1 53/118/1 
f 53/118/1 50/115/1 14/114/1 
f 18/117/1 20/119/1 55/120/1 
f 55/120/1 53/118/1 18/117/1 
f 20/119/1 22/121/1 57/122/1 
f 57/122/1 55/120/1 20/119/1 
f 22/121/1 24/123/1 59/124/1 
f 59/124/1 57/122/1 22/121/1 
f 24/123/1 15/113/1 49/116/1 
f 49/116/1 59/124/1 24/123/1 
f 25/125/11 28/126/11 52/127/11 
f 52/127/11 51/128/11 25/125/11 
f 28/126/11 35/129/11 60/130/11 
f 60/130/11 52/127/11 28/126/11 
f 35/129/11 33/131/11 58/132/11 
f 58/132/11 60/130/11 35/129/11 
f 33/131/11 31/133/11 56/134/11 
f 56/134/11 58/132/11 33/131/11 
f 31/133/11 29/135/11 54/136/11 
f 54/136/11 56/134/11 31/133/11 
f 29/135/11 25/125/11 51/128/11 
f 51/128/11 54/136/11 29/135/11 
# 116 faces

#
# object Box001
#

v  -42.2500 8.7072 87.3000
v  -42.2500 8.7072 92.7000
v  42.2500 8.7072 92.7000
v  42.2500 8.7072 87.3000
v  -42.2500 4.3761 87.3000
v  42.2500 4.3761 87.3000
v  42.2500 4.3761 92.7000
v  -42.2500 4.3761 92.7000
v  -22.7500 8.7072 112.0302
v  -22.7500 8.7072 116.8302
v  22.7500 8.7072 116.8302
v  22.7500 8.7072 112.0302
v  -22.7500 4.3761 112.0302
v  22.7500 4.3761 112.0302
v  22.7500 4.3761 116.8302
v  -22.7500 4.3761 116.8302
# 16 vertices

vn 0.0000 1.0000 0.0000
vn 0.0000 -1.0000 -0.0000
vn 0.0000 0.0000 -1.0000
vn 1.0000 0.0000 0.0000
vn 0.0000 0.0000 1.0000
vn -1.0000 0.0000 0.0000
# 6 vertex normals

vt 0.0005 0.5885 0.0000
vt 0.0005 0.4037 0.0000
vt 0.9240 0.4037 0.0000
vt 0.9240 0.5885 0.0000
vt 0.0005 0.0005 0.0000
vt 0.9240 0.0005 0.0000
vt 0.9240 0.1852 0.0000
vt 0.0005 0.1852 0.0000
vt 0.0005 0.2959 0.0000
vt 0.9240 0.2959 0.0000
vt 0.9240 0.4008 0.0000
vt 0.0005 0.4008 0.0000
vt 0.5116 0.5913 0.0000
vt 0.6963 0.5913 0.0000
vt 0.6963 0.6962 0.0000
vt 0.5116 0.6962 0.0000
vt 0.0005 0.1881 0.0000
vt 0.9240 0.1881 0.0000
vt 0.9240 0.2929 0.0000
vt 0.0005 0.2929 0.0000
vt 0.7085 0.5913 0.0000
vt 0.8932 0.5913 0.0000
vt 0.8932 0.6962 0.0000
vt 0.7085 0.6962 0.0000
vt 0.5022 0.9899 0.0000
vt 0.5022 0.8257 0.0000
vt 0.9995 0.8257 0.0000
vt 0.9995 0.9899 0.0000
vt 0.4978 0.7555 0.0000
vt 0.0005 0.7555 0.0000
vt 0.0005 0.5913 0.0000
vt 0.4978 0.5913 0.0000
vt 0.0005 0.7601 0.0000
vt 0.4978 0.7601 0.0000
vt 0.4978 0.8650 0.0000
vt 0.0005 0.8650 0.0000
vt 0.5116 0.6991 0.0000
vt 0.6758 0.6991 0.0000
vt 0.6758 0.8040 0.0000
vt 0.5116 0.8040 0.0000
vt 0.0005 0.8679 0.0000
vt 0.4978 0.8679 0.0000
vt 0.4978 0.9728 0.0000
vt 0.0005 0.9728 0.0000
vt 0.8539 0.8040 0.0000
vt 0.6898 0.8040 0.0000
vt 0.6898 0.6991 0.0000
vt 0.8539 0.6991 0.0000
# 48 texture coords

o Box001
g Box001
s 2
f 61/137/15 62/138/15 63/139/15 
f 63/139/15 64/140/15 61/137/15 
s 4
f 65/141/16 66/142/16 67/143/16 
f 67/143/16 68/144/16 65/141/16 
s 8
f 61/145/17 64/146/17 66/147/17 
f 66/147/17 65/148/17 61/145/17 
s 16
f 64/149/18 63/150/18 67/151/18 
f 67/151/18 66/152/18 64/149/18 
s 32
f 63/153/19 62/154/19 68/155/19 
f 68/155/19 67/156/19 63/153/19 
s 64
f 62/157/20 61/158/20 65/159/20 
f 65/159/20 68/160/20 62/157/20 
s 2
f 69/161/15 70/162/15 71/163/15 
f 71/163/15 72/164/15 69/161/15 
s 4
f 73/165/16 74/166/16 75/167/16 
f 75/167/16 76/168/16 73/165/16 
s 8
f 69/169/17 72/170/17 74/171/17 
f 74/171/17 73/172/17 69/169/17 
s 16
f 72/173/18 71/174/18 75/175/18 
f 75/175/18 74/176/18 72/173/18 
s 32
f 71/177/19 70/178/19 76/179/19 
f 76/179/19 75/180/19 71/177/19 
s 64
f 70/181/20 69/182/20 73/183/20 
f 73/183/20 76/184/20 70/181/20 
# 24 faces

