# 3ds Max Wavefront OBJ Exporter v0.99 - (c)2007 guruware
# File Created: 12.11.2021 15:38:04

#
# object Box001
#

v  -42.2500 8.7072 87.3000
v  -42.2500 8.7072 92.7000
v  42.2500 8.7072 92.7000
v  42.2500 8.7072 87.3000
v  -42.2500 4.3761 87.3000
v  42.2500 4.3761 87.3000
v  42.2500 4.3761 92.7000
v  -42.2500 4.3761 92.7000
v  -22.7500 8.7072 112.0302
v  -22.7500 8.7072 116.8302
v  22.7500 8.7072 116.8302
v  22.7500 8.7072 112.0302
v  -22.7500 4.3761 112.0302
v  22.7500 4.3761 112.0302
v  22.7500 4.3761 116.8302
v  -22.7500 4.3761 116.8302
# 16 vertices

vn 0.0000 1.0000 0.0000
vn 0.0000 -1.0000 -0.0000
vn 0.0000 0.0000 -1.0000
vn 1.0000 0.0000 0.0000
vn 0.0000 0.0000 1.0000
vn -1.0000 0.0000 0.0000
# 6 vertex normals

vt 0.0005 0.5885 0.0000
vt 0.0005 0.4037 0.0000
vt 0.9240 0.4037 0.0000
vt 0.9240 0.5885 0.0000
vt 0.0005 0.0005 0.0000
vt 0.9240 0.0005 0.0000
vt 0.9240 0.1852 0.0000
vt 0.0005 0.1852 0.0000
vt 0.0005 0.2959 0.0000
vt 0.9240 0.2959 0.0000
vt 0.9240 0.4008 0.0000
vt 0.0005 0.4008 0.0000
vt 0.5116 0.5913 0.0000
vt 0.6963 0.5913 0.0000
vt 0.6963 0.6962 0.0000
vt 0.5116 0.6962 0.0000
vt 0.0005 0.1881 0.0000
vt 0.9240 0.1881 0.0000
vt 0.9240 0.2929 0.0000
vt 0.0005 0.2929 0.0000
vt 0.7085 0.5913 0.0000
vt 0.8932 0.5913 0.0000
vt 0.8932 0.6962 0.0000
vt 0.7085 0.6962 0.0000
vt 0.5022 0.9899 0.0000
vt 0.5022 0.8257 0.0000
vt 0.9995 0.8257 0.0000
vt 0.9995 0.9899 0.0000
vt 0.4978 0.7555 0.0000
vt 0.0005 0.7555 0.0000
vt 0.0005 0.5913 0.0000
vt 0.4978 0.5913 0.0000
vt 0.0005 0.7601 0.0000
vt 0.4978 0.7601 0.0000
vt 0.4978 0.8650 0.0000
vt 0.0005 0.8650 0.0000
vt 0.5116 0.6991 0.0000
vt 0.6758 0.6991 0.0000
vt 0.6758 0.8040 0.0000
vt 0.5116 0.8040 0.0000
vt 0.0005 0.8679 0.0000
vt 0.4978 0.8679 0.0000
vt 0.4978 0.9728 0.0000
vt 0.0005 0.9728 0.0000
vt 0.8539 0.8040 0.0000
vt 0.6898 0.8040 0.0000
vt 0.6898 0.6991 0.0000
vt 0.8539 0.6991 0.0000
# 48 texture coords

o Box001
g Box001
s 2
f 1/1/1 2/2/1 3/3/1 
f 3/3/1 4/4/1 1/1/1 
s 4
f 5/5/2 6/6/2 7/7/2 
f 7/7/2 8/8/2 5/5/2 
s 8
f 1/9/3 4/10/3 6/11/3 
f 6/11/3 5/12/3 1/9/3 
s 16
f 4/13/4 3/14/4 7/15/4 
f 7/15/4 6/16/4 4/13/4 
s 32
f 3/17/5 2/18/5 8/19/5 
f 8/19/5 7/20/5 3/17/5 
s 64
f 2/21/6 1/22/6 5/23/6 
f 5/23/6 8/24/6 2/21/6 
s 2
f 9/25/1 10/26/1 11/27/1 
f 11/27/1 12/28/1 9/25/1 
s 4
f 13/29/2 14/30/2 15/31/2 
f 15/31/2 16/32/2 13/29/2 
s 8
f 9/33/3 12/34/3 14/35/3 
f 14/35/3 13/36/3 9/33/3 
s 16
f 12/37/4 11/38/4 15/39/4 
f 15/39/4 14/40/4 12/37/4 
s 32
f 11/41/5 10/42/5 16/43/5 
f 16/43/5 15/44/5 11/41/5 
s 64
f 10/45/6 9/46/6 13/47/6 
f 13/47/6 16/48/6 10/45/6 
# 24 faces

#
# object Box003
#

v  -4.2000 -4.2000 0.0000
v  -4.2000 4.2000 0.0000
v  4.2000 4.2000 0.0000
v  4.2000 -4.2000 0.0000
v  -4.2000 -4.2000 117.0934
v  4.2000 -4.2000 117.0934
v  4.2000 4.2000 117.0934
v  -4.2000 4.2000 117.0934
v  4.2000 -4.2000 30.0434
v  -4.2000 -4.2000 30.0434
v  4.2000 -4.2000 38.0434
v  4.2000 -4.2000 62.7840
v  -4.2000 -4.2000 62.7840
v  -4.2000 -4.2000 38.0434
v  4.2000 -4.2000 70.7840
v  -4.2000 -4.2000 70.7840
v  4.2000 4.2000 30.0434
v  4.2000 4.2000 38.0434
v  4.2000 4.2000 62.7840
v  4.2000 4.2000 70.7840
v  -4.2000 4.2000 30.0434
v  -4.2000 4.2000 38.0434
v  -4.2000 4.2000 62.7840
v  -4.2000 4.2000 70.7840
v  -5.4728 -5.4728 30.0434
v  5.4728 -5.4728 30.0434
v  5.4728 -5.4728 38.0434
v  -5.4728 -5.4728 38.0434
v  -5.4728 -5.4728 62.7840
v  5.4728 -5.4728 62.7840
v  5.4728 -5.4728 70.7840
v  -5.4728 -5.4728 70.7840
v  5.4728 5.4728 30.0434
v  5.4728 5.4728 38.0434
v  5.4728 5.4728 62.7840
v  5.4728 5.4728 70.7840
v  -5.4728 5.4728 30.0434
v  -5.4728 5.4728 38.0434
v  -5.4728 5.4728 62.7840
v  -5.4728 5.4728 70.7840
# 40 vertices

vn 0.0000 0.0000 -1.0000
vn 0.0000 0.0000 1.0000
vn 0.0000 -1.0000 0.0000
vn 1.0000 0.0000 0.0000
vn 0.0000 1.0000 0.0000
vn -1.0000 0.0000 0.0000
# 6 vertex normals

vt 0.3410 0.7533 0.0000
vt 0.3410 0.6740 0.0000
vt 0.4203 0.6740 0.0000
vt 0.4203 0.7533 0.0000
vt 0.3392 0.5909 0.0000
vt 0.4185 0.5909 0.0000
vt 0.4185 0.6702 0.0000
vt 0.3392 0.6702 0.0000
vt 0.8761 0.0185 0.0000
vt 0.8761 0.4980 0.0000
vt 0.7643 0.4980 0.0000
vt 0.7643 0.0185 0.0000
vt 0.7635 0.5217 0.0000
vt 0.7635 0.9441 0.0000
vt 0.6439 0.9441 0.0000
vt 0.6439 0.5217 0.0000
vt 0.1526 0.0020 0.0000
vt 0.1526 0.5000 0.0000
vt 0.0773 0.5000 0.0000
vt 0.0773 0.0020 0.0000
vt 0.9943 0.0185 0.0000
vt 0.9943 0.4980 0.0000
vt 0.8825 0.4980 0.0000
vt 0.8825 0.0185 0.0000
vt 0.8830 0.5217 0.0000
vt 0.8830 0.9441 0.0000
vt 0.2278 0.0020 0.0000
vt 0.2278 0.5000 0.0000
vt 0.7579 0.0185 0.0000
vt 0.7579 0.4980 0.0000
vt 0.6461 0.4980 0.0000
vt 0.6461 0.0185 0.0000
vt 1.0025 0.5217 0.0000
vt 1.0025 0.9441 0.0000
vt 0.3031 0.0020 0.0000
vt 0.3031 0.5000 0.0000
vt 0.6397 0.0185 0.0000
vt 0.6397 0.4980 0.0000
vt 0.5279 0.4980 0.0000
vt 0.5279 0.0185 0.0000
vt 0.5244 0.9441 0.0000
vt 0.5244 0.5217 0.0000
vt 0.0020 0.5000 0.0000
vt 0.0020 0.0020 0.0000
vt 0.1296 0.5909 0.0000
vt 0.2329 0.5909 0.0000
vt 0.2329 0.6815 0.0000
vt 0.1296 0.6815 0.0000
vt 0.1314 0.6831 0.0000
vt 0.2347 0.6831 0.0000
vt 0.2347 0.7737 0.0000
vt 0.1314 0.7737 0.0000
vt 0.0248 0.5909 0.0000
vt 0.1281 0.5909 0.0000
vt 0.1281 0.6815 0.0000
vt 0.0248 0.6815 0.0000
vt 0.1136 0.7879 0.0000
vt 0.1136 0.8912 0.0000
vt 0.0230 0.8912 0.0000
vt 0.0230 0.7879 0.0000
vt 0.1314 0.8800 0.0000
vt 0.2347 0.8800 0.0000
vt 0.2347 0.9706 0.0000
vt 0.1314 0.9706 0.0000
vt 0.2398 0.8999 0.0000
vt 0.3431 0.8999 0.0000
vt 0.3431 0.9905 0.0000
vt 0.2398 0.9905 0.0000
vt 0.1263 0.9833 0.0000
vt 0.0230 0.9833 0.0000
vt 0.0230 0.8927 0.0000
vt 0.1263 0.8927 0.0000
vt 0.2344 0.5909 0.0000
vt 0.3377 0.5909 0.0000
vt 0.3377 0.6815 0.0000
vt 0.2344 0.6815 0.0000
vt 0.2482 0.7780 0.0000
vt 0.3275 0.7780 0.0000
vt 0.3395 0.7900 0.0000
vt 0.2362 0.7900 0.0000
vt 0.3275 0.6987 0.0000
vt 0.3395 0.6867 0.0000
vt 0.2482 0.6987 0.0000
vt 0.2362 0.6867 0.0000
vt 0.2227 0.7872 0.0000
vt 0.1434 0.7872 0.0000
vt 0.1314 0.7752 0.0000
vt 0.2347 0.7752 0.0000
vt 0.1434 0.8665 0.0000
vt 0.1314 0.8785 0.0000
vt 0.2227 0.8665 0.0000
vt 0.2347 0.8785 0.0000
vt 0.0350 0.7744 0.0000
vt 0.1143 0.7744 0.0000
vt 0.1263 0.7864 0.0000
vt 0.0230 0.7864 0.0000
vt 0.1143 0.6951 0.0000
vt 0.1263 0.6831 0.0000
vt 0.0350 0.6951 0.0000
vt 0.0230 0.6831 0.0000
vt 0.3275 0.8071 0.0000
vt 0.2482 0.8071 0.0000
vt 0.2362 0.7951 0.0000
vt 0.3395 0.7951 0.0000
vt 0.2482 0.8864 0.0000
vt 0.2362 0.8984 0.0000
vt 0.3275 0.8864 0.0000
vt 0.3395 0.8984 0.0000
# 108 texture coords

o Box003
g Box003
s 1
f 17/49/7 18/50/7 19/51/7 
f 19/51/7 20/52/7 17/49/7 
f 21/53/8 22/54/8 23/55/8 
f 23/55/8 24/56/8 21/53/8 
s 2
f 20/57/9 25/58/9 26/59/9 
f 26/59/9 17/60/9 20/57/9 
f 27/61/9 28/62/9 29/63/9 
f 29/63/9 30/64/9 27/61/9 
f 31/65/9 22/66/9 21/67/9 
f 21/67/9 32/68/9 31/65/9 
s 4
f 19/69/10 33/70/10 25/71/10 
f 25/71/10 20/72/10 19/69/10 
f 34/73/10 35/74/10 28/62/10 
f 28/62/10 27/61/10 34/73/10 
f 36/75/10 23/76/10 22/66/10 
f 22/66/10 31/65/10 36/75/10 
s 2
f 18/77/11 37/78/11 33/79/11 
f 33/79/11 19/80/11 18/77/11 
f 38/81/11 39/82/11 35/74/11 
f 35/74/11 34/73/11 38/81/11 
f 40/83/11 24/84/11 23/76/11 
f 23/76/11 36/75/11 40/83/11 
s 4
f 17/85/12 26/86/12 37/87/12 
f 37/87/12 18/88/12 17/85/12 
f 30/64/12 29/63/12 39/89/12 
f 39/89/12 38/90/12 30/64/12 
f 32/68/12 21/67/12 24/91/12 
f 24/91/12 40/92/12 32/68/12 
s 2
f 41/93/9 42/94/9 43/95/9 
f 43/95/9 44/96/9 41/93/9 
f 45/97/9 46/98/9 47/99/9 
f 47/99/9 48/100/9 45/97/9 
s 4
f 42/101/10 49/102/10 50/103/10 
f 50/103/10 43/104/10 42/101/10 
f 46/105/10 51/106/10 52/107/10 
f 52/107/10 47/108/10 46/105/10 
s 2
f 49/109/11 53/110/11 54/111/11 
f 54/111/11 50/112/11 49/109/11 
f 51/113/11 55/114/11 56/115/11 
f 56/115/11 52/116/11 51/113/11 
s 4
f 53/117/12 41/118/12 44/119/12 
f 44/119/12 54/120/12 53/117/12 
f 55/121/12 45/122/12 48/123/12 
f 48/123/12 56/124/12 55/121/12 
s off
f 26/125/7 25/126/7 42/127/7 
f 42/127/7 41/128/7 26/125/7 
f 25/126/7 33/129/7 49/130/7 
f 49/130/7 42/127/7 25/126/7 
f 33/129/7 37/131/7 53/132/7 
f 53/132/7 49/130/7 33/129/7 
f 37/131/7 26/125/7 41/128/7 
f 41/128/7 53/132/7 37/131/7 
f 27/133/8 30/134/8 44/135/8 
f 44/135/8 43/136/8 27/133/8 
f 30/134/8 38/137/8 54/138/8 
f 54/138/8 44/135/8 30/134/8 
f 38/137/8 34/139/8 50/140/8 
f 50/140/8 54/138/8 38/137/8 
f 34/139/8 27/133/8 43/136/8 
f 43/136/8 50/140/8 34/139/8 
f 29/141/7 28/142/7 46/143/7 
f 46/143/7 45/144/7 29/141/7 
f 28/142/7 35/145/7 51/146/7 
f 51/146/7 46/143/7 28/142/7 
f 35/145/7 39/147/7 55/148/7 
f 55/148/7 51/146/7 35/145/7 
f 39/147/7 29/141/7 45/144/7 
f 45/144/7 55/148/7 39/147/7 
f 31/149/8 32/150/8 48/151/8 
f 48/151/8 47/152/8 31/149/8 
f 32/150/8 40/153/8 56/154/8 
f 56/154/8 48/151/8 32/150/8 
f 40/153/8 36/155/8 52/156/8 
f 52/156/8 56/154/8 40/153/8 
f 36/155/8 31/149/8 47/152/8 
f 47/152/8 52/156/8 36/155/8 
# 76 faces

