# 3ds Max Wavefront OBJ Exporter v0.99 - (c)2007 guruware
# File Created: 19.11.2021 17:40:38

#
# object Cone001
#

v  12.4529 -15.8458 3.1740
v  -9.1072 -9.3310 3.1739
v  -2.5923 12.2291 3.1740
v  18.9677 5.7143 3.1739
v  6.1527 -3.9256 60.9099
v  3.7078 0.3090 60.9099
v  2.8129 -3.0307 60.9099
v  18.9677 5.7143 8.1739
v  12.4529 -15.8458 8.1740
v  -9.1072 -9.3310 8.1739
v  -2.5923 12.2291 8.1740
# 11 vertices

vn 0.0000 0.0000 -1.0000
vn 0.0000 0.0000 1.0000
vn 1.0000 -0.0000 -0.0000
vn -0.0000 -1.0000 0.0000
vn -1.0000 -0.0000 -0.0000
vn -0.0000 1.0000 0.0000
vn 0.9918 -0.0000 0.1279
vn 0.8589 0.4959 0.1279
vn -0.0000 0.9918 0.1279
vn -0.4959 0.8589 0.1279
vn -0.9918 0.0000 0.1279
vn -0.8589 -0.4959 0.1279
vn -0.0000 -0.9918 0.1279
vn 0.4959 -0.8589 0.1279
# 14 vertex normals

vt 0.8085 0.2860 0.0000
vt 0.6496 0.2380 0.0000
vt 0.6976 0.0791 0.0000
vt 0.8565 0.1271 0.0000
vt 0.4892 0.0082 0.0000
vt 0.2907 0.3519 0.0000
vt 0.2181 0.0808 0.0000
vt 0.9895 0.0065 0.0000
vt 0.9895 0.2478 0.0000
vt 0.9398 0.3395 0.0000
vt 0.9398 0.0981 0.0000
vt 0.9895 0.7305 0.0000
vt 0.9895 0.9718 0.0000
vt 0.9398 0.9718 0.0000
vt 0.9398 0.8222 0.0000
vt 0.9895 0.4892 0.0000
vt 0.9398 0.5808 0.0000
vt 0.4629 0.9911 0.0000
vt 0.4121 0.3621 0.0000
vt 0.5427 0.3621 0.0000
vt 0.6102 0.3621 0.0000
vt 0.7407 0.3621 0.0000
vt 0.6899 0.9911 0.0000
vt 0.6610 0.9911 0.0000
vt 0.0161 0.3621 0.0000
vt 0.1486 0.3617 0.0000
vt 0.0978 0.9907 0.0000
vt 0.0669 0.9911 0.0000
vt 0.2161 0.3617 0.0000
vt 0.3447 0.3621 0.0000
vt 0.2939 0.9911 0.0000
vt 0.2669 0.9907 0.0000
# 32 texture coords

o Cone001
g Cone001
s off
f 1/1/1 2/2/1 3/3/1 
f 3/3/1 4/4/1 1/1/1 
f 5/5/2 6/6/2 7/7/2 
f 1/8/3 4/9/3 8/10/3 
f 8/10/3 9/11/3 1/8/3 
f 2/12/4 1/13/4 9/14/4 
f 9/14/4 10/15/4 2/12/4 
f 3/16/5 2/12/5 10/15/5 
f 10/15/5 11/17/5 3/16/5 
f 4/9/6 3/16/6 11/17/6 
f 11/17/6 8/10/6 4/9/6 
f 5/18/7 9/19/7 8/20/8 
f 8/21/9 11/22/10 6/23/10 
f 6/23/10 5/24/9 8/21/9 
f 11/25/11 10/26/12 7/27/12 
f 7/27/12 6/28/11 11/25/11 
f 10/29/13 9/30/14 5/31/14 
f 5/31/14 7/32/13 10/29/13 
# 18 faces

