# 3ds Max Wavefront OBJ Exporter v0.99 - (c)2007 guruware
# File Created: 19.11.2021 17:39:19

#
# object Cone001
#

v  12.4529 12.2292 3.1740
v  18.9677 5.7143 3.1739
v  18.9677 -9.3309 3.1739
v  12.4529 -15.8458 3.1740
v  -2.5924 -15.8458 3.1740
v  -9.1072 -9.3310 3.1739
v  -9.1072 5.7143 3.1739
v  -2.5923 12.2291 3.1740
v  7.0476 -3.0308 60.9099
v  7.0476 -0.5859 60.9099
v  6.1527 0.3090 60.9099
v  6.1527 -3.9256 60.9099
v  3.7078 0.3090 60.9099
v  2.8129 -0.5859 60.9099
v  3.7078 -3.9256 60.9099
v  2.8129 -3.0307 60.9099
v  18.9677 5.7143 8.1739
v  18.9677 -9.3309 8.1739
v  12.4529 -15.8458 8.1740
v  -2.5924 -15.8458 8.1740
v  -9.1072 -9.3310 8.1739
v  -9.1072 5.7143 8.1739
v  -2.5923 12.2291 8.1740
v  12.4529 12.2292 8.1740
v  14.4747 3.7022 8.3397
v  14.4747 -7.3188 8.3397
v  10.4408 -11.3528 8.3397
v  -0.5802 -11.3528 8.3397
v  -4.6142 -7.3188 8.3397
v  -4.6142 3.7022 8.3397
v  -0.5802 7.7362 8.3397
v  10.4408 7.7362 8.3397
# 32 vertices

vn 0.0000 0.0000 -1.0000
vn 0.0000 0.0000 1.0000
vn 1.0000 -0.0000 -0.0000
vn 0.7071 -0.7071 0.0000
vn 0.7071 -0.7071 -0.0000
vn -0.0000 -1.0000 0.0000
vn -0.7071 -0.7071 -0.0000
vn -0.7071 -0.7071 0.0000
vn -1.0000 -0.0000 -0.0000
vn -0.7071 0.7071 0.0000
vn -0.7071 0.7071 -0.0000
vn -0.0000 1.0000 0.0000
vn 0.7071 0.7071 -0.0000
vn 0.7071 0.7071 0.0000
vn -0.0000 -0.0000 1.0000
vn 0.0000 -0.0000 1.0000
vn -0.0000 0.0000 1.0000
vn 0.9918 -0.0000 0.1279
vn 0.8589 0.4959 0.1279
vn 0.4959 0.8589 0.1279
vn -0.0000 0.9918 0.1279
vn -0.4959 0.8589 0.1279
vn -0.8589 0.4959 0.1279
vn -0.9918 0.0000 0.1279
vn -0.8589 -0.4959 0.1279
vn -0.4959 -0.8589 0.1279
vn -0.0000 -0.9918 0.1279
vn 0.4959 -0.8589 0.1279
vn 0.8589 -0.4959 0.1279
# 29 vertex normals

vt 0.8085 0.0791 0.0000
vt 0.8565 0.1271 0.0000
vt 0.8565 0.2380 0.0000
vt 0.8085 0.2860 0.0000
vt 0.6976 0.2860 0.0000
vt 0.6496 0.2380 0.0000
vt 0.6496 0.1271 0.0000
vt 0.6976 0.0791 0.0000
vt 0.5618 0.0808 0.0000
vt 0.5618 0.2793 0.0000
vt 0.4892 0.3519 0.0000
vt 0.4892 0.0082 0.0000
vt 0.2907 0.3519 0.0000
vt 0.2181 0.2793 0.0000
vt 0.2907 0.0082 0.0000
vt 0.2181 0.0808 0.0000
vt 0.9895 0.0981 0.0000
vt 0.9895 0.2478 0.0000
vt 0.9398 0.2478 0.0000
vt 0.9398 0.0981 0.0000
vt 0.9895 0.0065 0.0000
vt 0.9398 0.0065 0.0000
vt 0.9895 0.8222 0.0000
vt 0.9895 0.9718 0.0000
vt 0.9398 0.9718 0.0000
vt 0.9398 0.8222 0.0000
vt 0.9895 0.7305 0.0000
vt 0.9398 0.7305 0.0000
vt 0.9895 0.5808 0.0000
vt 0.9398 0.5808 0.0000
vt 0.9895 0.4892 0.0000
vt 0.9398 0.4892 0.0000
vt 0.9895 0.3395 0.0000
vt 0.9398 0.3395 0.0000
vt 0.9323 0.0878 0.0000
vt 0.9323 0.2744 0.0000
vt 0.8766 0.2494 0.0000
vt 0.8766 0.1127 0.0000
vt 0.8515 0.0070 0.0000
vt 0.8266 0.0627 0.0000
vt 0.6649 0.0070 0.0000
vt 0.6899 0.0627 0.0000
vt 0.5841 0.0878 0.0000
vt 0.6398 0.1127 0.0000
vt 0.5841 0.2744 0.0000
vt 0.6398 0.2494 0.0000
vt 0.6649 0.3552 0.0000
vt 0.6899 0.2995 0.0000
vt 0.8515 0.3552 0.0000
vt 0.8266 0.2995 0.0000
vt 0.4121 0.3621 0.0000
vt 0.5427 0.3621 0.0000
vt 0.4919 0.9911 0.0000
vt 0.4629 0.9911 0.0000
vt 0.6102 0.3621 0.0000
vt 0.5839 0.9911 0.0000
vt 0.5690 0.9911 0.0000
vt 0.7407 0.3621 0.0000
vt 0.6899 0.9911 0.0000
vt 0.6610 0.9911 0.0000
vt 0.8082 0.3621 0.0000
vt 0.7819 0.9911 0.0000
vt 0.7670 0.9911 0.0000
vt 0.0161 0.3621 0.0000
vt 0.1486 0.3617 0.0000
vt 0.0978 0.9907 0.0000
vt 0.0669 0.9911 0.0000
vt 0.2161 0.3617 0.0000
vt 0.1898 0.9907 0.0000
vt 0.1749 0.9907 0.0000
vt 0.3447 0.3621 0.0000
vt 0.2939 0.9911 0.0000
vt 0.2669 0.9907 0.0000
vt 0.3859 0.9911 0.0000
vt 0.3709 0.9911 0.0000
# 75 texture coords

o Cone001
g Cone001
s off
f 1/1/1 2/2/1 3/3/1 
f 3/3/1 4/4/1 5/5/1 
f 5/5/1 6/6/1 7/7/1 
f 5/5/1 7/7/1 8/8/1 
f 3/3/1 5/5/1 8/8/1 
f 1/1/1 3/3/1 8/8/1 
f 9/9/2 10/10/2 11/11/2 
f 12/12/2 9/9/2 11/11/2 
f 11/11/2 13/13/2 14/14/2 
f 12/12/2 11/11/2 14/14/2 
f 15/15/2 12/12/2 14/14/2 
f 15/15/2 14/14/2 16/16/2 
f 3/17/3 2/18/3 17/19/3 
f 17/19/3 18/20/3 3/17/3 
f 4/21/4 3/17/5 18/20/4 
f 18/20/4 19/22/4 4/21/4 
f 5/23/6 4/24/6 19/25/6 
f 19/25/6 20/26/6 5/23/6 
f 6/27/7 5/23/8 20/26/7 
f 20/26/7 21/28/7 6/27/7 
f 7/29/9 6/27/9 21/28/9 
f 21/28/9 22/30/9 7/29/9 
f 8/31/10 7/29/11 22/30/10 
f 22/30/10 23/32/10 8/31/10 
f 1/33/12 8/31/12 23/32/12 
f 23/32/12 24/34/12 1/33/12 
f 2/18/13 1/33/14 24/34/13 
f 24/34/13 17/19/13 2/18/13 
f 18/35/15 17/36/2 25/37/15 
f 25/37/15 26/38/15 18/35/15 
f 19/39/2 18/35/16 26/38/2 
f 26/38/2 27/40/2 19/39/2 
f 20/41/2 19/39/2 27/40/2 
f 27/40/2 28/42/2 20/41/2 
f 21/43/15 20/41/17 28/42/15 
f 28/42/15 29/44/15 21/43/15 
f 22/45/2 21/43/15 29/44/2 
f 29/44/2 30/46/2 22/45/2 
f 23/47/2 22/45/17 30/46/2 
f 30/46/2 31/48/2 23/47/2 
f 24/49/2 23/47/2 31/48/2 
f 31/48/2 32/50/2 24/49/2 
f 17/36/2 24/49/16 32/50/2 
f 32/50/2 25/37/2 17/36/2 
f 26/51/18 25/52/19 10/53/19 
f 10/53/19 9/54/18 26/51/18 
f 25/52/19 32/55/20 11/56/20 
f 11/56/20 10/57/19 25/52/19 
f 32/55/21 31/58/22 13/59/22 
f 13/59/22 11/60/21 32/55/21 
f 31/58/22 30/61/23 14/62/23 
f 14/62/23 13/63/22 31/58/22 
f 30/64/24 29/65/25 16/66/25 
f 16/66/25 14/67/24 30/64/24 
f 29/65/25 28/68/26 15/69/26 
f 15/69/26 16/70/25 29/65/25 
f 28/68/27 27/71/28 12/72/28 
f 12/72/28 15/73/27 28/68/27 
f 27/71/28 26/51/29 9/74/29 
f 9/74/29 12/75/28 27/71/28 
# 60 faces

