# Blender v3.0.1 OBJ File: ''
# www.blender.org
mtllib woodpallette.mtl
o Pallette_Cube.002
v -5.000000 0.000000 -5.000000
v -5.000000 1.000000 -5.000000
v -5.000000 0.000000 -6.000000
v -5.000000 1.000000 -6.000000
v 5.000000 0.000000 -5.000000
v 5.000000 1.000000 -5.000000
v 5.000000 0.000000 -6.000000
v 5.000000 1.000000 -6.000000
v -5.000000 0.000000 0.000000
v -5.000000 1.000000 0.000000
v -5.000000 0.000000 -1.000000
v -5.000000 1.000000 -1.000000
v 5.000000 0.000000 0.000000
v 5.000000 1.000000 0.000000
v 5.000000 0.000000 -1.000000
v 5.000000 1.000000 -1.000000
v -5.000000 0.000000 5.000000
v -5.000000 1.000000 5.000000
v -5.000000 0.000000 4.000000
v -5.000000 1.000000 4.000000
v 5.000000 0.000000 5.000000
v 5.000000 1.000000 5.000000
v 5.000000 0.000000 4.000000
v 5.000000 1.000000 4.000000
v 5.000000 0.000000 5.000000
v -5.000000 0.000000 5.000000
v 5.000000 0.000000 -6.000000
v -5.000000 0.000000 -6.000000
v -5.000000 1.000000 5.000000
v 5.000000 1.000000 5.000000
v -5.000000 1.000000 -6.000000
v 5.000000 1.000000 -6.000000
v 5.000000 0.000000 5.000000
v -5.000000 0.000000 5.000000
v 5.000000 0.000000 -6.000000
v -5.000000 0.000000 -6.000000
v -5.000000 1.000000 5.000000
v 5.000000 1.000000 5.000000
v -5.000000 1.000000 -6.000000
v 5.000000 1.000000 -6.000000
vt 0.125000 0.218750
vt 0.015625 0.218750
vt 0.015625 0.117188
vt 0.125000 0.117188
vt 0.140625 0.210938
vt 0.140625 0.125000
vt 0.976562 0.125000
vt 0.976562 0.210938
vt 0.125000 0.218750
vt 0.015625 0.218750
vt 0.015625 0.117188
vt 0.125000 0.117188
vt 0.140625 0.093750
vt 0.140625 0.007812
vt 0.976562 0.007812
vt 0.976562 0.093750
vt 0.125000 0.218750
vt 0.015625 0.218750
vt 0.015625 0.117188
vt 0.125000 0.117188
vt 0.140625 0.093750
vt 0.140625 0.007812
vt 0.976562 0.007812
vt 0.976562 0.093750
vt 0.125000 0.218750
vt 0.015625 0.218750
vt 0.015625 0.117188
vt 0.125000 0.117188
vt 0.140625 0.093750
vt 0.140625 0.007812
vt 0.976562 0.007812
vt 0.976562 0.093750
vt 0.125000 0.218750
vt 0.015625 0.218750
vt 0.015625 0.117188
vt 0.125000 0.117188
vt 0.140625 0.093750
vt 0.140625 0.007812
vt 0.976562 0.007812
vt 0.976562 0.093750
vt 0.125000 0.218750
vt 0.015625 0.218750
vt 0.015625 0.117188
vt 0.125000 0.117188
vt 0.140625 0.210938
vt 0.140625 0.125000
vt 0.976562 0.125000
vt 0.976562 0.210938
vt 0.546875 1.000000
vt 0.546875 0.484375
vt 1.000000 0.484375
vt 1.000000 1.000000
vt 0.546875 1.000000
vt 0.546875 0.484375
vt 1.000000 0.484375
vt 1.000000 1.000000
vt 0.453125 1.000000
vt -0.000000 1.000000
vt -0.000000 0.484375
vt 0.453125 0.484375
vt 0.453125 1.000000
vt -0.000000 1.000000
vt -0.000000 0.484375
vt 0.453125 0.484375
vn -1.0000 0.0000 0.0000
vn 0.0000 0.0000 -1.0000
vn 1.0000 0.0000 0.0000
vn 0.0000 0.0000 1.0000
vn 0.0000 1.0000 0.0000
vn 0.0000 -1.0000 0.0000
usemtl Material.001
s off
f 1/1/1 2/2/1 4/3/1 3/4/1
f 3/5/2 4/6/2 8/7/2 7/8/2
f 7/9/3 8/10/3 6/11/3 5/12/3
f 5/13/4 6/14/4 2/15/4 1/16/4
f 9/17/1 10/18/1 12/19/1 11/20/1
f 11/21/2 12/22/2 16/23/2 15/24/2
f 15/25/3 16/26/3 14/27/3 13/28/3
f 13/29/4 14/30/4 10/31/4 9/32/4
f 17/33/1 18/34/1 20/35/1 19/36/1
f 19/37/2 20/38/2 24/39/2 23/40/2
f 23/41/3 24/42/3 22/43/3 21/44/3
f 21/45/4 22/46/4 18/47/4 17/48/4
f 25/49/5 27/50/5 28/51/5 26/52/5
f 29/53/6 31/54/6 32/55/6 30/56/6
f 33/57/6 34/58/6 36/59/6 35/60/6
f 37/61/5 38/62/5 40/63/5 39/64/5
