# Blender v3.6.2 OBJ File: '_PSX MODELS.blend'
# www.blender.org
mtllib FenceExtend2.mtl
o Cube.001_Cube.004
v -0.225000 0.000000 0.065695
v -0.075000 0.298387 0.065695
v -0.225000 0.000000 -0.065695
v -0.075000 0.298387 -0.065695
v 0.225000 0.000000 0.065695
v 0.075000 0.298387 0.065695
v 0.225000 0.000000 -0.065695
v 0.075000 0.298387 -0.065695
v -0.075000 1.700000 0.065695
v -0.075000 1.700000 -0.065695
v 0.075000 1.700000 -0.065695
v 0.075000 1.700000 0.065695
v 0.036000 0.916653 0.065695
v -0.036000 0.916653 0.065695
v 0.036000 1.111828 0.065695
v 0.036000 1.111828 0.177857
v -0.036000 1.111828 0.065695
v -0.036000 1.111828 0.177857
v 0.036000 1.452681 0.065695
v 0.036000 1.452681 0.154950
v -0.036000 1.452681 0.065695
v -0.036000 1.452681 0.154950
v 0.036000 1.725000 0.065695
v 0.036000 1.725000 0.154950
v -0.036000 1.725000 0.065695
v -0.036000 1.725000 0.154950
v 0.000000 1.664434 -0.154888
v 0.000000 1.164777 -0.154888
v 0.000000 1.664434 -0.065695
v 0.000000 1.164777 -0.065695
v 0.000000 0.363705 -0.065695
v 0.000000 0.863362 -0.065695
v 0.000000 0.363705 -0.154888
v 0.000000 0.863362 -0.154888
v -0.000000 1.111828 0.151788
v -0.000000 1.452681 0.151788
v -0.029228 1.111828 0.101163
v -0.029228 1.452681 0.101163
v 0.029228 1.111828 0.101163
v 0.029228 1.452681 0.101163
v 0.036000 1.700000 0.065695
v -0.036000 1.700000 0.065695
v 0.000000 1.664434 -0.154888
v 0.000000 1.164777 -0.154888
v 0.000000 1.664434 -0.065695
v 0.000000 1.164777 -0.065695
v 0.000000 0.363705 -0.065695
v 0.000000 0.863362 -0.065695
v 0.000000 0.363705 -0.154888
v 0.000000 0.863362 -0.154888
vt 0.820312 0.000000
vt 0.820312 0.234375
vt 0.726562 0.234375
vt 0.726562 0.000000
vt 0.718750 0.960938
vt 0.507812 0.851562
vt 0.507812 0.750000
vt 0.718750 0.640625
vt 0.937500 0.320312
vt 0.937500 0.554688
vt 0.843750 0.554688
vt 0.843750 0.320312
vt 0.812500 0.640625
vt 0.601562 0.531250
vt 0.601562 0.429688
vt 0.812500 0.320312
vt 0.781250 0.710938
vt 0.781250 0.640625
vt 0.812500 0.710938
vt 0.000000 0.000000
vt 0.109375 0.000000
vt 0.109375 1.000000
vt 0.000000 1.000000
vt 0.726562 0.062500
vt 0.726562 0.164062
vt 0.632812 0.164062
vt 0.632812 0.062500
vt 0.273438 0.000000
vt 0.375000 0.000000
vt 0.375000 1.000000
vt 0.273438 1.000000
vt 0.406250 0.000000
vt 0.500000 0.000000
vt 0.500000 1.000000
vt 0.406250 1.000000
vt 0.140625 -0.000000
vt 0.242188 -0.000000
vt 0.242188 1.000000
vt 0.140625 1.000000
vt 0.601562 0.226562
vt 0.671875 0.367188
vt 0.601562 0.367188
vt 0.796875 0.320312
vt 0.867188 0.320312
vt 0.867188 0.273438
vt 0.796875 0.273438
vt 0.601562 0.367188
vt 0.523438 0.367188
vt 0.601562 0.226562
vt 0.937500 0.859375
vt 0.937500 0.703125
vt 0.992188 0.703125
vt 0.992188 0.859375
vt 0.937500 0.742188
vt 0.937500 0.812500
vt 0.882812 0.812500
vt 0.882812 0.742188
vt 0.140625 0.117188
vt 0.140625 0.070312
vt 0.156250 0.070312
vt 0.156250 0.117188
vt 0.882812 0.257812
vt 0.882812 0.320312
vt 0.937500 0.320312
vt 0.937500 0.257812
vt 0.875000 0.742188
vt 0.812500 0.742188
vt 0.812500 0.554688
vt 0.875000 0.554688
vt 0.578125 0.218750
vt 0.578125 0.023438
vt 0.632812 0.023438
vt 0.632812 0.218750
vt 1.000000 0.000000
vt 1.000000 0.351562
vt 0.937500 0.351562
vt 0.937500 0.000000
vt 1.000000 0.000000
vt 1.000000 0.351562
vt 0.937500 0.351562
vt 0.937500 0.000000
vt 0.859375 0.000000
vt 0.859375 0.242188
vt 0.820312 0.242188
vt 0.820312 0.000000
vt 0.937500 0.000000
vt 0.937500 0.242188
vt 0.898438 0.242188
vt 0.898438 0.000000
vt 0.937500 0.742188
vt 0.875000 0.742188
vt 0.875000 0.554688
vt 0.937500 0.554688
vt 1.000000 0.351562
vt 0.937500 0.351562
vt 0.937500 0.703125
vt 1.000000 0.703125
vt 1.000000 0.351562
vt 0.937500 0.351562
vt 0.937500 0.703125
vt 1.000000 0.703125
vn -0.8935 0.4491 0.0000
vn 0.0000 0.0000 -1.0000
vn 0.8935 0.4491 0.0000
vn 0.0000 0.0000 1.0000
vn 0.0000 -1.0000 0.0000
vn 0.0000 1.0000 0.0000
vn 1.0000 0.0000 0.0000
vn -1.0000 0.0000 0.0000
vn 0.0000 -0.4983 0.8670
vn -0.8660 0.0000 0.5000
vn 0.8660 0.0000 0.5000
usemtl Material.006
s off
f 1/1/1 2/2/1 4/3/1 3/4/1
f 3/5/2 4/6/2 8/7/2 7/8/2
f 7/9/3 8/10/3 6/11/3 5/12/3
f 5/13/4 6/14/4 2/15/4 1/16/4
f 3/17/5 7/18/5 5/13/5 1/19/5
f 8/20/2 4/21/2 10/22/2 11/23/2
f 11/24/6 10/25/6 9/26/6 12/27/6
f 6/28/7 8/29/7 11/30/7 12/31/7
f 4/32/8 2/33/8 9/34/8 10/35/8
f 2/36/4 6/37/4 12/38/4 9/39/4
f 14/40/8 18/41/8 17/42/8
f 17/43/6 18/44/6 16/45/6 15/46/6
f 15/47/7 16/48/7 13/49/7
f 18/50/9 14/51/9 13/52/9 16/53/9
f 19/54/5 20/55/5 22/56/5 21/57/5
f 25/58/2 23/59/2 41/60/2 42/61/2
f 25/62/6 26/63/6 24/64/6 23/65/6
f 23/66/7 24/67/7 20/68/7 19/69/7
f 26/70/4 22/71/4 20/72/4 24/73/4
f 33/74/7 34/75/7 32/76/7 31/77/7
f 28/78/7 27/79/7 29/80/7 30/81/7
f 35/82/10 36/83/10 38/84/10 37/85/10
f 37/86/2 38/87/2 40/88/2 39/89/2
f 39/89/11 40/88/11 36/83/11 35/82/11
f 26/90/8 25/91/8 21/92/8 22/93/8
f 49/94/8 47/95/8 48/96/8 50/97/8
f 44/98/8 46/99/8 45/100/8 43/101/8
