# Blender v3.4.1 OBJ File: '_PSX MODELS.blend'
# www.blender.org
mtllib MoldySandwich.mtl
o SandwichMold_Cube.004
v -0.400000 0.000000 0.000000
v -0.400000 0.100000 -0.000000
v 0.000000 0.000000 0.400000
v 0.000000 0.100000 0.400000
v 0.000000 0.000000 0.000000
v 0.000000 0.100000 -0.000000
vt 0.240741 1.000000
vt 0.000000 1.000000
vt 0.000000 0.000000
vt 0.240741 0.000000
vt 0.240741 0.281250
vt 0.000000 0.281250
vt 0.000000 1.000000
vt 0.240741 1.000000
vt 0.240741 0.000000
vt 0.000000 0.000000
vt 0.000000 0.703125
vt 0.240741 0.703125
vt 1.000000 0.625000
vt 0.240741 0.625000
vt 0.240741 0.000000
vt 0.240741 0.625000
vt 0.240741 0.000000
vt 1.000000 0.625000
vn -0.7071 0.0000 0.7071
vn 0.0000 -0.0000 -1.0000
vn 1.0000 0.0000 0.0000
vn 0.0000 -1.0000 0.0000
vn 0.0000 1.0000 -0.0000
usemtl Material.016
s 1
f 3/1/1 4/2/1 2/3/1 1/4/1
f 1/5/2 2/6/2 6/7/2 5/8/2
f 5/9/3 6/10/3 4/11/3 3/12/3
f 1/13/4 5/14/4 3/15/4
f 6/16/5 2/17/5 4/18/5
