# Blender v3.4.1 OBJ File: '_PSX MODELS.blend'
# www.blender.org
o WaterHeaterPipes_Cylinder.009
v -0.028060 2.741927 -0.751295
v -0.028060 -0.000001 -0.751295
v 0.005935 -0.000001 -0.785290
v 0.005935 2.741927 -0.785290
v 0.005935 -0.000001 -0.717300
v 0.005935 2.741927 -0.717300
v 0.039931 -0.000001 -0.751295
v 0.039931 2.741927 -0.751295
v 0.738510 -0.000001 0.694942
v 0.793661 -0.000001 0.616178
v 0.793661 1.938114 0.616178
v 0.817274 -0.000001 0.750093
v 0.817274 1.938114 0.750093
v 0.872425 -0.000001 0.671329
v 0.872425 2.006104 0.671329
v 0.737477 0.756365 0.694942
v 0.733367 0.756365 0.267275
v 0.801357 0.824356 0.267275
v 0.793661 0.823372 0.616177
v 0.801357 0.688375 0.267275
v 0.793661 0.687391 0.616177
v 0.869348 0.756365 0.267275
v 0.873458 0.756365 0.671329
v -0.591894 5.902843 0.921455
v -0.591894 -0.000001 0.921455
v -0.523904 -0.000001 0.853465
v -0.523904 5.902843 0.853465
v -0.523904 -0.000001 0.989446
v -0.523904 5.902843 0.989446
v -0.455913 -0.000001 0.921455
v -0.455913 5.902843 0.921455
v -0.523903 1.938113 0.853465
v -0.523904 2.006104 0.921455
v 0.738510 1.869664 0.694942
v -0.523904 1.870123 0.921455
v -0.523904 1.938113 0.989446
v -0.473203 5.902843 0.261238
v -0.473203 3.578236 0.261238
v -0.439208 3.578236 0.227243
v -0.439208 5.902843 0.227243
v -0.439208 3.578236 0.295234
v -0.439208 5.902843 0.295234
v -0.405212 3.578236 0.261238
v -0.405212 5.902843 0.261238
vt 0.000000 0.000000
vt 0.000000 1.000000
vt 0.454545 1.000000
vt 0.454545 0.000000
vt -0.000000 1.000000
vt -0.000000 0.000000
vt 0.454545 0.000000
vt 0.454545 1.000000
vt 0.454545 0.304688
vt 0.454545 0.914062
vt 1.000000 0.914062
vt 1.000000 0.304688
vt 0.454545 0.304688
vt 0.454545 0.898438
vt 1.000000 0.937500
vt 1.000000 0.304688
vt 1.000000 0.679688
vt 1.000000 0.843750
vt 0.454545 0.843750
vt 0.454545 0.679688
vt 1.000000 0.679688
vt 1.000000 0.875000
vt 0.454545 0.875000
vt 0.454545 0.679688
vt 1.000000 -1.554688
vt 1.000000 1.000000
vt 0.454545 1.000000
vt 0.454545 -1.554688
vt 1.000000 -1.554688
vt 1.000000 1.000000
vt 0.454545 1.000000
vt 0.454545 -1.554688
vt 1.000000 -0.046875
vt 1.000000 0.953125
vt 0.454545 0.953125
vt 0.454545 0.054688
vt 0.454545 0.000000
vt 0.454545 0.945312
vt 1.000000 0.960938
vt 1.000000 0.000000
vt 0.454545 0.000000
vt 0.454545 1.000000
vt 0.000000 1.000000
vt 0.000000 0.000000
vt 0.454545 0.000000
vt 0.454545 1.000000
vt 0.000000 1.000000
vt 0.000000 0.000000
vn 1.0000 0.0000 0.0000
vn 0.0000 0.0000 -1.0000
vn 0.9848 0.0000 -0.1736
vn -0.1736 0.0000 -0.9848
vn 0.9998 0.0000 0.0221
vn 0.0000 1.0000 -0.0000
vn 0.1765 -0.0014 0.9843
s off
f 3/1/1 4/2/1 6/3/1 5/4/1
f 2/5/2 1/6/2 8/7/2 7/8/2
f 10/9/3 11/10/3 13/11/3 12/12/3
f 9/13/4 34/14/4 15/15/4 14/16/4
f 18/17/5 19/18/5 21/19/5 20/20/5
f 17/21/6 16/22/6 23/23/6 22/24/6
f 26/25/1 27/26/1 29/27/1 28/28/1
f 25/29/2 24/30/2 31/31/2 30/32/2
f 15/33/7 33/34/7 35/35/7 34/36/7
f 11/37/6 32/38/6 36/39/6 13/40/6
f 39/41/1 40/42/1 42/43/1 41/44/1
f 38/45/2 37/46/2 44/47/2 43/48/2
