# Blender 4.1.1
# www.blender.org
o Cube.014
v 21.759205 4.124864 -22.187971
v 21.759205 40.627991 -22.187983
v 33.133148 4.124864 -22.187971
v 33.133148 40.627991 -22.187983
v 33.133148 4.124863 -33.133152
v 33.133148 40.627979 -33.133163
v 21.759205 4.124863 -33.133152
v 21.759205 40.627979 -33.133163
v -33.133156 4.124865 -20.400848
v -33.133156 29.004614 -20.400854
v -33.133156 4.124863 -33.133148
v -33.133156 29.004614 -33.133160
v -21.010979 4.124863 -33.133148
v -21.010979 29.004614 -33.133160
v -21.010979 4.124865 -20.400848
v -21.010979 29.004614 -20.400854
v -17.143311 4.124865 -17.190353
v -17.143311 20.515970 -17.190359
v -17.143311 4.124863 -33.133148
v -17.143311 20.515970 -33.133148
v 1.045490 4.124865 -17.190353
v 1.045490 20.515970 -17.190359
v 1.045490 4.124863 -33.133148
v 1.045490 20.515970 -33.133148
v -33.133156 4.124867 -9.917128
v -33.133156 34.431038 -9.917136
v -33.133156 4.124865 -16.931911
v -33.133156 34.431038 -16.931917
v -22.103069 4.124867 -9.917128
v -22.103069 34.431038 -9.917136
v -22.103069 4.124865 -16.931911
v -22.103069 34.431038 -16.931917
v -33.133156 4.124870 3.940813
v -33.133156 30.973061 3.940807
v -33.133156 4.124867 -4.830789
v -33.133156 30.973061 -4.830793
v -27.970402 4.124870 3.940813
v -27.970402 30.973061 3.940807
v -27.970402 4.124867 -4.830789
v -27.970402 30.973061 -4.830793
v -25.785110 4.124870 2.325199
v -25.785110 31.448174 2.325193
v -14.030235 4.124870 2.325199
v -14.030235 31.448174 2.325193
v -14.030235 4.124867 -8.002463
v -14.030235 31.448174 -8.002469
v -25.785110 4.124867 -8.002463
v -25.785110 31.448174 -8.002469
v 2.749640 4.124864 -24.663517
v 2.749640 37.454826 -24.663523
v 2.749640 4.124863 -33.133148
v 2.749640 37.454815 -33.133160
v 11.551058 4.124864 -24.663517
v 11.551058 37.454826 -24.663523
v 11.551058 4.124863 -33.133148
v 11.551058 37.454815 -33.133160
v -12.456532 4.124867 -7.437467
v -12.456532 42.954433 -7.437474
v -12.456532 4.124865 -15.907095
v -12.456532 42.954433 -15.907104
v -3.655109 4.124867 -7.437467
v -3.655109 42.954433 -7.437474
v -3.655109 4.124865 -15.907095
v -3.655109 42.954433 -15.907104
v -11.459049 4.124870 -3.058462
v -11.459049 51.525677 -3.058474
v 1.988384 4.124873 9.882042
v 1.988384 51.525677 9.882030
v -8.328331 4.124873 9.882042
v -11.459049 4.124870 6.751318
v -11.459049 51.525677 6.751310
v -8.328331 51.525677 9.882030
v -1.146046 4.124870 -3.058462
v 1.988384 4.124870 0.075966
v 1.988384 51.525677 0.075954
v -1.146046 51.525677 -3.058474
v -12.624073 4.124870 8.928427
v -12.624073 34.471416 8.928418
v -27.397747 4.124870 8.928423
v -27.397747 34.471416 8.928414
v -12.624073 4.124870 3.765671
v -12.624073 34.471416 3.765662
v -27.397747 4.124870 3.765669
v -27.397747 34.471416 3.765660
v -1.522736 4.124867 -4.379276
v -1.522736 46.463703 -4.379285
v -1.522736 4.124867 -15.324457
v -1.522736 46.463703 -15.324469
v 9.851204 4.124867 -4.379276
v 9.851204 46.463703 -4.379285
v 9.851204 4.124867 -15.324457
v 9.851204 46.463703 -15.324469
v 12.468105 4.124867 -10.730270
v 12.468105 24.027058 -10.730276
v 12.468105 4.124864 -23.351418
v 12.468105 24.027052 -23.351423
v 18.629097 4.124867 -10.730270
v 18.629097 24.027058 -10.730276
v 18.629097 4.124864 -23.351418
v 18.629097 24.027052 -23.351423
v 3.907774 4.124870 6.112530
v 3.907774 37.454826 6.112521
v 3.907774 4.124870 -2.357103
v 3.907774 37.454826 -2.357112
v 28.594704 4.124870 -2.357103
v 28.594704 37.454826 -2.357112
v 28.594704 4.124870 6.112530
v 28.594704 37.454826 6.112521
v 33.433834 4.124867 -4.298079
v 33.433834 29.610914 -4.298083
v 11.284178 4.124867 -4.298079
v 11.284178 29.610914 -4.298083
v 33.433834 4.124867 -8.610770
v 33.433834 29.610914 -8.610776
v 11.284178 4.124867 -8.610773
v 11.284178 29.610914 -8.610779
v 21.778362 4.124867 -10.974487
v 21.778362 33.702942 -10.974496
v 21.778362 4.124865 -19.444118
v 21.778362 33.702942 -19.444124
v 30.579782 4.124867 -10.974487
v 30.579782 33.702942 -10.974496
v 30.579782 4.124865 -19.444118
v 30.579782 33.702942 -19.444124
v -33.133156 4.124877 33.133152
v -33.133156 37.918415 33.133141
v -33.133156 4.124873 13.786911
v -33.133156 37.918404 13.786902
v -21.480576 4.124873 13.786911
v -21.480576 37.918404 13.786902
v -21.480576 4.124876 33.133152
v -21.480576 37.918415 33.133133
v -0.090626 4.124873 13.336220
v -0.090626 34.471416 13.336211
v -33.133148 4.124873 13.336220
v -33.133148 34.471416 13.336211
v -0.090626 4.124873 10.425598
v -0.090626 34.471416 10.425590
v -33.133148 4.124873 10.425598
v -33.133148 34.471416 10.425590
v 3.907776 4.124876 23.007484
v 3.907776 37.454826 23.007479
v 3.907776 4.124870 7.900442
v 3.907776 37.454826 7.900433
v 10.040979 4.124870 7.900442
v 10.040979 37.454826 7.900433
v 10.040979 4.124876 23.007484
v 10.040979 37.454826 23.007479
v -17.213711 4.124876 22.756069
v -17.213711 46.626282 22.756058
v -17.213711 4.124873 14.286438
v -17.213711 46.626282 14.286427
v -8.412296 4.124873 14.286438
v -8.412296 46.626282 14.286427
v -8.412296 4.124876 22.756069
v -8.412296 46.626282 22.756058
v 21.378277 4.124874 18.635532
v 21.378277 43.181900 18.635521
v 21.378277 4.124870 8.307873
v 21.378277 43.181900 8.307864
v 33.133148 4.124874 18.635532
v 33.133148 43.181900 18.635521
v 33.133148 4.124873 8.307873
v 33.133148 43.181900 8.307864
v 13.176556 4.124874 16.561905
v 13.176556 30.973066 16.561899
v 13.176556 4.124870 7.790304
v 13.176556 30.973061 7.790297
v 18.339310 4.124874 16.561905
v 18.339310 30.973066 16.561899
v 18.339310 4.124870 7.790304
v 18.339310 30.973061 7.790297
v -4.618916 4.124876 26.938831
v -4.618916 29.914511 26.938826
v -4.618916 4.124873 14.317684
v -4.618916 29.914511 14.317678
v 1.542078 4.124876 26.938831
v 1.542078 29.914511 26.938826
v 1.542078 4.124873 14.317684
v 1.542078 29.914511 14.317678
v 2.560698 4.124877 33.133152
v 2.560698 20.563700 33.133152
v -19.588959 4.124877 33.133152
v -19.588959 20.563700 33.133152
v 2.560698 4.124877 28.820457
v 2.560698 20.563700 28.820452
v -19.588959 4.124877 28.820457
v -19.588959 20.563700 28.820452
v 20.512001 4.124876 26.972160
v 20.512001 29.914511 26.972155
v 33.133148 4.124876 26.972160
v 33.133148 29.914511 26.972155
v 20.512001 4.124877 33.133152
v 20.512001 29.914511 33.133141
v 33.133148 4.124877 33.133152
v 33.133148 29.914511 33.133141
v 5.603897 4.124877 33.382927
v 5.603897 24.964605 33.382927
v 5.603897 4.124876 26.368145
v 5.603897 24.964605 26.368139
v 16.633976 4.124877 33.382927
v 16.633976 24.964605 33.382927
v 16.633976 4.124876 26.368145
v 16.633976 24.964605 26.368139
v 32.303143 4.124876 24.951439
v 32.303143 21.117977 24.951433
v 11.251305 4.124876 24.951439
v 11.251305 21.117977 24.951433
v 32.303143 4.124874 19.788689
v 32.303143 21.117977 19.788683
v 11.251305 4.124874 19.788689
v 11.251305 21.117977 19.788683
v -35.133148 0.000009 35.133148
v -35.133148 -0.000009 -35.133148
v 35.133148 0.000009 35.133148
v 35.133148 -0.000009 -35.133148
v -35.133148 4.124879 35.133148
v 35.133148 4.124879 35.133148
v 35.133148 4.124861 -35.133148
v -35.133148 4.124861 -35.133148
vn -0.0000 -0.0000 -1.0000
vn -0.0000 1.0000 -0.0000
vn 1.0000 -0.0000 -0.0000
vn -0.0000 -0.0000 1.0000
vn -1.0000 -0.0000 -0.0000
vn -0.7071 -0.0000 0.7071
vn 0.7071 -0.0000 -0.7071
vn -0.0000 -1.0000 -0.0000
vt 0.720266 0.091787
vt 0.720266 0.318587
vt 0.667545 0.318587
vt 0.667545 0.091787
vt 0.108510 0.631425
vt 0.103955 0.646358
vt 0.093407 0.646358
vt 0.093407 0.631425
vt 0.800349 0.092477
vt 0.800349 0.319169
vt 0.735569 0.319169
vt 0.735569 0.092477
vt 0.668251 0.319169
vt 0.668251 0.092477
vt 0.770186 0.091787
vt 0.770186 0.318587
vt 0.296893 0.258200
vt 0.296893 0.078200
vt 0.393713 0.078200
vt 0.393713 0.258200
vt 0.318175 0.078200
vt 0.318175 0.258200
vt 0.225995 0.258200
vt 0.225995 0.078200
vt 0.092595 0.630533
vt 0.109322 0.630533
vt 0.109322 0.647250
vt 0.092595 0.643575
vt 0.631121 0.076569
vt 0.631121 0.204551
vt 0.500283 0.204551
vt 0.500283 0.076569
vt 0.638498 0.083587
vt 0.638498 0.211569
vt 0.489227 0.211569
vt 0.489227 0.083587
vt 0.631121 0.218587
vt 0.496604 0.218587
vt 0.496604 0.076569
vt 0.088409 0.628426
vt 0.113508 0.628426
vt 0.113508 0.649357
vt 0.088409 0.649357
vt 0.721546 0.426146
vt 0.721546 0.106567
vt 0.799294 0.106567
vt 0.799294 0.426146
vt 0.677043 0.426146
vt 0.677043 0.106567
vt 0.093348 0.634287
vt 0.108569 0.634287
vt 0.108569 0.643496
vt 0.093348 0.643496
vt 1.000000 0.102828
vt 1.000000 0.300809
vt 0.932015 0.300809
vt 0.932015 0.102828
vt 0.959985 0.300809
vt 0.959985 0.102828
vt 0.919971 0.300809
vt 0.919971 0.102828
vt 0.094906 0.642281
vt 0.094906 0.635502
vt 0.107011 0.635502
vt 0.107011 0.642281
vt 0.548765 0.070822
vt 0.548765 0.207290
vt 0.507284 0.207290
vt 0.507284 0.070822
vt 0.108084 0.631175
vt 0.102767 0.646608
vt 0.093833 0.646608
vt 0.093833 0.631175
vt 0.623209 0.070822
vt 0.623209 0.207290
vt 0.568993 0.207290
vt 0.568993 0.070822
vt 0.582753 0.070822
vt 0.582753 0.207290
vt 1.000000 0.114100
vt 1.000000 0.306886
vt 0.948509 0.306886
vt 0.948509 0.114100
vt 0.946491 0.306887
vt 0.946491 0.114100
vt 0.946491 0.306886
vt 0.107031 0.644451
vt 0.094886 0.644451
vt 0.094886 0.633332
vt 0.107031 0.633332
vt 0.112945 0.102633
vt 0.112945 0.302633
vt 0.067093 0.302633
vt 0.067093 0.102633
vt 0.162390 0.102633
vt 0.162390 0.302633
vt 0.114742 0.302633
vt 0.114742 0.102633
vt 0.158798 0.102633
vt 0.158798 0.302633
vt 0.725585 0.183303
vt 0.725585 0.393303
vt 0.677545 0.393303
vt 0.677545 0.183303
vt 0.766743 0.173654
vt 0.766743 0.373654
vt 0.723255 0.373654
vt 0.723255 0.173654
vt 0.105562 0.630064
vt 0.109887 0.634179
vt 0.109887 0.647719
vt 0.096350 0.647719
vt 0.092030 0.643609
vt 0.092030 0.630064
vt 0.771265 0.183303
vt 0.771265 0.393303
vt 0.791882 0.183303
vt 0.791882 0.393303
vt 0.723255 0.373653
vt 0.677519 0.373653
vt 0.677519 0.173654
vt 0.786401 0.173654
vt 0.786401 0.373654
vt 0.401612 0.074940
vt 0.401612 0.248726
vt 0.312688 0.248726
vt 0.312688 0.074940
vt 0.352790 0.074940
vt 0.352790 0.248726
vt 0.321714 0.248726
vt 0.321714 0.074940
vt 0.383865 0.074940
vt 0.383865 0.248726
vt 0.111152 0.635502
vt 0.111152 0.642281
vt 0.090765 0.642281
vt 0.090765 0.635502
vt 0.802065 0.124692
vt 0.802065 0.383682
vt 0.731694 0.383682
vt 0.731694 0.124692
vt 0.785170 0.124692
vt 0.785170 0.383682
vt 0.726746 0.383682
vt 0.726746 0.124692
vt 0.108510 0.633865
vt 0.108510 0.646358
vt 0.665565 0.383682
vt 0.665565 0.124692
vt 0.496603 0.222444
vt 0.496603 0.071221
vt 0.572433 0.071221
vt 0.572433 0.222444
vt 0.609450 0.071221
vt 0.609450 0.222444
vt 0.648264 0.071221
vt 0.648264 0.222444
vt 0.535417 0.222444
vt 0.535417 0.071221
vt 0.096708 0.630606
vt 0.105209 0.630606
vt 0.105209 0.647177
vt 0.096708 0.647177
vt 0.707306 0.123174
vt 0.707306 0.283174
vt 0.664571 0.283174
vt 0.664571 0.123174
vt 0.789132 0.123174
vt 0.789132 0.283174
vt 0.805204 0.123174
vt 0.805204 0.283174
vt 0.083925 0.633332
vt 0.117992 0.633332
vt 0.117992 0.644451
vt 0.083925 0.641978
vt 0.760826 0.123174
vt 0.760826 0.283174
vt 0.727597 0.283174
vt 0.727597 0.123174
vt 0.637760 0.068736
vt 0.637760 0.218736
vt 0.500740 0.218736
vt 0.500740 0.068736
vt 0.566300 0.068736
vt 0.566300 0.218736
vt 0.539621 0.218736
vt 0.539621 0.068736
vt 0.592979 0.068736
vt 0.592979 0.218736
vt 0.116241 0.636060
vt 0.116241 0.641723
vt 0.085676 0.641723
vt 0.085676 0.636060
vt 0.573586 0.065900
vt 0.573586 0.250672
vt 0.517975 0.250672
vt 0.517975 0.065900
vt 0.571408 0.065900
vt 0.571408 0.250672
vt 0.513618 0.250672
vt 0.513618 0.065900
vt 0.629197 0.065900
vt 0.629197 0.250672
vt 0.667140 0.366344
vt 0.667140 0.202785
vt 0.730152 0.202785
vt 0.730152 0.366344
vt 0.726418 0.202785
vt 0.726418 0.366344
vt 0.769930 0.202785
vt 0.769930 0.366344
vt 0.087610 0.646541
vt 0.087610 0.631242
vt 0.114307 0.631242
vt 0.106928 0.646541
vt 0.801368 0.202785
vt 0.801368 0.366344
vt 0.626255 0.211137
vt 0.496655 0.211137
vt 0.496655 0.076880
vt 0.626255 0.076880
vt 0.601394 0.211137
vt 0.601394 0.087834
vt 0.613825 0.087834
vt 0.613825 0.211137
vt 0.626255 0.087834
vt 0.102967 0.660582
vt 0.098950 0.660582
vt 0.098950 0.617201
vt 0.102967 0.617201
vt 0.670978 0.350576
vt 0.670978 0.121963
vt 0.779890 0.121963
vt 0.779890 0.350576
vt 0.715194 0.121963
vt 0.715194 0.350576
vt 0.751702 0.121963
vt 0.751702 0.350576
vt 0.105190 0.648808
vt 0.096727 0.648808
vt 0.096727 0.628974
vt 0.105190 0.632568
vt 0.760160 0.121963
vt 0.760160 0.350576
vt 0.312075 0.066729
vt 0.312075 0.266729
vt 0.270184 0.266729
vt 0.270184 0.066729
vt 0.226652 0.266729
vt 0.226652 0.066729
vt 0.352206 0.066729
vt 0.352206 0.266729
vt 0.094886 0.643549
vt 0.390696 0.066729
vt 0.390696 0.266729
vt 0.800495 0.104310
vt 0.800495 0.339553
vt 0.735114 0.339553
vt 0.735114 0.104310
vt 0.767742 0.104310
vt 0.767742 0.339553
vt 0.718738 0.339553
vt 0.718738 0.104310
vt 0.093833 0.643212
vt 0.108084 0.646608
vt 0.660698 0.339553
vt 0.660698 0.104310
vt 0.620874 0.076148
vt 0.620874 0.230133
vt 0.567997 0.230133
vt 0.567997 0.076148
vt 0.546241 0.076148
vt 0.546241 0.230133
vt 0.515119 0.230133
vt 0.515119 0.076148
vt 0.577364 0.076148
vt 0.577364 0.230133
vt 0.059662 0.330221
vt 0.059662 0.092459
vt 0.181962 0.092459
vt 0.181962 0.330221
vt 0.179063 0.092459
vt 0.179063 0.330221
vt 0.119362 0.330221
vt 0.119362 0.092459
vt 0.642847 0.064625
vt 0.642847 0.166866
vt 0.498054 0.166866
vt 0.498053 0.064625
vt 0.542191 0.179758
vt 0.542191 0.264959
vt 0.518697 0.264959
vt 0.518697 0.179758
vt 0.495204 0.264959
vt 0.495204 0.179758
vt 0.919363 0.263841
vt 0.919363 0.107074
vt 1.000000 0.107074
vt 1.000000 0.263841
vt 0.960637 0.107074
vt 0.960637 0.263841
vt 0.921274 0.263841
vt 0.921274 0.107074
vt 1.000000 0.263840
vt 0.960637 0.263840
vt 0.131599 0.087477
vt 0.131599 0.219330
vt 0.084950 0.219330
vt 0.084950 0.087477
vt 0.058237 0.219330
vt 0.058236 0.087477
vt 0.131588 0.087477
vt 0.131588 0.219330
vt 0.178248 0.087477
vt 0.178248 0.219330
vt 0.204939 0.087477
vt 0.204939 0.219330
vt 0.642743 0.232748
vt 0.501903 0.232748
vt 0.501903 0.066746
vt 0.642743 0.066746
vt 0.572370 0.069092
vt 0.572370 0.229890
vt 0.521023 0.229890
vt 0.521023 0.069092
vt 0.623717 0.069092
vt 0.623717 0.229890
vt 0.086433 0.642281
vt 0.086433 0.635502
vt 0.115483 0.635502
vt 0.115483 0.642281
vt 0.131714 0.811938
vt 0.126003 0.811938
vt 0.126003 0.714660
vt 0.131714 0.714660
vt 0.137425 0.811938
vt 0.137425 0.714660
vt 0.143135 0.811938
vt 0.143135 0.714660
vt 0.148846 0.811938
vt 0.148846 0.714660
vt 0.028726 0.811938
vt 0.028726 0.714660
vt 0.168083 0.840181
vt 0.168083 0.994302
vt 0.005009 0.994303
vt 0.005009 0.840181
s 0
f 7/1/1 8/2/1 6/3/1 5/4/1
f 6/5/2 8/6/2 2/7/2 4/8/2
f 5/9/3 6/10/3 4/11/3 3/12/3
f 3/12/4 4/11/4 2/13/4 1/14/4
f 1/15/5 2/16/5 8/2/5 7/1/5
f 9/17/5 10/18/5 12/19/5 11/20/5
f 11/21/1 12/22/1 14/23/1 13/24/1
f 15/18/4 16/17/4 10/23/4 9/24/4
f 14/25/2 12/26/2 10/27/2 16/28/2
f 13/22/3 14/21/3 16/19/3 15/20/3
f 17/29/5 18/30/5 20/31/5 19/32/5
f 19/33/1 20/34/1 24/35/1 23/36/1
f 23/29/3 24/30/3 22/31/3 21/32/3
f 21/37/4 22/38/4 18/39/4 17/29/4
f 24/40/2 20/41/2 18/42/2 22/43/2
f 25/44/5 26/45/5 28/46/5 27/47/5
f 27/48/1 28/49/1 32/46/1 31/47/1
f 31/44/3 32/45/3 30/46/3 29/47/3
f 29/48/4 30/49/4 26/46/4 25/47/4
f 32/50/2 28/51/2 26/52/2 30/53/2
f 33/54/5 34/55/5 36/56/5 35/57/5
f 35/54/1 36/55/1 40/58/1 39/59/1
f 39/54/3 40/55/3 38/56/3 37/57/3
f 37/59/4 38/58/4 34/60/4 33/61/4
f 40/62/2 36/63/2 34/64/2 38/65/2
f 47/66/1 48/67/1 46/68/1 45/69/1
f 46/70/2 48/71/2 42/72/2 44/73/2
f 45/74/3 46/75/3 44/76/3 43/77/3
f 43/77/4 44/76/4 42/68/4 41/69/4
f 41/78/5 42/79/5 48/67/5 47/66/5
f 49/80/5 50/81/5 52/82/5 51/83/5
f 51/80/1 52/81/1 56/84/1 55/85/1
f 55/80/3 56/81/3 54/82/3 53/83/3
f 53/80/4 54/81/4 50/86/4 49/85/4
f 56/87/2 52/88/2 50/89/2 54/90/2
f 57/91/5 58/92/5 60/93/5 59/94/5
f 59/95/1 60/96/1 64/97/1 63/98/1
f 63/99/3 64/100/3 62/92/3 61/91/3
f 61/98/4 62/97/4 58/93/4 57/94/4
f 64/89/2 60/90/2 58/87/2 62/88/2
f 67/101/4 68/102/4 72/103/4 69/104/4
f 74/105/3 75/106/3 68/107/3 67/108/3
f 75/109/2 76/110/2 66/111/2 71/112/2 72/113/2 68/114/2
f 70/115/5 71/116/5 66/102/5 65/101/5
f 69/117/6 72/118/6 71/116/6 70/115/6
f 65/108/1 66/119/1 76/120/1 73/121/1
f 75/106/7 74/105/7 73/122/7 76/123/7
f 77/124/4 78/125/4 80/126/4 79/127/4
f 79/128/5 80/129/5 84/130/5 83/131/5
f 83/124/1 84/125/1 82/126/1 81/127/1
f 81/132/3 82/133/3 78/129/3 77/128/3
f 84/134/2 80/135/2 78/136/2 82/137/2
f 85/138/5 86/139/5 88/140/5 87/141/5
f 91/142/3 92/143/3 90/144/3 89/145/3
f 92/146/2 88/147/2 86/7/2 90/8/2
f 89/141/4 90/140/4 86/148/4 85/149/4
f 87/145/1 88/144/1 92/148/1 91/149/1
f 93/150/5 94/151/5 96/152/5 95/153/5
f 95/154/1 96/155/1 100/153/1 99/152/1
f 99/156/3 100/157/3 98/153/3 97/152/3
f 97/152/4 98/153/4 94/158/4 93/159/4
f 100/160/2 96/161/2 94/162/2 98/163/2
f 101/164/5 102/165/5 104/166/5 103/167/5
f 103/166/1 104/167/1 106/168/1 105/169/1
f 107/170/4 108/171/4 102/165/4 101/164/4
f 106/172/2 104/173/2 102/174/2 108/175/2
f 105/176/3 106/177/3 108/178/3 107/179/3
f 109/180/4 110/181/4 112/182/4 111/183/4
f 111/184/5 112/185/5 116/186/5 115/187/5
f 115/180/1 116/181/1 114/182/1 113/183/1
f 113/188/3 114/189/3 110/185/3 109/184/3
f 116/190/2 112/191/2 110/192/2 114/193/2
f 117/194/5 118/195/5 120/196/5 119/197/5
f 119/198/1 120/199/1 124/200/1 123/201/1
f 123/202/3 124/203/3 122/195/3 121/194/3
f 121/202/4 122/203/4 118/199/4 117/198/4
f 124/89/2 120/90/2 118/87/2 122/88/2
f 125/204/5 126/205/5 128/206/5 127/207/5
f 127/208/1 128/209/1 130/204/1 129/205/1
f 131/210/4 132/211/4 126/209/4 125/208/4
f 130/212/2 128/213/2 126/214/2 132/215/2
f 129/216/3 130/217/3 132/207/3 131/206/3
f 133/218/4 134/219/4 136/220/4 135/221/4
f 135/222/5 136/223/5 140/224/5 139/225/5
f 139/220/1 140/221/1 138/218/1 137/219/1
f 137/225/3 138/224/3 134/226/3 133/218/3
f 140/227/2 136/228/2 134/229/2 138/230/2
f 141/231/5 142/232/5 144/233/5 143/234/5
f 143/235/1 144/236/1 146/231/1 145/232/1
f 147/237/4 148/238/4 142/236/4 141/235/4
f 146/239/2 144/240/2 142/241/2 148/242/2
f 145/243/3 146/244/3 148/231/3 147/232/3
f 149/245/5 150/246/5 152/247/5 151/248/5
f 151/248/1 152/247/1 154/249/1 153/250/1
f 155/251/4 156/252/4 150/246/4 149/245/4
f 154/89/2 152/90/2 150/87/2 156/253/2
f 153/254/3 154/255/3 156/252/3 155/251/3
f 157/256/5 158/257/5 160/258/5 159/259/5
f 163/260/3 164/261/3 162/262/3 161/263/3
f 164/264/2 160/73/2 158/70/2 162/265/2
f 161/259/4 162/258/4 158/266/4 157/267/4
f 159/263/1 160/262/1 164/266/1 163/267/1
f 165/268/5 166/269/5 168/270/5 167/271/5
f 167/272/1 168/273/1 172/274/1 171/275/1
f 171/271/3 172/270/3 170/274/3 169/275/3
f 169/276/4 170/277/4 166/273/4 165/272/4
f 172/62/2 168/63/2 166/64/2 170/65/2
f 173/278/5 174/279/5 176/280/5 175/281/5
f 175/282/1 176/283/1 180/284/1 179/285/1
f 179/280/3 180/281/3 178/278/3 177/279/3
f 177/285/4 178/284/4 174/278/4 173/279/4
f 180/160/2 176/161/2 174/162/2 178/163/2
f 181/286/4 182/287/4 184/288/4 183/289/4
f 183/290/5 184/291/5 188/292/5 187/293/5
f 187/286/1 188/287/1 186/288/1 185/289/1
f 185/293/3 186/292/3 182/294/3 181/295/3
f 188/190/2 184/191/2 182/192/2 186/193/2
f 189/296/1 190/297/1 192/298/1 191/299/1
f 191/300/3 192/301/3 196/302/3 195/303/3
f 195/298/4 196/299/4 194/296/4 193/297/4
f 193/298/5 194/304/5 190/305/5 189/300/5
f 196/160/2 192/161/2 190/162/2 194/163/2
f 197/306/5 198/307/5 200/308/5 199/309/5
f 199/310/1 200/311/1 204/312/1 203/313/1
f 203/314/3 204/315/3 202/307/3 201/306/3
f 201/316/4 202/317/4 198/313/4 197/312/4
f 204/52/2 200/53/2 198/50/2 202/51/2
f 205/318/4 206/319/4 208/320/4 207/321/4
f 207/322/5 208/323/5 212/324/5 211/325/5
f 211/318/1 212/319/1 210/320/1 209/321/1
f 209/326/3 210/327/3 206/323/3 205/322/3
f 212/328/2 208/329/2 206/330/2 210/331/2
f 214/332/1 220/333/1 219/334/1 216/335/1
f 215/336/4 218/332/4 217/335/4 213/337/4
f 216/338/3 219/336/3 218/337/3 215/339/3
f 213/340/5 217/338/5 220/339/5 214/341/5
f 214/334/8 216/333/8 215/342/8 213/343/8
f 220/344/2 217/345/2 218/346/2 219/347/2
