# Blender v3.4.1 OBJ File: '_PSX MODELS.blend'
# www.blender.org
mtllib AdWindow.mtl
o AdWindow_Cube.086
v 0.000000 1.135386 -2.564412
v 0.000000 -1.095268 -2.564412
v 0.000000 1.135387 2.564411
v 0.000000 -1.095267 2.564412
v 0.000000 0.850000 2.300000
v 0.000000 -0.850000 2.300000
v 0.000000 -0.850000 -2.300000
v 0.000000 0.850000 -2.300000
v -0.700000 -0.550000 2.300000
v -0.700000 1.150000 2.300000
v -0.700000 1.149999 -2.300000
v -0.700000 -0.550000 -2.300000
vt 1.000000 0.460784
vt 1.000000 0.088235
vt 0.882812 0.000000
vt 0.882812 0.382353
vt 0.000000 1.000000
vt 0.000000 0.460784
vt 0.054688 0.519608
vt 0.054688 0.931373
vt 1.000000 0.460784
vt 0.945312 0.519608
vt 1.000000 1.000000
vt 0.945312 0.931373
vt 0.117188 0.892157
vt 0.117188 0.549020
vt 0.882812 0.549020
vt 0.882812 0.892157
vt 0.000000 0.147059
vt 0.765625 0.147059
vt 0.765625 0.303922
vt 0.000000 0.303922
vt 0.000000 0.303922
vt 0.765625 0.303922
vt 0.765625 0.460784
vt 0.000000 0.460784
vt 0.882812 0.382353
vt 0.882812 0.000000
vt 1.000000 0.088235
vt 1.000000 0.460784
vn 0.9707 0.0000 0.2402
vn 0.9222 0.0000 0.3866
vn 0.0000 0.0000 1.0000
vn 1.0000 0.0000 0.0000
vn 0.9707 -0.0000 -0.2402
vn 0.9222 -0.0000 -0.3866
vn -0.3939 -0.9191 0.0000
vn 0.3939 0.9191 -0.0000
vn -0.0000 -0.0000 -1.0000
usemtl Material.013
s 1
f 7/1/1 8/2/2 11/3/3 12/4/3
f 3/5/4 4/6/4 6/7/5 5/8/6
f 4/6/4 2/9/4 7/10/1 6/7/5
f 2/9/4 1/11/4 8/12/2 7/10/1
f 1/11/4 3/5/4 5/8/6 8/12/2
f 10/13/4 9/14/4 12/15/4 11/16/4
f 8/17/7 5/18/7 10/19/7 11/20/7
f 6/21/8 7/22/8 12/23/8 9/24/8
f 5/25/6 6/26/5 9/27/9 10/28/9
