# Blender v3.4.1 OBJ File: '_PSX MODELS.blend'
# www.blender.org
mtllib BookShits2.mtl
o BookOpen_bbooks.002
v 0.029411 0.023706 -0.870414
v 0.029411 0.023706 -0.030414
v 1.371203 0.023706 -0.870414
v 1.400307 0.003706 -0.000414
v 0.000307 0.003706 -0.900414
v 0.000307 0.003706 -0.000414
v 1.400307 0.003706 -0.900414
v 1.371203 0.023706 -0.030414
v 1.000307 0.116430 -0.870414
v 0.700307 0.066430 -0.870414
v 0.400308 0.116430 -0.870414
v 0.700307 0.066430 -0.030414
v 1.000307 0.116430 -0.030414
v 0.400308 0.116430 -0.030414
vt 0.765625 0.921875
vt 0.203125 0.921875
vt 0.187500 0.937500
vt 0.781250 0.937500
vt 0.296875 0.921875
vt 0.640625 0.921875
vt 0.671875 0.937500
vt 0.281250 0.937500
vt 0.203125 0.921875
vt 0.765625 0.921875
vt 0.781250 0.937500
vt 0.187500 0.937500
vt 0.312500 0.921875
vt 0.656250 0.921875
vt 0.671875 0.937500
vt 0.281250 0.937500
vt 0.796875 0.000000
vt 0.796875 0.421875
vt 0.593750 0.421875
vt 0.593750 0.000000
vt 0.437500 0.421875
vt 0.437500 0.000000
vt 0.796875 0.421875
vt 0.796875 0.843750
vt 0.640625 0.843750
vt 0.640625 0.421875
vt 0.437500 0.843750
vt 0.437500 0.421875
vt 0.437500 0.687500
vt 0.000000 0.687500
vt 0.000000 0.000000
vt 0.437500 0.000000
vt 0.937500 0.281250
vt 1.000000 0.000000
vt 0.968750 0.500000
vt 1.000000 1.000000
vt 0.937500 0.734375
vt 0.937500 0.734375
vt 0.968750 0.500000
vt 1.000000 1.000000
vt 1.000000 0.000000
vt 0.937500 0.281250
vn -0.1580 0.9569 -0.2438
vn 0.2715 0.9353 -0.2267
vn 0.2321 0.8769 -0.4208
vn 0.3459 -0.2119 -0.9140
vn -0.2052 0.9532 0.2221
vn 0.1109 -0.2245 0.9681
vn -0.0243 0.9203 0.3904
vn 0.4005 0.9154 0.0392
vn 0.2306 0.9730 -0.0000
vn 0.2301 0.9732 -0.0000
vn 0.1083 0.9223 -0.3709
vn -0.2134 0.9759 0.0449
vn -0.1082 0.9223 0.3709
vn 0.2134 0.9759 -0.0448
vn -0.2164 0.9763 -0.0000
vn -0.2169 0.9762 -0.0000
vn 0.2425 0.9701 -0.0000
vn 0.0000 -1.0000 0.0000
vn 0.0000 0.0000 -1.0000
vn 0.0000 0.0000 1.0000
usemtl Lit
s 1
f 1/1/1 3/2/2 7/3/3 5/4/4
f 2/5/5 1/6/1 5/7/4 6/8/6
f 8/9/7 2/10/5 6/11/6 4/12/8
f 3/13/2 8/14/7 4/15/8 7/16/3
f 1/17/1 2/18/5 14/19/9
f 14/19/9 11/20/10 1/17/1
f 11/20/10 14/19/9 12/21/11
f 12/21/11 10/22/12 11/20/10
f 10/23/13 12/24/14 13/25/15
f 13/25/15 9/26/16 10/23/13
f 9/26/16 13/25/15 8/27/17
f 8/27/17 3/28/17 9/26/16
f 7/29/18 4/30/18 6/31/6 5/32/4
f 9/33/19 3/34/19 10/35/19
f 10/35/19 3/34/19 1/36/19
f 10/35/19 1/36/19 11/37/19
f 13/38/20 12/39/20 8/40/20
f 12/39/20 2/41/20 8/40/20
f 12/39/20 14/42/20 2/41/20
