# Blender 4.0.1
# www.blender.org
o FireEscape
v 1.833488 2.873152 -4.219922
v 1.679919 1.868205 -4.216407
v 1.679919 2.873260 -4.220320
v -0.064565 2.873260 -4.220320
v -0.064565 1.868205 -4.216407
v -0.218133 2.873152 -4.219922
v 1.833487 -6.345198 2.547105
v 1.833487 -7.350250 2.547105
v 1.679919 -7.350143 2.546708
v 1.679919 -6.345087 2.546708
v -0.064567 -6.345091 2.546707
v -0.064565 -7.350143 2.546708
v -0.218133 -7.350250 2.547105
v -0.218133 -6.345198 2.547105
v 1.833487 1.868097 -4.216010
v -0.218133 1.868097 -4.216010
v -0.064566 1.724239 -3.484131
v -0.064566 1.870956 -3.484131
v -0.064566 1.724239 -4.110392
v -0.064566 1.870956 -4.110392
v 1.679920 1.724239 -3.484131
v 1.679920 1.870956 -3.484131
v 1.679920 1.724239 -4.110392
v 1.679920 1.870956 -4.110392
v 1.679920 1.137371 -3.567334
v 1.679920 0.990654 -3.567334
v 1.679920 1.137371 -2.941073
v 1.679920 0.990654 -2.941073
v -0.064566 1.137371 -3.567333
v -0.064566 0.990654 -3.567333
v -0.064566 1.137371 -2.941072
v -0.064566 0.990654 -2.941072
v 1.679920 0.403786 -3.033225
v 1.679920 0.257069 -3.033225
v 1.679920 0.403786 -2.406964
v 1.679920 0.257069 -2.406964
v -0.064566 0.403786 -3.033224
v -0.064566 0.257069 -3.033224
v -0.064566 0.403786 -2.406963
v -0.064566 0.257069 -2.406963
v 1.679920 -0.329800 -2.494640
v 1.679920 -0.476517 -2.494640
v 1.679920 -0.329800 -1.868379
v 1.679920 -0.476517 -1.868379
v -0.064566 -0.329800 -2.494639
v -0.064566 -0.476517 -2.494639
v -0.064566 -0.329800 -1.868379
v -0.064566 -0.476517 -1.868379
v 1.679920 -1.063385 -1.956055
v 1.679920 -1.210102 -1.956055
v 1.679920 -1.063385 -1.329794
v 1.679920 -1.210102 -1.329794
v -0.064566 -1.063385 -1.956055
v -0.064566 -1.210102 -1.956055
v -0.064566 -1.063385 -1.329794
v -0.064566 -1.210102 -1.329794
v 1.679920 -1.796969 -1.417470
v 1.679920 -1.943686 -1.417470
v 1.679920 -1.796969 -0.791210
v 1.679920 -1.943686 -0.791210
v -0.064566 -1.796969 -1.417470
v -0.064566 -1.943686 -1.417470
v -0.064567 -1.796969 -0.791210
v -0.064567 -1.943686 -0.791210
v 1.679920 -2.530554 -0.878887
v 1.679920 -2.677271 -0.878887
v 1.679920 -2.530554 -0.252626
v 1.679920 -2.677271 -0.252626
v -0.064566 -2.530554 -0.878886
v -0.064566 -2.677271 -0.878886
v -0.064566 -2.530554 -0.252626
v -0.064566 -2.677271 -0.252626
v 1.679919 -3.256681 -0.335828
v 1.679919 -3.403399 -0.335828
v 1.679919 -3.256681 0.290432
v 1.679919 -3.403399 0.290432
v -0.064567 -3.256681 -0.335828
v -0.064567 -3.403399 -0.335828
v -0.064567 -3.256681 0.290432
v -0.064567 -3.403399 0.290432
v 1.679919 -3.997725 0.198281
v 1.679919 -4.144442 0.198281
v 1.679920 -3.997725 0.824542
v 1.679920 -4.144442 0.824542
v -0.064567 -3.997725 0.198282
v -0.064567 -4.144442 0.198282
v -0.064567 -3.997725 0.824543
v -0.064567 -4.144442 0.824543
v 1.679919 -4.723852 0.741340
v 1.679919 -4.870569 0.741340
v 1.679919 -4.723852 1.367601
v 1.679919 -4.870569 1.367601
v -0.064567 -4.723852 0.741340
v -0.064567 -4.870569 0.741340
v -0.064567 -4.723852 1.367601
v -0.064567 -4.870569 1.367601
v 1.679919 -5.464895 1.275450
v 1.679919 -5.611612 1.275450
v 1.679919 -5.464895 1.901711
v 1.679919 -5.611612 1.901711
v -0.064567 -5.464895 1.275450
v -0.064567 -5.611612 1.275450
v -0.064567 -5.464895 1.901711
v -0.064567 -5.611612 1.901711
v 1.679919 -6.198481 1.814034
v 1.679919 -6.345198 1.814034
v 1.679919 -6.198481 2.440295
v 1.679919 -6.345198 2.440295
v -0.064567 -6.198481 1.814034
v -0.064567 -6.345198 1.814034
v -0.064567 -6.198481 2.440295
v -0.064567 -6.345198 2.440295
v 1.833487 2.873152 -4.373488
v 1.833487 2.873152 5.793186
v -2.118616 2.873152 -6.334202
v -0.353579 2.873152 -4.373488
v -2.118613 2.873152 5.793186
v -0.353577 1.868097 2.700670
v -0.353577 2.873152 2.700670
v -0.353579 1.868097 -4.373488
v 1.833487 1.868097 2.547105
v 1.833487 2.873152 2.547105
v 1.833487 1.868097 -4.216010
v -2.272183 1.868097 -6.487769
v -2.272181 1.868097 6.000000
v -2.272180 2.873152 6.000000
v -2.272183 2.873152 -6.487769
v 1.833487 1.868097 -6.487769
v 1.833487 2.873152 -6.487769
v 1.833488 1.868097 6.000000
v 1.833488 2.873152 6.000000
v 1.987057 1.868097 5.999996
v 1.987054 1.868097 -6.487767
v 1.987054 2.873152 -6.487767
v 1.987057 2.873152 5.999996
v 1.833487 1.868097 -6.334202
v -2.118616 1.868097 -6.334202
v -2.118613 1.868097 5.793187
v 1.833487 2.873152 -6.334202
v 1.833487 1.868097 5.793186
v -0.218133 1.868097 -4.216010
v -0.218131 1.868097 2.547105
v -0.218130 2.873152 2.547105
v -0.218133 2.873152 -4.219923
v 1.833487 1.868097 -4.373488
v 1.833487 1.868097 2.700669
v 1.833487 2.873152 2.700669
v 1.833487 2.873154 -4.219923
v 2.270639 11.904427 -10.072462
v 2.270635 0.124707 -10.072475
v 2.270639 11.904427 -9.985989
v 2.270635 0.124705 -9.986004
v 2.554224 11.904427 -10.072462
v 2.554219 0.124705 -10.072475
v 2.554224 11.904423 -9.985989
v 2.554219 0.124703 -9.986004
v 1.987059 12.171089 -10.230558
v 1.987054 0.391370 -10.230572
v 1.987059 12.171089 -10.076992
v 1.987054 0.391368 -10.077005
v 2.270643 12.171089 -10.230558
v 2.270639 0.391368 -10.230572
v 2.270643 12.171085 -10.076992
v 2.270639 0.391366 -10.077005
v 1.987059 12.168850 -8.423424
v 1.987054 0.389130 -8.423439
v 1.987058 12.168846 -8.269857
v 1.987054 0.389128 -8.269873
v 2.270643 12.168846 -8.423424
v 2.270639 0.389128 -8.423439
v 2.270643 12.168846 -8.269857
v 2.270639 0.389126 -8.269873
v 2.270639 11.904427 -8.509911
v 2.270634 0.124707 -8.509926
v 2.270639 11.904427 -8.423439
v 2.270634 0.124705 -8.423452
v 2.554224 11.904427 -8.509911
v 2.554219 0.124705 -8.509926
v 2.554224 11.904423 -8.423439
v 2.554219 0.124703 -8.423452
v 2.270639 0.124705 -10.155058
v 2.270639 -0.004310 -10.153301
v 2.270639 0.124705 -8.336456
v 2.270639 -0.004310 -8.334700
v 2.716692 0.124705 -10.155058
v 2.716692 -0.004310 -10.153301
v 2.716692 0.124705 -8.336456
v 2.716692 -0.004310 -8.334700
vn 0.8476 0.3140 0.4277
vn 0.3702 0.5497 0.7489
vn -0.3737 0.5489 0.7477
vn -0.8475 0.3141 0.4279
vn 0.3755 -0.5482 -0.7473
vn 0.8479 -0.3136 -0.4275
vn -0.3720 -0.5491 -0.7484
vn -0.8480 -0.3135 -0.4273
vn -0.8476 0.3140 0.4278
vn 0.8475 0.3141 0.4279
vn 0.3737 0.5489 0.7477
vn -0.3701 0.5497 0.7489
vn -0.3755 -0.5482 -0.7473
vn -0.8479 -0.3136 -0.4275
vn 0.3720 -0.5491 -0.7484
vn 0.8480 -0.3135 -0.4273
vn -0.0000 0.7071 -0.7071
vn -0.0000 0.7071 0.7071
vn -0.0000 -0.7071 -0.7071
vn -0.0000 -0.7071 0.7071
vn 0.3015 0.9045 -0.3015
vn 0.3015 -0.9045 -0.3015
vn -0.0000 0.7085 0.7057
vn 0.3005 0.9050 0.3013
vn 0.3025 -0.9041 0.3018
vn -0.0000 -0.7057 0.7085
vn 0.5773 0.5774 -0.5773
vn 0.5773 0.5774 0.5773
vn 0.5773 -0.5774 0.5773
vn 0.5774 -0.5774 -0.5773
vn -0.0000 1.0000 -0.0000
vn -0.0000 -1.0000 -0.0000
vn -0.5774 -0.5773 -0.5773
vn -0.5773 0.5774 -0.5774
vn -0.5773 0.5774 0.5774
vn -0.5774 -0.5774 0.5774
vn -0.0000 -0.0000 1.0000
vn -0.7071 -0.0000 0.7071
vn -0.7071 -0.0000 -0.7071
vn 0.7071 -0.0000 -0.7071
vn 0.7071 -0.0000 0.7071
vn -0.0000 -0.0000 -1.0000
vn -1.0000 -0.0000 -0.0000
vn 1.0000 -0.0000 -0.0000
vn -0.0000 0.0136 0.9999
vn -0.0000 -0.0136 -0.9999
vt 0.929688 0.828125
vt 0.929688 0.007812
vt 0.945312 0.007812
vt 0.945312 0.828125
vt 0.953125 0.882812
vt 0.953125 0.070312
vt 1.000000 0.007812
vt 1.000000 0.828125
vt 0.937500 0.828125
vt 0.937500 0.007812
vt 0.953125 0.007812
vt 0.953125 0.828125
vt 0.890625 0.070312
vt 0.890625 0.882812
vt 0.796875 0.000000
vt 0.796875 0.273438
vt 0.710938 0.273438
vt 0.710938 0.000000
vt 0.812500 0.273438
vt 0.812500 0.000000
vt 0.335938 0.820312
vt 0.335938 0.671875
vt 0.406250 0.671875
vt 0.406250 0.820312
vt 0.593750 0.726562
vt 0.593750 0.578125
vt 0.671875 0.578125
vt 0.671875 0.726562
vt 0.429688 0.492188
vt 0.429688 0.000000
vt 0.500000 0.000000
vt 0.500000 0.492188
vt 0.078125 0.898438
vt 0.078125 0.000000
vt 0.000000 0.000000
vt 0.000000 0.898438
vt 0.187500 0.898438
vt 0.187500 0.000000
vt 0.203125 0.000000
vt 0.203125 0.898438
vt 0.132812 0.898438
vt 0.132812 0.000000
vt 0.125000 0.000000
vt 0.125000 0.898438
vt 0.000000 0.609375
vt 0.078125 0.609375
vt 0.078125 0.304688
vt 0.000000 0.304688
vt 0.078125 0.937500
vt 0.000000 0.937500
vt 0.000000 0.632812
vt 0.078125 0.632812
vt 0.101562 0.890625
vt 0.101562 0.015625
vt 0.109375 0.000000
vt 0.109375 0.898438
vt 0.250000 0.015625
vt 0.250000 0.890625
vt 0.242188 0.898438
vt 0.242188 0.000000
vt 0.585938 0.296875
vt 0.585938 0.015625
vt 0.593750 0.000000
vt 0.593750 0.296875
vt 0.593750 0.289062
vt 0.609375 0.000000
vt 0.609375 0.296875
vt 0.570312 0.296875
vt 0.570312 0.000000
vt 0.570312 0.593750
vt 0.570312 0.304688
vt 0.585938 0.593750
vt 0.429688 0.507812
vt 0.414062 0.500000
vt 0.414062 0.015625
vt 0.406250 0.507812
vt 0.406250 0.000000
vt 0.421875 0.507812
vt 0.421875 0.671875
vt 0.406250 0.523438
vt 0.593750 0.453125
vt 0.585938 0.445312
vt 0.585938 0.609375
vt 0.585938 0.453125
vt 0.593750 0.460938
vt 0.593750 0.609375
vt 0.671875 0.296875
vt 0.671875 0.453125
vt 0.664062 0.453125
vt 0.664062 0.304688
vt 0.335938 0.507812
vt 0.671875 0.000000
vt 0.671875 0.289062
vt 0.609375 0.289062
vt 0.257812 0.000000
vt 0.257812 0.875000
vt 0.187500 0.875000
vt 0.664062 0.296875
vt 0.664062 0.578125
vt 0.265625 0.000000
vt 0.328125 0.000000
vt 0.328125 0.875000
vt 0.265625 0.875000
vt 0.500000 0.648438
vt 0.429688 0.648438
vt 0.335938 0.000000
vt 0.132812 0.953125
vt 0.125000 0.953125
vt 0.093750 0.000000
vt 0.093750 0.953125
vt 0.070312 0.953125
vt 0.070312 0.000000
vt 0.117188 0.953125
vt 0.117188 0.000000
vt 0.101562 0.265625
vt 0.101562 0.226562
vt 0.117188 0.226562
vt 0.117188 0.265625
vt 0.078125 0.953125
vt 0.062500 0.953125
vt 0.062500 0.000000
vt 0.023438 0.000000
vt 0.023438 0.953125
vt 0.000000 0.953125
vt 0.046875 0.953125
vt 0.046875 0.000000
vt 0.093750 0.265625
vt 0.093750 0.226562
vt 0.460938 0.109375
vt 0.476562 0.109375
vt 0.476562 0.265625
vt 0.460938 0.265625
vt 0.117188 0.281250
vt 0.101562 0.281250
vt 0.101562 0.210938
vt 0.117188 0.210938
vt 0.476562 0.421875
vt 0.460938 0.421875
vt 0.421875 0.109375
vt 0.421875 0.265625
vt 0.507812 0.273438
vt 0.546875 0.273438
vt 0.546875 0.429688
vt 0.507812 0.429688
s 1
f 7/1/1 1/2/2 3/3/3 10/4/4
f 8/5/5 15/6/6 1/7/2 7/8/1
f 9/9/7 2/10/8 15/11/6 8/12/5
f 10/1/4 3/2/3 2/13/8 9/14/7
f 14/4/9 11/1/10 4/2/11 6/3/12
f 13/5/13 14/8/9 6/7/12 16/6/14
f 12/12/15 13/9/13 16/10/14 5/11/16
f 11/1/10 12/14/15 5/13/16 4/2/11
f 25/15/17 29/16/17 31/17/18 27/18/18
f 30/15/19 26/16/19 28/17/20 32/18/20
f 28/19/20 27/16/18 31/15/18 32/20/20
f 30/15/19 29/20/17 25/19/17 26/16/19
f 24/17/17 20/18/17 18/15/18 22/16/18
f 19/15/19 23/16/19 21/17/20 17/18/20
f 21/15/20 22/20/18 18/19/18 17/16/20
f 19/15/19 20/20/17 24/19/17 23/16/19
f 33/17/17 37/18/17 39/15/18 35/16/18
f 38/17/19 34/18/19 36/15/20 40/16/20
f 36/15/20 35/20/18 39/19/18 40/16/20
f 38/15/19 37/20/17 33/19/17 34/16/19
f 41/17/17 45/18/17 47/15/18 43/16/18
f 46/15/19 42/16/19 44/17/20 48/18/20
f 44/15/20 43/20/18 47/19/18 48/16/20
f 46/15/19 45/20/17 41/19/17 42/16/19
f 49/15/17 53/16/17 55/17/18 51/18/18
f 54/15/19 50/16/19 52/17/20 56/18/20
f 52/15/20 51/20/18 55/19/18 56/16/20
f 54/15/19 53/20/17 49/19/17 50/16/19
f 57/15/17 61/16/17 63/17/18 59/18/18
f 62/15/19 58/16/19 60/17/20 64/18/20
f 60/15/20 59/20/18 63/19/18 64/16/20
f 62/15/19 61/20/17 57/19/17 58/16/19
f 65/17/17 69/18/17 71/15/18 67/16/18
f 70/15/19 66/16/19 68/17/20 72/18/20
f 68/15/20 67/20/18 71/19/18 72/16/20
f 70/15/19 69/20/17 65/19/17 66/16/19
f 73/15/17 77/16/17 79/17/18 75/18/18
f 78/15/19 74/16/19 76/17/20 80/18/20
f 76/15/20 75/20/18 79/19/18 80/16/20
f 78/15/19 77/20/17 73/19/17 74/16/19
f 81/17/17 85/18/17 87/15/18 83/16/18
f 86/15/19 82/16/19 84/17/20 88/18/20
f 84/15/20 83/20/18 87/19/18 88/16/20
f 86/15/19 85/20/17 81/19/17 82/16/19
f 89/15/17 93/16/17 95/17/18 91/18/18
f 94/15/19 90/16/19 92/17/20 96/18/20
f 92/15/20 91/20/18 95/19/18 96/16/20
f 94/15/19 93/20/17 89/19/17 90/16/19
f 97/15/17 101/16/17 103/17/18 99/18/18
f 102/15/19 98/16/19 100/17/20 104/18/20
f 100/15/20 99/20/18 103/19/18 104/16/20
f 102/15/19 101/20/17 97/19/17 98/16/19
f 105/17/17 109/18/17 111/15/18 107/16/18
f 110/17/19 106/18/19 108/15/20 112/16/20
f 108/19/20 107/16/18 111/15/18 112/20/20
f 110/15/19 109/20/17 105/19/17 106/16/19
f 143/21/21 122/22/17 121/23/19 142/24/22
f 148/25/23 144/26/24 141/27/25 123/28/26
f 144/29/24 143/30/21 142/31/22 141/32/25
f 134/33/27 135/34/28 132/35/29 133/36/30
f 129/37/31 131/38/31 135/39/28 134/40/27
f 130/41/32 128/42/32 133/43/30 132/44/29
f 124/45/33 127/46/34 134/47/27 133/48/30
f 126/49/35 125/50/36 132/51/29 135/52/28
f 124/35/33 125/36/36 126/33/35 127/34/34
f 137/53/32 138/54/32 125/55/36 124/56/33
f 117/57/31 115/58/31 127/59/34 126/60/35
f 136/61/32 137/62/32 124/63/33 128/64/32
f 115/65/31 139/63/31 129/66/31 127/67/34
f 138/62/32 140/61/32 130/68/32 125/69/36
f 114/70/31 117/71/31 126/61/35 131/72/31
f 118/30/32 120/73/32 141/74/25 142/75/22
f 116/76/31 119/77/31 143/75/21 144/74/24
f 120/78/32 145/79/32 123/23/26 141/80/25
f 113/64/31 116/81/31 144/82/24 148/61/23
f 146/83/32 118/84/32 142/85/22 121/86/19
f 119/87/31 147/88/31 122/89/17 143/90/21
f 147/22/37 119/91/38 118/76/38 146/23/37
f 114/66/39 140/92/39 138/93/40 117/94/40
f 117/38/40 138/95/40 137/96/41 115/97/41
f 115/64/41 137/98/41 136/99/38 139/26/38
f 139/100/38 136/101/38 140/102/39 114/103/39
f 113/29/42 145/32/42 120/104/39 116/105/39
f 116/106/39 120/77/39 118/76/38 119/91/38
s 0
f 149/42/43 150/107/43 152/108/43 151/43/43
f 151/109/37 152/110/37 156/111/37 155/112/37
f 155/43/44 156/108/44 154/113/44 153/114/44
f 153/114/42 154/113/42 150/110/42 149/109/42
f 151/115/31 155/116/31 153/117/31 149/118/31
f 157/34/43 158/119/43 160/120/43 159/121/43
f 159/122/37 160/123/37 164/124/37 163/35/37
f 163/121/44 164/120/44 162/125/44 161/126/44
f 161/126/42 162/125/42 158/123/42 157/122/42
f 159/117/31 163/118/31 161/127/31 157/128/31
f 164/117/32 160/118/32 158/127/32 162/128/32
f 165/121/43 166/120/43 168/125/43 167/126/43
f 167/126/37 168/125/37 172/123/37 171/122/37
f 171/34/44 172/119/44 170/120/44 169/121/44
f 169/122/42 170/123/42 166/124/42 165/35/42
f 167/117/31 171/118/31 169/127/31 165/128/31
f 172/117/32 168/118/32 166/127/32 170/128/32
f 173/42/43 174/107/43 176/108/43 175/43/43
f 175/109/37 176/110/37 180/111/37 179/112/37
f 179/43/44 180/108/44 178/113/44 177/114/44
f 177/114/42 178/113/42 174/110/42 173/109/42
f 175/115/31 179/116/31 177/117/31 173/118/31
f 181/129/43 182/130/43 184/131/43 183/132/43
f 183/133/45 184/134/45 188/135/45 187/136/45
f 187/132/44 188/131/44 186/137/44 185/138/44
f 185/135/46 186/136/46 182/133/46 181/134/46
f 183/139/31 187/129/31 185/132/31 181/140/31
f 188/141/32 184/142/32 182/143/32 186/144/32
