# Blender 4.0.1
# www.blender.org
o FireEscapeRails
v 2.510870 0.544263 -9.986005
v 2.412428 0.642708 -9.986005
v 2.412428 0.445821 -9.986005
v 2.313984 0.544263 -9.986005
v 2.412428 0.642708 -8.509927
v 2.412428 0.445821 -8.509927
v 2.313984 0.544263 -8.509927
v 2.510870 0.544263 -8.509927
v 2.510870 1.528702 -9.986005
v 2.412428 1.627148 -9.986005
v 2.412428 1.430260 -9.986005
v 2.313984 1.528702 -9.986005
v 2.412428 1.627148 -8.509927
v 2.412428 1.430260 -8.509927
v 2.313984 1.528702 -8.509927
v 2.510870 1.528702 -8.509927
v 2.510870 2.513142 -9.986005
v 2.412428 2.611588 -9.986005
v 2.412428 2.414700 -9.986005
v 2.313984 2.513142 -9.986005
v 2.412428 2.611588 -8.509927
v 2.412428 2.414700 -8.509927
v 2.313984 2.513142 -8.509927
v 2.510870 2.513142 -8.509927
v 2.510870 3.497582 -9.986005
v 2.412428 3.596028 -9.986005
v 2.412428 3.399140 -9.986005
v 2.313984 3.497582 -9.986005
v 2.412428 3.596028 -8.509927
v 2.412428 3.399140 -8.509927
v 2.313984 3.497582 -8.509927
v 2.510870 3.497582 -8.509927
v 2.510870 4.482022 -9.986005
v 2.412428 4.580468 -9.986005
v 2.412428 4.383580 -9.986005
v 2.313984 4.482022 -9.986005
v 2.412428 4.580468 -8.509927
v 2.412428 4.383580 -8.509927
v 2.313984 4.482022 -8.509927
v 2.510870 4.482022 -8.509927
v 2.510870 5.466462 -9.986005
v 2.412428 5.564908 -9.986005
v 2.412428 5.368020 -9.986005
v 2.313984 5.466462 -9.986005
v 2.412428 5.564908 -8.509927
v 2.412428 5.368020 -8.509927
v 2.313984 5.466462 -8.509927
v 2.510870 5.466462 -8.509927
v 2.510870 6.450902 -9.986005
v 2.412428 6.549347 -9.986005
v 2.412428 6.352459 -9.986005
v 2.313984 6.450902 -9.986005
v 2.412428 6.549347 -8.509927
v 2.412428 6.352459 -8.509927
v 2.313984 6.450902 -8.509927
v 2.510870 6.450902 -8.509927
v 2.510870 7.435341 -9.986005
v 2.412428 7.533787 -9.986005
v 2.412428 7.336899 -9.986005
v 2.313984 7.435341 -9.986005
v 2.412428 7.533787 -8.509927
v 2.412428 7.336899 -8.509927
v 2.313984 7.435341 -8.509927
v 2.510870 7.435341 -8.509927
v 2.510870 8.419782 -9.986005
v 2.412428 8.518228 -9.986005
v 2.412428 8.321340 -9.986005
v 2.313984 8.419782 -9.986005
v 2.412428 8.518228 -8.509927
v 2.412428 8.321340 -8.509927
v 2.313984 8.419782 -8.509927
v 2.510870 8.419782 -8.509927
v 2.510870 9.404222 -9.986005
v 2.412428 9.502667 -9.986005
v 2.412428 9.305779 -9.986005
v 2.313984 9.404222 -9.986005
v 2.412428 9.502667 -8.509927
v 2.412428 9.305779 -8.509927
v 2.313984 9.404222 -8.509927
v 2.510870 9.404222 -8.509927
v 2.510870 10.388661 -9.986005
v 2.412428 10.487107 -9.986005
v 2.412428 10.290219 -9.986005
v 2.313984 10.388661 -9.986005
v 2.412428 10.487107 -8.509927
v 2.412428 10.290219 -8.509927
v 2.313984 10.388661 -8.509927
v 2.510870 10.388661 -8.509927
v 2.510870 11.373101 -9.986005
v 2.412428 11.471547 -9.986005
v 2.412428 11.274659 -9.986005
v 2.313984 11.373101 -9.986005
v 2.412428 11.471547 -8.509927
v 2.412428 11.274659 -8.509927
v 2.313984 11.373101 -8.509927
v 2.510870 11.373101 -8.509927
v -0.141350 -5.299999 3.180299
v -0.141350 1.000000 -2.844428
v -0.141350 1.100001 -2.917950
v -0.141350 -5.200001 2.955300
v -0.141350 1.100001 -1.568088
v -0.141350 1.000000 -1.644700
v -0.141350 -5.199999 1.707494
v -0.141349 -5.299999 1.780807
v -0.091350 -5.249999 1.744151
v -0.191349 -5.249999 1.744151
v -0.091350 1.050000 -1.606394
v -0.141350 1.050000 -2.881189
v -0.041350 1.050000 -2.881189
v -0.091350 -5.250000 3.067800
v -0.191349 -5.250000 3.067800
v -0.191349 1.050000 -1.606394
v 1.963823 5.059357 -6.398661
v 1.914602 5.059357 -6.349438
v 1.914602 5.059357 -6.447882
v 1.865380 5.059357 -6.398661
v 1.914602 2.873152 -6.349438
v 1.914602 2.873152 -6.447882
v 1.865380 2.873152 -6.398661
v 1.963823 2.873152 -6.398661
v 1.963823 2.873152 5.935148
v 1.865380 2.873152 5.935148
v 1.914602 2.873152 5.885926
v 1.914602 2.873152 5.984370
v 1.865380 5.059357 5.935148
v 1.914602 5.059357 5.885926
v 1.914602 5.059357 5.984370
v 1.963823 5.059357 5.935148
v 1.963823 2.873152 3.880148
v 1.865380 2.873152 3.880148
v 1.914602 2.873152 3.830926
v 1.914602 2.873152 3.929370
v 1.865380 5.059357 3.880148
v 1.914602 5.059357 3.830926
v 1.914602 5.059357 3.929370
v 1.963823 5.059357 3.880148
v 1.963823 2.873152 1.825148
v 1.865380 2.873152 1.825148
v 1.914602 2.873152 1.775926
v 1.914602 2.873152 1.874370
v 1.865380 5.059357 1.825148
v 1.914602 5.059357 1.775926
v 1.914602 5.059357 1.874370
v 1.963823 5.059357 1.825148
v 1.963823 2.873152 -0.229852
v 1.865380 2.873152 -0.229852
v 1.914602 2.873152 -0.279075
v 1.914602 2.873152 -0.180631
v 1.865380 5.059357 -0.229852
v 1.914602 5.059357 -0.279075
v 1.914602 5.059357 -0.180631
v 1.963823 5.059357 -0.229852
v 1.963823 2.873152 -2.284853
v 1.865380 2.873152 -2.284853
v 1.914602 2.873152 -2.334074
v 1.914602 2.873152 -2.235632
v 1.865380 5.059357 -2.284853
v 1.914602 5.059357 -2.334074
v 1.914602 5.059357 -2.235632
v 1.963823 5.059357 -2.284853
v 1.963823 2.873152 -4.339853
v 1.865380 2.873152 -4.339853
v 1.914602 2.873152 -4.389074
v 1.914602 2.873152 -4.290632
v 1.865380 5.059357 -4.339853
v 1.914602 5.059357 -4.389074
v 1.914602 5.059357 -4.290632
v 1.963823 5.059357 -4.339853
v -0.091177 5.059357 -6.398661
v -0.140398 5.059357 -6.349438
v -0.140398 5.059357 -6.447882
v -0.189620 5.059357 -6.398661
v -0.140398 2.873152 -6.349438
v -0.140398 2.873152 -6.447882
v -0.189620 2.873152 -6.398661
v -0.091177 2.873152 -6.398661
v -0.091177 2.873152 5.935148
v -0.189620 2.873152 5.935148
v -0.140398 2.873152 5.885926
v -0.140398 2.873152 5.984370
v -0.189620 5.059357 5.935148
v -0.140398 5.059357 5.885926
v -0.140398 5.059357 5.984370
v -0.091177 5.059357 5.935148
v -2.146178 5.059357 -6.398661
v -2.195399 5.059357 -6.349438
v -2.195399 5.059357 -6.447882
v -2.244621 5.059357 -6.398661
v -2.195399 2.873152 -6.349438
v -2.195399 2.873152 -6.447882
v -2.244621 2.873152 -6.398661
v -2.146178 2.873152 -6.398661
v -2.146178 2.873152 5.935148
v -2.244621 2.873152 5.935148
v -2.195399 2.873152 5.885926
v -2.195399 2.873152 5.984370
v -2.244621 5.059357 5.885926
v -2.195399 5.059357 5.885926
v -2.195399 5.059357 5.984370
v -2.146178 5.059357 5.935148
v 1.914602 5.010136 -6.398661
v 1.914602 5.108579 -6.398661
v -2.244621 5.108578 -6.398661
v -2.244621 5.010135 -6.398661
v 1.865380 5.059357 -6.349438
v 1.914602 5.108578 5.935148
v 1.914602 5.010136 5.935148
v -2.244621 5.108578 5.935147
v -2.244621 5.010135 5.935147
v 1.865380 5.059357 -6.349438
v 1.963823 5.059357 -6.447882
v -2.244621 5.059356 -6.349438
v -2.244621 5.059356 -6.447882
v 1.865380 5.059357 5.885926
v -2.244621 5.059357 5.885926
v -2.244621 5.059356 5.984370
v 1.963823 5.059357 -6.447882
v 1.963823 5.059357 5.984370
v 1.756703 -5.299999 3.180299
v 1.756703 1.000000 -2.844428
v 1.756703 1.100001 -2.917950
v 1.756703 -5.200001 2.955300
v 1.756703 1.100001 -1.568088
v 1.756703 1.000000 -1.644700
v 1.756703 -5.199999 1.707494
v 1.756703 -5.299999 1.780807
v 1.806703 -5.249999 1.744151
v 1.706703 -5.249999 1.744151
v 1.806703 1.050000 -1.606394
v 1.756703 1.050000 -2.881189
v 1.856703 1.050000 -2.881189
v 1.806703 -5.250000 3.067800
v 1.706703 -5.250000 3.067800
v 1.706703 1.050000 -1.606394
v 2.227288 0.873944 -10.077005
v 2.128846 0.972390 -10.077005
v 2.128846 0.775502 -10.077005
v 2.030402 0.873944 -10.077005
v 2.128846 0.972390 -8.423439
v 2.128846 0.775502 -8.423439
v 2.030402 0.873944 -8.423439
v 2.227288 0.873944 -8.423439
v 2.227288 1.858384 -10.077005
v 2.128846 1.956830 -10.077005
v 2.128846 1.759942 -10.077005
v 2.030402 1.858384 -10.077005
v 2.128846 1.956830 -8.423439
v 2.128846 1.759942 -8.423439
v 2.030402 1.858384 -8.423439
v 2.227288 1.858384 -8.423439
v 2.227288 2.842824 -10.077005
v 2.128846 2.941269 -10.077005
v 2.128846 2.744381 -10.077005
v 2.030402 2.842824 -10.077005
v 2.128846 2.941269 -8.423439
v 2.128846 2.744381 -8.423439
v 2.030402 2.842824 -8.423439
v 2.227288 2.842824 -8.423439
v 2.227288 3.827263 -10.077005
v 2.128846 3.925709 -10.077005
v 2.128846 3.728821 -10.077005
v 2.030402 3.827263 -10.077005
v 2.128846 3.925709 -8.423439
v 2.128846 3.728821 -8.423439
v 2.030402 3.827263 -8.423439
v 2.227288 3.827263 -8.423439
v 2.227288 4.811703 -10.077005
v 2.128846 4.910149 -10.077005
v 2.128846 4.713261 -10.077005
v 2.030402 4.811703 -10.077005
v 2.128846 4.910149 -8.423439
v 2.128846 4.713261 -8.423439
v 2.030402 4.811703 -8.423439
v 2.227288 4.811703 -8.423439
v 2.227288 5.796143 -10.077005
v 2.128846 5.894589 -10.077005
v 2.128846 5.697701 -10.077005
v 2.030402 5.796143 -10.077005
v 2.128846 5.894589 -8.423439
v 2.128846 5.697701 -8.423439
v 2.030402 5.796143 -8.423439
v 2.227288 5.796143 -8.423439
v 2.227288 6.780583 -10.077005
v 2.128846 6.879029 -10.077005
v 2.128846 6.682141 -10.077005
v 2.030402 6.780583 -10.077005
v 2.128846 6.879029 -8.423439
v 2.128846 6.682141 -8.423439
v 2.030402 6.780583 -8.423439
v 2.227288 6.780583 -8.423439
v 2.227288 7.765023 -10.077005
v 2.128846 7.863469 -10.077005
v 2.128846 7.666581 -10.077005
v 2.030402 7.765023 -10.077005
v 2.128846 7.863469 -8.423439
v 2.128846 7.666581 -8.423439
v 2.030402 7.765023 -8.423439
v 2.227288 7.765023 -8.423439
v 2.227288 8.749463 -10.077005
v 2.128846 8.847909 -10.077005
v 2.128846 8.651021 -10.077005
v 2.030402 8.749463 -10.077005
v 2.128846 8.847909 -8.423439
v 2.128846 8.651021 -8.423439
v 2.030402 8.749463 -8.423439
v 2.227288 8.749463 -8.423439
v 2.227288 9.733903 -10.077005
v 2.128846 9.832349 -10.077005
v 2.128846 9.635461 -10.077005
v 2.030402 9.733903 -10.077005
v 2.128846 9.832349 -8.423439
v 2.128846 9.635461 -8.423439
v 2.030402 9.733903 -8.423439
v 2.227288 9.733903 -8.423439
v 2.227288 10.718343 -10.077005
v 2.128846 10.816789 -10.077005
v 2.128846 10.619901 -10.077005
v 2.030402 10.718343 -10.077005
v 2.128846 10.816789 -8.423439
v 2.128846 10.619901 -8.423439
v 2.030402 10.718343 -8.423439
v 2.227288 10.718343 -8.423439
v 2.227288 11.702783 -10.077005
v 2.128846 11.801229 -10.077005
v 2.128846 11.604341 -10.077005
v 2.030402 11.702783 -10.077005
v 2.128846 11.801229 -8.423439
v 2.128846 11.604341 -8.423439
v 2.030402 11.702783 -8.423439
v 2.227288 11.702783 -8.423439
vn -0.0000 -1.0000 -0.0000
vn 1.0000 -0.0000 -0.0000
vn -0.0000 1.0000 -0.0000
vn -0.0000 0.4495 -0.8933
vn -0.0000 -0.8960 -0.4440
vn -0.0000 -0.8904 -0.4552
vn -0.0000 -0.0000 -1.0000
vn 0.2425 -0.0109 -0.9701
vn 0.7071 -0.0000 -0.7071
vt 1.000000 -0.000000
vt 1.000000 1.000000
vt 0.000000 1.000000
vt 0.000000 -0.000000
vt 0.078125 -0.000000
vt 0.078125 1.000000
vt 0.687500 1.000000
vt 0.687500 -0.000000
vt -1.312500 1.000000
vt -1.312500 -0.000000
vt 1.781250 -0.000000
vt 1.781250 1.000000
vt -0.546875 1.000000
vt -0.546875 -0.000000
vt -0.218750 -0.000000
vt -0.218750 1.000000
vt -0.250000 0.000000
vt 1.250000 0.000000
vt 1.250000 1.000000
vt -0.250000 1.000000
vt 3.500000 1.000000
vt 3.500000 0.000000
vt -2.500000 0.000000
vt -2.500000 1.000000
vt -3.906250 1.000000
vt 4.906250 1.000000
vt 4.906250 0.000000
vt -3.906250 0.000000
s 1
f 4/1/1 1/2/1 8/3/1 7/4/1
f 6/4/2 3/1/2 2/2/2 5/3/2
f 12/1/1 9/2/1 16/3/1 15/4/1
f 14/4/2 11/1/2 10/2/2 13/3/2
f 20/1/1 17/2/1 24/3/1 23/4/1
f 22/4/2 19/1/2 18/2/2 21/3/2
f 28/1/1 25/2/1 32/3/1 31/4/1
f 30/4/2 27/1/2 26/2/2 29/3/2
f 36/1/1 33/2/1 40/3/1 39/4/1
f 38/4/2 35/1/2 34/2/2 37/3/2
f 44/1/1 41/2/1 48/3/1 47/4/1
f 46/4/2 43/1/2 42/2/2 45/3/2
f 52/1/1 49/2/1 56/3/1 55/4/1
f 54/4/2 51/1/2 50/2/2 53/3/2
f 60/1/1 57/2/1 64/3/1 63/4/1
f 62/4/2 59/1/2 58/2/2 61/3/2
f 68/1/1 65/2/1 72/3/1 71/4/1
f 70/4/2 67/1/2 66/2/2 69/3/2
f 76/1/1 73/2/1 80/3/1 79/4/1
f 78/4/2 75/1/2 74/2/2 77/3/2
f 84/1/1 81/2/1 88/3/1 87/4/1
f 86/4/2 83/1/2 82/2/2 85/3/2
f 92/1/1 89/2/1 96/3/1 95/4/1
f 94/4/2 91/1/2 90/2/2 93/3/2
f 98/5/2 99/6/2 101/7/2 102/8/2
f 104/6/2 103/5/2 100/8/2 97/7/2
f 97/9/2 100/10/2 102/11/2 101/12/2
f 105/13/3 106/14/3 111/15/4 110/16/4
f 108/13/1 109/14/1 107/15/5 112/16/6
f 110/9/4 111/10/4 112/11/6 107/12/5
f 116/1/7 113/2/7 120/3/7 119/4/7
f 118/4/2 115/1/2 114/2/2 117/3/2
f 123/4/2 126/1/2 127/2/2 124/3/2
f 125/1/7 128/2/7 121/3/7 122/4/7
f 131/4/2 134/1/2 135/2/2 132/3/2
f 133/1/7 136/2/7 129/3/7 130/4/7
f 139/17/2 142/18/2 143/19/2 140/20/2
f 141/1/7 144/2/7 137/3/7 138/4/7
f 147/4/2 150/1/2 151/2/2 148/3/2
f 149/1/7 152/2/7 145/3/7 146/4/7
f 155/4/2 158/1/2 159/2/2 156/3/2
f 157/1/7 160/2/7 153/3/7 154/4/7
f 163/4/2 166/1/2 167/2/2 164/3/2
f 165/1/7 168/2/7 161/3/7 162/4/7
f 172/1/7 169/2/7 176/3/7 175/4/7
f 174/4/2 171/1/2 170/2/2 173/3/2
f 179/4/2 182/1/2 183/2/2 180/3/2
f 181/1/7 184/2/7 177/3/7 178/4/7
f 188/1/7 185/2/7 192/3/7 191/4/7
f 190/4/2 187/1/2 186/2/2 189/3/2
f 195/4/2 198/1/2 199/2/2 196/3/2
f 197/1/8 200/2/8 193/3/8 194/4/8
f 202/21/9 201/22/9 204/23/7 203/24/7
f 202/25/9 206/26/2 207/27/2 201/28/9
f 206/21/7 207/22/7 209/23/7 208/24/7
f 214/27/3 218/26/3 217/25/3 205/28/3
f 213/24/1 211/21/1 210/22/1 212/23/1
f 215/22/1 214/23/1 218/24/1 216/21/1
f 220/5/2 221/6/2 223/7/2 224/8/2
f 226/6/2 225/5/2 222/8/2 219/7/2
f 219/9/2 222/10/2 224/11/2 223/12/2
f 227/13/3 228/14/3 233/15/4 232/16/4
f 230/13/1 231/14/1 229/15/5 234/16/6
f 232/9/4 233/10/4 234/11/6 229/12/5
f 238/1/1 235/2/1 242/3/1 241/4/1
f 240/4/2 237/1/2 236/2/2 239/3/2
f 246/1/1 243/2/1 250/3/1 249/4/1
f 248/4/2 245/1/2 244/2/2 247/3/2
f 254/1/1 251/2/1 258/3/1 257/4/1
f 256/4/2 253/1/2 252/2/2 255/3/2
f 262/1/1 259/2/1 266/3/1 265/4/1
f 264/4/2 261/1/2 260/2/2 263/3/2
f 270/1/1 267/2/1 274/3/1 273/4/1
f 272/4/2 269/1/2 268/2/2 271/3/2
f 278/1/1 275/2/1 282/3/1 281/4/1
f 280/4/2 277/1/2 276/2/2 279/3/2
f 286/1/1 283/2/1 290/3/1 289/4/1
f 288/4/2 285/1/2 284/2/2 287/3/2
f 294/1/1 291/2/1 298/3/1 297/4/1
f 296/4/2 293/1/2 292/2/2 295/3/2
f 302/1/1 299/2/1 306/3/1 305/4/1
f 304/4/2 301/1/2 300/2/2 303/3/2
f 310/1/1 307/2/1 314/3/1 313/4/1
f 312/4/2 309/1/2 308/2/2 311/3/2
f 318/1/1 315/2/1 322/3/1 321/4/1
f 320/4/2 317/1/2 316/2/2 319/3/2
f 326/1/1 323/2/1 330/3/1 329/4/1
f 328/4/2 325/1/2 324/2/2 327/3/2
