# Blender 4.0.1
# www.blender.org
o TVGray
v -0.000000 2.700000 1.350001
v -0.000000 2.500000 1.350000
v -0.000000 2.500000 -1.350001
v -0.000000 2.700000 -1.350001
v 1.100000 2.700000 -1.350001
v -1.100000 2.200000 -1.350001
v 1.100000 2.700000 1.350001
v -1.100000 2.200000 1.350001
v 1.100000 0.800000 -1.050000
v 1.100000 2.400000 -1.050000
v 1.000000 2.300000 0.950000
v 1.000000 0.900000 0.950000
v 1.100000 0.800000 1.049999
v 1.000000 2.300000 -0.950001
v 1.100000 2.400000 1.049999
v 1.000000 0.900000 -0.950001
v -1.100000 -0.000000 1.350001
v 1.100000 -0.000000 1.350001
v -1.100000 0.000000 -1.350001
v -0.000000 0.000000 -1.350001
v 1.100000 0.000000 -1.350001
v -0.000000 -0.000000 1.350001
vn -1.0000 -0.0000 -0.0000
vn -0.9559 0.2936 0.0049
vn -0.9805 0.0868 -0.1762
vn -0.9805 0.1250 -0.1515
vn -0.0000 -0.0000 -1.0000
vn -0.0000 -0.0000 1.0000
vn -0.0351 -0.1933 0.9805
vn -0.1197 -0.1558 0.9805
vn 0.0741 -0.0541 0.9958
vn -0.2846 -0.0723 0.9559
vn 0.0541 0.0741 0.9958
vn 0.1658 0.9805 0.1054
vn -0.0000 1.0000 -0.0000
vn 0.1696 0.9805 -0.0991
vn 0.7071 -0.0000 0.7071
vn 0.7071 0.7071 -0.0000
vn 0.7071 -0.7071 -0.0000
vn 0.7071 -0.0000 -0.7071
vn -0.2631 0.9648 -0.0000
vn -0.3570 0.8934 -0.2726
vn -0.2457 0.9238 -0.2936
vn 1.0000 -0.0000 -0.0000
vn -0.0000 -1.0000 -0.0000
vt 0.812500 0.320312
vt 0.812500 0.695312
vt 0.781250 0.695312
vt 0.781250 0.320312
vt 0.617188 1.000000
vt 0.617188 0.625000
vt 0.468750 0.625000
vt 0.468750 1.000000
vt 0.468750 0.976562
vt 0.312500 0.929688
vt 0.312500 0.625000
vt 0.625000 0.695312
vt 0.625000 0.320312
vt 0.546875 0.179688
vt 0.546875 0.531250
vt 0.507812 0.500000
vt 0.507812 0.210938
vt 0.062500 0.179688
vt 0.101562 0.210938
vt 0.062500 0.531250
vt 0.101562 0.500000
vt 0.968750 0.320312
vt 0.968750 0.695312
vt 1.000000 0.703125
vt 1.000000 1.000000
vt 0.617188 0.703125
vt 0.609375 0.601562
vt 0.000000 0.601562
vt 0.000000 0.000000
vt 0.609375 0.000000
vt 0.609375 0.320312
vt 1.000000 0.320312
vt 1.000000 0.000000
s 0
f 3/1/1 2/2/2 1/3/3
f 1/3/4 4/4/1 3/1/1
f 5/5/5 21/6/5 20/7/5
f 20/7/5 4/8/5 5/5/5
f 18/6/6 7/5/6 1/8/7
f 1/8/8 22/7/9 18/6/6
f 2/9/10 8/10/6 17/11/6 22/7/11
f 6/10/5 3/9/5 20/7/5 19/11/5
f 1/3/12 7/12/13 5/13/13
f 5/13/13 4/4/13 1/3/14
f 9/14/15 10/15/15 14/16/15 16/17/15
f 13/18/16 9/14/16 16/17/16 12/19/16
f 10/15/17 15/20/17 11/21/17 14/16/17
f 15/20/18 13/18/18 12/19/18 11/21/18
f 6/22/19 8/23/19 2/2/20
f 2/2/21 3/1/19 6/22/19
f 6/24/1 19/25/1 17/5/1
f 17/5/1 8/26/1 6/24/1
f 5/27/22 7/28/22 15/20/22
f 15/20/22 10/15/22 5/27/22
f 13/18/22 15/20/22 7/28/22
f 7/28/22 18/29/22 13/18/22
f 21/30/22 5/27/22 10/15/22
f 10/15/22 9/14/22 21/30/22
f 9/14/22 13/18/22 18/29/22
f 18/29/22 21/30/22 9/14/22
f 21/31/23 18/32/23 17/33/23 19/30/23
o TVBlack
v 0.300000 2.800000 -8.800000
v 0.300000 0.500000 -8.800000
v 0.300000 2.800000 -12.400001
v 0.900000 2.700000 -12.300000
v 0.900000 0.500000 -12.300000
v 0.300000 0.500000 -12.400001
v 0.900000 0.500000 -8.900000
v 0.900000 2.700000 -8.900000
v 0.900000 0.700000 -11.700000
v 0.900000 2.500000 -11.700000
v 0.800000 2.400000 -11.599999
v 0.800000 0.800000 -11.599999
v 0.900000 0.700000 -9.200000
v 0.800000 0.800000 -9.300000
v 0.900000 2.500000 -9.200000
v 0.800000 2.400000 -9.300000
v -1.000000 0.700000 -12.000001
v -1.000000 2.300000 -12.000001
v -1.000000 0.700000 -9.200000
v -1.000000 2.300000 -9.200000
v 0.300000 0.500000 -8.900000
v 0.800000 0.500000 -12.200000
v 0.300000 0.500000 -12.300000
v 0.800000 0.500000 -9.000000
v -1.000000 0.700000 -11.900001
v -1.000000 0.700000 -9.300000
v 0.300000 0.300000 -8.900000
v 0.800000 0.300000 -12.200000
v 0.300000 0.300000 -12.300000
v 0.800000 0.300000 -9.000000
v -1.000000 0.300000 -11.900001
v -1.000000 0.300000 -9.300000
vn 0.2294 0.6882 -0.6882
vn 0.2244 -0.5927 -0.7735
vn -0.2488 -0.4291 -0.8683
vn 0.3185 -0.1294 0.9391
vn 0.2294 0.6882 0.6882
vn -0.1103 -0.6089 0.7856
vn 0.8165 0.4082 0.4082
vn 0.8165 -0.4082 0.4082
vn 0.8165 0.4082 -0.4082
vn 0.8165 -0.4082 -0.4082
vn 0.3447 -0.2742 0.8978
vn -0.4403 0.6456 0.6240
vn -0.7431 0.4583 0.4877
vn -0.6956 -0.6217 0.3600
vn -0.4403 0.6456 -0.6240
vn -0.7431 0.4583 -0.4877
vn 1.0000 -0.0000 -0.0000
vn 0.9786 -0.1597 0.1294
vn 0.7999 -0.0942 -0.5927
vn 0.1428 -0.4178 -0.8973
vn -0.7411 -0.5793 -0.3394
vn -0.1196 -0.7976 -0.5912
vn 0.5974 -0.7999 -0.0581
vn 0.1427 -0.9786 0.1480
vn -0.3025 -0.7218 0.6225
vn -0.4022 -0.8172 -0.4129
vn -0.4665 -0.7925 0.3928
vn -0.1442 -0.7391 -0.6580
vn 0.4793 -0.7697 -0.4218
vn 0.7556 -0.3335 -0.5638
vn -0.0676 -0.2215 -0.9728
vn -0.8124 -0.4436 -0.3783
vn -0.7060 -0.0659 -0.7052
vn 0.1856 -0.7597 0.6232
vn -0.8405 -0.2695 0.4700
vn -0.8314 -0.1754 0.5272
vn -0.0452 -0.3774 0.9249
vn 0.5177 -0.7190 0.4638
vn 0.7024 -0.4082 0.5831
vn 0.2513 -0.9475 0.1979
vn -0.0189 -0.9393 0.3426
vn 0.0091 -0.9795 -0.2012
vn 0.1690 -0.9649 -0.2008
vn -0.0583 -0.9888 0.1371
vn -0.0709 -0.9918 0.1061
vt 1.000000 1.000000
vt 1.000000 0.500000
vt 0.781250 0.500000
vt 0.781250 1.000000
vt 0.000000 0.421875
vt 0.000000 0.273438
vt 0.500000 0.273438
vt 0.500000 0.421875
vt 0.429688 0.703125
vt 0.429688 0.960938
vt 0.398438 0.937500
vt 0.398438 0.726562
vt 0.078125 0.703125
vt 0.109375 0.726562
vt 0.078125 0.960938
vt 0.109375 0.937500
vt 0.500000 1.000000
vt 0.000000 1.000000
vt 0.000000 0.656250
vt 0.500000 0.656250
s 1
f 26/34/24 27/35/25 28/36/26
f 28/36/26 25/37/24 26/34/24
f 29/35/27 30/34/28 23/37/28
f 23/37/28 24/36/29 29/35/27
f 23/38/28 30/39/28 26/40/24
f 26/40/24 25/41/24 23/38/28
f 31/42/30 32/43/31 33/44/31
f 33/44/31 34/45/30 31/42/30
f 35/46/32 31/42/30 34/45/30
f 34/45/30 36/47/32 35/46/32
f 32/43/31 37/48/33 38/49/33
f 38/49/33 33/44/31 32/43/31
f 37/48/33 35/46/32 36/47/32
f 36/47/32 38/49/33 37/48/33
f 24/36/34 23/37/35 42/37/36 41/36/37
f 23/38/35 25/41/38 40/41/39 42/38/36
f 26/50/40 30/51/40 37/48/40
f 37/48/40 32/43/40 26/50/40
f 35/46/40 37/48/40 30/51/40
f 30/51/40 29/52/41 35/46/40
f 27/53/42 26/50/40 32/43/40
f 32/43/40 31/42/40 27/53/42
f 31/42/40 35/46/40 29/52/41
f 29/52/41 27/53/42 31/42/40
f 25/37/38 28/36/43 39/36/44 40/37/39
f 42/38/36 40/41/39 39/41/44 41/38/37
f 28/36/45 27/35/46 29/35/47 24/36/48
f 39/36/49 28/36/45 24/36/48 41/36/50
f 45/36/51 44/35/52 50/35/53 51/36/54
f 47/36/55 45/36/51 51/36/54 53/36/56
f 43/36/57 48/36/58 54/36/59 49/36/60
f 44/53/52 46/52/61 52/52/62 50/53/53
f 46/35/61 43/36/57 49/36/60 52/35/62
f 47/36/55 53/36/56 54/36/59 48/36/58
f 52/35/63 49/36/64 51/36/65 50/35/66
f 49/36/64 54/36/67 53/36/68 51/36/65
o hitachi
v 1.000000 2.700000 -6.700000
v 1.000000 1.100000 -6.700000
v 1.000000 2.700000 -4.800000
v 1.000000 1.100000 -4.800000
v 1.000000 0.500000 -4.500000
v 1.000000 2.900000 -4.500000
v 1.000000 2.900000 -7.000000
v 1.000000 0.499999 -7.000000
v 0.900000 1.300000 -5.000000
v 0.900000 2.500000 -5.000000
v 0.900000 2.500000 -6.500000
v 0.900000 1.300000 -6.500000
v 1.000000 1.900000 -5.750000
v -1.100000 2.899999 -7.000000
v -1.100000 2.900000 -4.500000
v -1.400000 2.300000 -7.000000
v -1.400000 2.300000 -4.500000
v -1.400000 0.499999 -6.999999
v -1.400000 0.500000 -4.500000
v -1.000000 0.200000 -6.900000
v -1.000000 0.399999 -6.900000
v -1.000000 0.400000 -4.599999
v -1.000000 0.200000 -4.599999
v 0.800000 0.399999 -6.900000
v 0.800000 0.200000 -6.900000
v 0.800000 0.400000 -4.599999
v 0.800000 0.200000 -4.599999
vn 0.8944 -0.0000 0.4472
vn 0.4472 -0.8944 -0.0000
vn 1.0000 -0.0000 -0.0000
vn 0.9864 -0.1644 -0.0000
vn 0.8944 -0.4472 -0.0000
vn 0.8944 0.4472 -0.0000
vn 0.8944 -0.0000 -0.4472
vn 0.9912 -0.0000 0.1322
vn 0.9912 -0.0000 -0.1322
vn 0.9864 0.1644 -0.0000
vn -0.8944 0.4472 -0.0000
vn -1.0000 -0.0000 -0.0000
vn -0.2425 -0.9701 -0.0000
vn -0.0000 -0.0000 1.0000
vn -0.0000 -0.0000 -1.0000
vn -0.0000 -1.0000 -0.0000
vn -0.0000 -0.7071 -0.7071
vn -0.0000 -0.7071 0.7071
vn -0.0000 1.0000 -0.0000
vt 0.593270 0.718270
vt 0.406730 0.718270
vt 0.625000 0.500000
vt 0.875000 0.500000
vt 0.875000 0.750000
vt 0.625000 0.750000
vt 0.593270 0.531730
vt 0.406730 0.531730
vt 0.375000 0.500000
vt 0.375000 0.750000
vt 0.125000 0.500000
vt 0.125000 0.750000
vt 0.375000 0.000000
vt 0.625000 0.000000
vt 0.625000 0.250000
vt 0.375000 0.250000
vt 0.625000 1.000000
vt 0.375000 1.000000
s 0
f 56/54/69 55/55/69 65/55/69 66/54/69
f 59/56/70 80/57/70 78/58/70 62/59/70
f 58/60/71 57/61/71 60/62/71 59/56/71
f 57/61/71 55/55/71 61/63/71 60/62/71
f 56/54/71 58/60/71 59/56/71 62/59/71
f 55/55/71 56/54/71 62/59/71 61/63/71
f 63/60/72 66/54/72 67/60/72
f 55/55/73 57/61/73 64/61/73 65/55/73
f 58/60/74 56/54/74 66/54/74 63/60/74
f 57/61/75 58/60/75 63/60/75 64/61/75
f 64/61/76 63/60/76 67/61/76
f 66/54/77 65/55/77 67/54/77
f 65/55/78 64/61/78 67/55/78
f 69/64/79 68/65/79 70/65/79 71/64/79
f 71/64/80 70/65/80 72/65/80 73/64/80
f 73/64/81 72/65/81 75/65/81 76/64/81
f 75/66/80 74/67/80 77/68/80 76/69/80
f 76/69/82 77/68/82 81/56/82 80/62/82
f 80/62/71 81/56/71 79/59/71 78/63/71
f 78/63/83 79/59/83 74/70/83 75/71/83
f 81/56/84 77/57/84 74/58/84 79/59/84
f 72/65/83 70/65/83 61/65/83 62/65/83
f 69/64/82 71/64/82 60/64/82
f 75/65/85 72/65/85 62/65/85 78/65/85
f 71/64/82 73/64/82 59/64/82 60/64/82
f 70/65/83 68/65/83 61/65/83
f 73/64/86 76/64/86 80/64/86 59/64/86
f 68/65/87 69/64/87 60/64/87 61/65/87
o Cube
v 0.100000 2.600000 -14.498336
v 0.100000 2.800000 -18.498337
v 0.100000 2.600000 -16.998335
v 0.100000 0.800000 -14.498336
v 0.100000 0.800000 -16.998335
v 0.100000 0.600000 -14.298336
v 0.100000 2.800000 -14.298336
v 0.100000 2.800000 -17.198336
v 0.000000 1.000000 -14.698336
v 0.000000 2.400000 -14.698336
v 0.000000 2.400000 -16.798336
v 0.000000 1.000000 -16.798336
v 0.100000 0.500000 -18.398336
v 0.100000 0.500000 -17.998337
v -0.000000 0.600000 -17.198336
v 0.000000 0.400000 -18.498337
v -0.000000 0.400000 -17.198336
v 0.000000 0.100000 -18.498337
v 0.000000 0.600000 -14.298336
v -1.700000 0.100000 -15.598336
v -1.700000 2.700000 -15.598336
v -0.600000 2.700000 -18.398336
v -1.700000 0.100000 -17.198336
v -1.700000 2.700000 -17.198336
v -2.000000 2.700000 -14.398336
v -2.000000 0.100000 -14.398336
v -2.000000 2.700000 -18.398336
v -2.000000 0.100000 -18.398336
v -2.000000 2.700000 -15.598336
v -2.000000 0.100000 -15.598336
v -2.000000 2.700000 -17.198336
v -2.000000 0.100000 -17.198336
v -0.600000 2.700000 -14.398336
v -0.600000 2.700000 -17.198336
v -0.600000 2.700000 -15.598335
v -0.600000 0.600000 -14.298336
v -0.600000 2.800000 -14.298336
v -0.600000 2.800000 -18.498337
v 0.000000 0.100000 -14.298336
v -0.600000 0.100000 -14.298336
v -0.600000 0.400000 -18.498337
v -0.600000 0.100000 -14.398336
v -0.600000 0.100000 -18.398336
v -0.600000 0.100000 -18.498337
v -0.600000 2.800000 -18.498337
v -0.000000 0.100000 -17.198336
v -0.600000 0.100000 -15.598335
v -0.600000 0.100000 -17.198336
v 0.100000 2.700000 -18.398336
v 0.100000 0.600000 -17.198336
v 0.100000 2.700000 -17.998337
v 0.100000 0.400000 -17.198336
v 0.100000 0.400000 -18.498337
v 0.000000 2.600000 -18.198336
v 0.000000 0.600000 -18.198336
vn 0.7071 0.7071 -0.0000
vn 0.8944 0.4472 -0.0000
vn 1.0000 -0.0000 -0.0000
vn 0.8944 -0.4472 -0.0000
vn 0.8944 -0.0000 0.4472
vn 0.8944 -0.0000 -0.4472
vn -0.0000 -1.0000 -0.0000
vn -0.0000 -0.0000 1.0000
vn -0.0000 -0.0000 -1.0000
vn -1.0000 -0.0000 -0.0000
vn -0.0000 1.0000 -0.0000
vn 0.7071 -0.7071 -0.0000
vt 0.411661 0.866298
vt 0.385818 0.758702
vt 0.505910 0.995340
vt 0.505910 0.879660
vt 0.619090 0.995340
vt 0.625000 1.000000
vt 0.500000 1.000000
vt 0.619090 0.879660
vt 0.625000 0.875000
vt 0.500000 0.875000
vt 0.375000 0.750000
vt 0.375000 0.875000
vt 0.625000 0.750000
vt 0.486045 0.322130
vt 0.513955 0.322130
vt 0.513955 0.427870
vt 0.486045 0.427870
vt 0.625000 0.250000
vt 0.375000 0.250000
vt 0.625000 0.500000
vt 0.375000 0.500000
vt 0.618476 0.866298
vt 0.616292 0.758702
vt 0.448265 0.862694
s 0
f 95/72/88 94/73/88 136/72/88
f 85/74/89 86/75/89 93/75/89 90/74/89
f 85/74/90 82/76/90 88/77/90 87/78/90
f 82/76/90 84/79/90 89/80/90 88/77/90
f 84/79/90 86/75/90 131/81/90 89/80/90
f 86/75/90 85/74/90 87/78/90 131/81/90
f 90/74/90 93/75/90 92/79/90 91/76/90
f 84/79/91 82/76/91 91/76/91 92/79/91
f 86/75/92 84/79/92 92/79/92 93/75/92
f 82/76/93 85/74/93 90/74/93 91/76/93
f 134/82/94 133/83/94 98/83/94 97/82/94
f 131/81/94 87/78/94 100/78/94 96/81/94
f 133/83/95 131/81/95 96/81/95 98/83/95
f 83/84/96 134/82/96 122/82/96 119/84/96
f 100/83/90 120/83/90 127/83/90 96/83/90
f 101/85/97 102/86/97 105/87/97 104/88/97
f 105/87/98 102/86/98 116/86/98 115/87/98
f 110/86/98 106/89/98 114/89/98 116/86/98
f 110/86/97 111/85/97 107/90/97 106/89/97
f 113/88/97 112/87/97 108/91/97 109/92/97
f 102/86/96 101/85/96 111/85/96 110/86/96
f 108/91/98 112/87/98 115/87/98 103/91/98
f 104/88/95 105/87/95 112/87/95 113/88/95
f 87/78/95 88/77/95 118/77/95 117/78/95
f 118/77/98 88/77/98 83/77/98 119/77/98
f 120/83/95 100/83/95 117/83/95 121/83/95
f 106/89/95 107/90/95 123/90/95 114/89/95
f 122/82/96 97/82/96 99/82/96 125/82/96
f 109/92/96 108/91/96 103/91/96 124/92/96
f 126/84/97 125/82/97 124/82/97 103/84/97
f 126/84/97 103/84/97 114/84/97 118/84/97
f 118/84/97 114/84/97 123/84/97 121/84/97
f 97/82/90 98/83/90 127/83/90 99/82/90
f 113/88/94 109/92/94 124/92/94 129/88/94
f 107/90/94 111/85/94 128/85/94 123/90/94
f 101/85/94 104/88/94 129/88/94 128/85/94
f 120/83/94 121/83/94 125/83/94 99/83/94
f 132/93/90 130/94/90 83/84/90 89/80/90
f 94/73/90 95/72/90 133/83/90 134/82/90
f 130/94/90 94/73/90 134/82/90 83/84/90
f 95/95/90 132/93/90 89/93/90 133/95/90
f 94/73/92 130/94/92 135/94/92 136/73/92
f 132/93/93 95/95/93 136/95/93 135/93/93
f 130/94/99 132/93/99 135/94/99
