# Blender v3.4.1 OBJ File: '_PSX MODELS.blend'
# www.blender.org
o WaterHeater_Cube.004
v 0.668278 0.571134 0.270002
v 0.942658 0.571134 0.267275
v 0.668278 0.955086 0.270002
v 0.942658 0.955086 0.267275
v 0.663464 0.571134 -0.281624
v 0.937844 0.571134 -0.284351
v 0.663464 0.955086 -0.281624
v 0.937844 0.955086 -0.284351
v 0.151577 2.885187 -0.667245
v 0.149189 2.885187 -0.837845
v 0.008323 3.028446 -0.665995
v 0.005935 3.028446 -0.836595
v -0.134930 2.885187 -0.664745
v -0.137318 2.885187 -0.835345
v 0.008323 2.741928 -0.665995
v 0.005935 2.741928 -0.836595
v -0.266189 4.218611 -0.388330
v 0.277811 4.218611 -0.388330
v -0.266189 3.586690 -0.388330
v 0.277811 3.586690 -0.388330
v -0.266189 3.586690 0.409616
v 0.277811 3.586690 0.409616
v -0.266189 4.218611 0.409616
v 0.277811 4.218611 0.409616
v -0.266189 4.398611 0.097847
v 0.277811 4.398611 0.097847
v -0.016455 4.227700 -0.363780
v -0.016455 4.614883 -0.363780
v 0.158398 4.274734 -0.236742
v 0.158398 4.614883 -0.236742
v 0.091610 4.350837 -0.031189
v 0.091610 4.614883 -0.031189
v -0.124520 4.350837 -0.031189
v -0.124520 4.614883 -0.031189
v -0.191308 4.274734 -0.236742
v -0.191308 4.614883 -0.236742
v -0.108704 5.902843 -0.207461
v -0.108704 4.614883 -0.207461
v -0.042071 5.902843 -0.115748
v -0.042071 4.614883 -0.115748
v 0.065744 5.902843 -0.150779
v 0.065744 4.614884 -0.150779
v 0.065744 5.902843 -0.264143
v 0.065744 4.614883 -0.264143
v -0.042071 5.902843 -0.299174
v -0.042071 4.614884 -0.299174
v -0.281624 0.000000 -0.663464
v -0.281624 3.586691 -0.663464
v 0.270002 -0.000000 -0.668278
v 0.270002 3.586690 -0.668278
v 0.663464 0.000000 -0.281624
v 0.663464 3.586691 -0.281624
v 0.668278 0.000000 0.270002
v 0.668278 3.586690 0.270002
v 0.281624 0.000000 0.663464
v 0.281624 3.586690 0.663464
v -0.270002 0.000000 0.668278
v -0.270002 3.586690 0.668278
v -0.663464 0.000000 0.281624
v -0.663464 3.586691 0.281624
v -0.668278 0.000000 -0.270002
v -0.668278 3.586690 -0.270002
v 0.668278 2.198240 0.270002
v 0.783486 2.346752 0.114286
v 0.668278 3.026452 0.270002
v 0.783486 2.877940 0.114286
v 0.663464 2.198240 -0.281624
v 0.780399 2.346752 -0.133370
v 0.663464 3.026452 -0.281624
v 0.780399 2.877940 -0.133370
vt 0.882812 0.382812
vt 0.804688 0.382812
vt 0.804688 0.476562
vt 0.882812 0.476562
vt 0.882812 0.640625
vt 0.804688 0.640625
vt 0.804688 0.492188
vt 0.882812 0.492188
vt 0.882812 0.476562
vt 0.804688 0.476562
vt 0.804688 0.382812
vt 0.882812 0.382812
vt 0.804688 0.226562
vt 0.882812 0.226562
vt 0.882812 0.375000
vt 0.882812 0.226562
vt 0.976562 0.226562
vt 0.976562 0.375000
vt 0.414062 0.781250
vt 0.375000 0.781250
vt 0.375000 0.734375
vt 0.414062 0.734375
vt 0.375000 0.679688
vt 0.414062 0.679688
vt 0.421875 0.835938
vt 0.421875 0.890625
vt 0.375000 0.890625
vt 0.375000 0.835938
vt 0.375000 0.625000
vt 0.414062 0.625000
vt 0.414062 0.835938
vt 0.375000 0.835938
vt 0.093750 0.742188
vt 0.000000 0.742188
vt 0.000000 0.625000
vt 0.093750 0.625000
vt 0.093750 0.890625
vt 0.000000 0.890625
vt 0.000000 0.828125
vt 0.093750 0.828125
vt 0.093750 0.843750
vt 0.375000 0.625000
vt 0.375000 0.843750
vt 0.265625 0.906250
vt 0.093750 1.000000
vt 0.000000 1.000000
vt 0.375000 0.625000
vt 0.093750 0.625000
vt 0.093750 0.843750
vt 0.265625 0.906250
vt 0.375000 0.843750
vt 0.429688 0.773438
vt 0.546875 0.773438
vt 0.546875 0.851562
vt 0.437500 0.851562
vt 0.546875 0.921875
vt 0.460938 0.921875
vt 0.546875 1.000000
vt 0.460938 1.000000
vt 0.468750 0.828125
vt 0.453125 0.828125
vt 0.445312 0.804688
vt 0.460938 0.796875
vt 0.476562 0.804688
vt 0.460938 0.625000
vt 0.546875 0.625000
vt 0.546875 0.695312
vt 0.445312 0.695312
vt 0.921875 1.000000
vt 0.921875 0.781250
vt 0.937500 0.781250
vt 0.937500 1.000000
vt 0.960938 0.781250
vt 0.960938 1.000000
vt 0.984375 0.781250
vt 0.984375 1.000000
vt 1.000000 0.781250
vt 1.000000 1.000000
vt 0.898438 1.000000
vt 0.898438 0.781250
vt 0.382812 0.000000
vt 0.382812 0.625000
vt 0.289062 0.625000
vt 0.289062 0.000000
vt 0.195312 0.625000
vt 0.195312 0.000000
vt 0.101562 0.625000
vt 0.101562 0.000000
vt 0.000000 0.625000
vt 0.000000 0.000000
vt 0.773438 0.000000
vt 0.773438 0.625000
vt 0.671875 0.625000
vt 0.671875 0.000000
vt 0.578125 0.625000
vt 0.578125 0.000000
vt 0.835938 0.000000
vt 0.929688 0.000000
vt 1.000000 0.062500
vt 1.000000 0.164062
vt 0.929688 0.226562
vt 0.835938 0.226562
vt 0.773438 0.164062
vt 0.773438 0.062500
vt 0.484375 0.625000
vt 0.484375 0.000000
vt 0.554688 0.625000
vt 0.632812 0.695312
vt 0.632812 0.843750
vt 0.554688 0.929688
vt 0.695312 0.843750
vt 0.773438 0.929688
vt 0.695312 0.695312
vt 0.773438 0.625000
vn 0.0070 -0.7068 0.7073
vn 0.5827 -0.5774 0.5719
vn 0.5827 0.5774 0.5719
vn 0.0070 0.7068 0.7073
vn 0.5720 0.5773 -0.5827
vn -0.0070 0.7074 -0.7068
vn 0.5720 -0.5773 -0.5827
vn -0.0070 -0.7074 -0.7068
vn 0.9999 0.0000 -0.0140
vn 0.8100 0.0000 -0.5864
vn -0.0070 0.8165 -0.5773
vn 0.0024 1.0000 -0.0000
vn -0.8229 0.0000 -0.5682
vn -0.9999 0.0000 0.0140
vn -0.0070 -0.8165 -0.5773
vn 0.0024 -1.0000 -0.0000
vn -0.5983 0.4578 -0.6576
vn 0.5983 0.4578 -0.6576
vn 0.7071 0.0000 -0.7071
vn -0.7071 0.0000 -0.7071
vn -0.6100 0.3962 0.6862
vn 0.6100 0.3962 0.6862
vn 0.6228 0.7796 0.0660
vn -0.6228 0.7796 0.0660
vn -0.7071 0.0000 0.7071
vn 0.7071 0.0000 0.7071
vn 0.0000 0.0000 -1.0000
vn 0.0000 0.5957 -0.8032
vn 0.7639 0.5957 -0.2482
vn 0.9020 -0.0000 -0.4318
vn 0.4721 0.5957 0.6498
vn 0.6434 0.0000 0.7656
vn -0.4721 0.5957 0.6498
vn -0.6434 0.0000 0.7656
vn -0.7639 0.5957 -0.2482
vn -0.9020 0.0000 -0.4318
vn -1.0000 0.0000 0.0000
vn -0.3090 0.0000 0.9511
vn 0.8090 -0.0000 0.5878
vn 0.8090 -0.0000 -0.5878
vn -0.3090 0.0000 -0.9511
vn -0.3907 0.0000 -0.9205
vn 0.3746 0.0000 -0.9272
vn 0.9205 -0.0000 -0.3907
vn 0.9272 -0.0000 0.3746
vn 0.3907 0.0000 0.9205
vn -0.3746 0.0000 0.9272
vn -0.9205 0.0000 0.3907
vn 0.0000 1.0000 0.0000
vn -0.9272 0.0000 -0.3746
vn 0.8820 -0.3351 0.3312
vn 0.9383 -0.2537 0.2350
vn 0.9383 0.2537 0.2350
vn 0.8820 0.3351 0.3312
vn 0.9319 0.2527 -0.2602
vn 0.8730 0.3411 -0.3488
vn 0.9319 -0.2527 -0.2602
vn 0.8730 -0.3411 -0.3488
s 1
f 1/1/1 2/2/2 4/3/3 3/4/4
f 3/5/4 4/6/3 8/7/5 7/8/6
f 7/9/6 8/10/5 6/11/7 5/12/8
f 5/12/8 6/11/7 2/13/2 1/14/1
f 8/15/5 4/16/3 2/17/2 6/18/7
f 9/19/9 10/20/10 12/21/11 11/22/12
f 11/22/12 12/21/11 14/23/13 13/24/14
f 12/25/11 10/26/10 16/27/15 14/28/13
f 13/24/14 14/23/13 16/29/15 15/30/16
f 15/31/16 16/32/15 10/20/10 9/19/9
f 17/33/17 18/34/18 20/35/19 19/36/20
f 23/37/21 24/38/22 26/39/23 25/40/24
f 25/40/24 26/39/23 18/34/18 17/33/17
f 17/41/17 19/36/20 21/42/25 23/43/21 25/44/24
f 21/45/25 22/46/26 24/38/22 23/37/21
f 22/47/26 20/48/19 18/49/18 26/50/23 24/51/22
f 27/52/27 28/53/28 30/54/29 29/55/30
f 29/55/30 30/54/29 32/56/31 31/57/32
f 31/57/32 32/56/31 34/58/33 33/59/34
f 30/60/29 28/61/28 36/62/35 34/63/33 32/64/31
f 33/65/34 34/66/33 36/67/35 35/68/36
f 35/68/36 36/67/35 28/53/28 27/52/27
f 37/69/37 38/70/37 40/71/38 39/72/38
f 39/72/38 40/71/38 42/73/39 41/74/39
f 41/74/39 42/73/39 44/75/40 43/76/40
f 43/76/40 44/75/40 46/77/41 45/78/41
f 45/79/41 46/80/41 38/70/37 37/69/37
f 47/81/42 48/82/42 50/83/43 49/84/43
f 49/84/43 50/83/43 52/85/44 51/86/44
f 51/86/44 52/85/44 54/87/45 53/88/45
f 53/88/45 54/87/45 56/89/46 55/90/46
f 55/91/46 56/92/46 58/93/47 57/94/47
f 57/94/47 58/93/47 60/95/48 59/96/48
f 50/97/49 48/98/49 62/99/49 60/100/49 58/101/49 56/102/49 54/103/49 52/104/49
f 59/96/48 60/95/48 62/105/50 61/106/50
f 61/106/50 62/105/50 48/82/42 47/81/42
f 63/107/51 64/108/52 66/109/53 65/110/54
f 65/110/54 66/109/53 70/111/55 69/112/56
f 69/112/56 70/111/55 68/113/57 67/114/58
f 67/114/58 68/113/57 64/108/52 63/107/51
f 70/111/55 66/109/53 64/108/52 68/113/57
